<?xml version="1.0" standalone="no"?>
<!DOCTYPE svg PUBLIC "-//W3C//DTD SVG 1.1//EN" "http://www.w3.org/Graphics/SVG/1.1/DTD/svg11.dtd" >
<svg xmlns="http://www.w3.org/2000/svg" xmlns:xlink="http://www.w3.org/1999/xlink" version="1.1">
<metadata>
Created by FontForge 20170731 at Wed May  2 20:11:51 2018
 By Aleksey,,,
Copyright (c) 2017 by Colophon Foundry. All rights reserved.
</metadata>
<defs>
<font id="ApercuWeWorkMono-Regular" horiz-adv-x="620" >
  <font-face 
    font-family="Apercu WeWork Mono"
    font-weight="400"
    font-stretch="normal"
    units-per-em="1000"
    panose-1="2 1 5 9 4 0 0 4 0 3"
    ascent="788"
    descent="-212"
    x-height="504"
    cap-height="700"
    bbox="-612 -263 643 1119"
    underline-thickness="62"
    underline-position="-284"
    unicode-range="U+000D-FB02"
  />
<missing-glyph 
d="M86 0v700h447v-700h-447zM170 76h279v548h-279v-548z" />
    <glyph glyph-name="fi" unicode="fi" 
d="M166 0v428h-92v76h92v26q0 86 52 132t133 46q103 0 177 -76l-58 -55q-33 31 -58.5 43t-61.5 12q-47 0 -73.5 -24t-26.5 -71v-33h297v-504h-84v428h-213v-428h-84z" />
    <glyph glyph-name="fl" unicode="fl" 
d="M139 0v428h-92v76h92v18q0 178 155 178h228v-700h-84v624h-145q-70 0 -70 -95v-25h104v-76h-104v-428h-84z" />
    <glyph glyph-name=".notdef" 
d="M86 0v700h447v-700h-447zM170 76h279v548h-279v-548z" />
    <glyph glyph-name=".null" horiz-adv-x="0" 
 />
    <glyph glyph-name="nonmarkingreturn" horiz-adv-x="333" 
 />
    <glyph glyph-name="CR" unicode="&#xd;" 
 />
    <glyph glyph-name="space" unicode=" " 
 />
    <glyph glyph-name="exclam" unicode="!" 
d="M277 200l-24 500h114l-24 -500h-66zM310 -3q-30 0 -50 19.5t-20 48.5q0 30 20 50.5t50 20.5t50 -20.5t20 -50.5q0 -29 -20 -48.5t-50 -19.5z" />
    <glyph glyph-name="quotedbl" unicode="&#x22;" 
d="M182 462l-25 246h114l-25 -246h-64zM373 462l-25 246h114l-25 -246h-64z" />
    <glyph glyph-name="numbersign" unicode="#" 
d="M110 0l34 208h-98v74h110l22 136h-102v74h114l33 208h78l-33 -208h131l34 208h78l-34 -208h98v-74h-110l-22 -136h102v-74h-114l-33 -208h-78l33 208h-131l-34 -208h-78zM234 282h131l22 136h-131z" />
    <glyph glyph-name="dollar" unicode="$" 
d="M551 201q0 -88 -53 -141.5t-134 -64.5v-95h-80v94q-86 10 -144.5 63t-76.5 143l82 32q41 -156 179 -156q56 0 97.5 31t41.5 82q0 53 -35.5 80t-118.5 48q-90 23 -146 69.5t-56 134.5q0 72 47 123.5t130 61.5v94h80v-95q67 -11 111 -51.5t65 -95.5l-77 -39
q-46 105 -142 105q-58 0 -92 -28.5t-34 -79.5t38.5 -74t123.5 -45q45 -12 76 -25t60 -35t43.5 -56t14.5 -80z" />
    <glyph glyph-name="percent" unicode="%" 
d="M173 388q-68 0 -114 46.5t-46 113.5t46 113.5t114 46.5t114 -46.5t46 -113.5t-46 -113.5t-114 -46.5zM173 458q40 0 63.5 25.5t23.5 64.5t-23.5 64.5t-63.5 25.5t-63.5 -25.5t-23.5 -64.5t23.5 -64.5t63.5 -25.5zM74 151l-34 48l507 353l34 -48zM447 -8q-68 0 -114 46.5
t-46 113.5t46 113.5t114 46.5t114 -46.5t46 -113.5t-46 -113.5t-114 -46.5zM447 62q40 0 63.5 25.5t23.5 64.5t-23.5 64.5t-63.5 25.5t-63.5 -25.5t-23.5 -64.5t23.5 -64.5t63.5 -25.5z" />
    <glyph glyph-name="ampersand" unicode="&#x26;" 
d="M243 -8q-96 0 -154 55.5t-58 152.5q0 73 39.5 128.5t96.5 84.5q-61 83 -61 146q0 65 44.5 107t110.5 42q70 0 113 -42t43 -98q0 -106 -136 -176l146 -185q20 41 47 119l56 -61q-23 -69 -52 -123l112 -142h-101l-59 74q-72 -82 -187 -82zM235 446q50 25 76.5 52t26.5 65
q0 31 -21.5 52t-55.5 21t-54.5 -23t-20.5 -58q0 -45 49 -109zM243 68q84 0 139 67l-172 221q-95 -54 -95 -158q0 -60 37.5 -95t90.5 -35z" />
    <glyph glyph-name="quotesingle" unicode="'" 
d="M278 462l-25 246h114l-25 -246h-64z" />
    <glyph glyph-name="parenleft" unicode="(" 
d="M350 -50q-108 170 -108 400t108 400h84q-106 -168 -106 -400t106 -400h-84z" />
    <glyph glyph-name="parenright" unicode=")" 
d="M186 -50q106 168 106 400t-106 400h84q108 -170 108 -400t-108 -400h-84z" />
    <glyph glyph-name="asterisk" unicode="*" 
d="M229 355l-55 39l80 111l-130 43l21 65l131 -43v138h68v-138l131 43l21 -65l-130 -43l80 -111l-55 -39l-81 111z" />
    <glyph glyph-name="plus" unicode="+" 
d="M273 99v183h-183v74h183v183h74v-183h183v-74h-183v-183h-74z" />
    <glyph glyph-name="comma" unicode="," 
d="M210 -103l58 210h117l-116 -210h-59z" />
    <glyph glyph-name="hyphen" unicode="-" 
d="M136 280v74h349v-74h-349z" />
    <glyph glyph-name="period" unicode="." 
d="M310 -3q-27 0 -44.5 17.5t-17.5 44.5t17.5 44.5t44.5 17.5t44.5 -17.5t17.5 -44.5t-17.5 -44.5t-44.5 -17.5z" />
    <glyph glyph-name="slash" unicode="/" 
d="M62 -50l406 800h86l-406 -800h-86z" />
    <glyph glyph-name="zero" unicode="0" 
d="M310 -8q-121 0 -188.5 96.5t-67.5 261.5t67.5 261.5t188.5 96.5t188.5 -96.5t67.5 -261.5t-67.5 -261.5t-188.5 -96.5zM310 72q80 0 124 74.5t44 203.5q0 121 -42.5 199.5t-125.5 78.5q-80 0 -124 -74.5t-44 -203.5q0 -121 42.5 -199.5t125.5 -78.5z" />
    <glyph glyph-name="one" unicode="1" 
d="M117 0v76h180v498l-175 -104v92l227 138h32v-624h180v-76h-444z" />
    <glyph glyph-name="two" unicode="2" 
d="M94 0v39l276 342q33 41 45 70t12 63q0 53 -29 83.5t-81 30.5q-49 0 -82 -35t-41 -92l-85 16q8 82 68 136.5t140 54.5q91 0 143.5 -51.5t52.5 -142.5q0 -81 -56 -152l-226 -282h295v-80h-432z" />
    <glyph glyph-name="three" unicode="3" 
d="M303 -8q-88 0 -151 55t-72 145l84 11q19 -131 139 -131q63 0 101.5 39t38.5 109q0 71 -38 109.5t-102 38.5q-35 0 -62 -13l-35 47l159 218h-252v80h380v-27l-178 -241q9 3 28 3q81 0 133.5 -59.5t52.5 -155.5q0 -101 -63 -164.5t-163 -63.5z" />
    <glyph glyph-name="four" unicode="4" 
d="M366 0v149h-304v35l296 516h94v-471h106v-80h-106v-149h-86zM176 229h190v339z" />
    <glyph glyph-name="five" unicode="5" 
d="M315 -8q-89 0 -150 49.5t-70 141.5l85 16q9 -62 45 -94.5t90 -32.5q64 0 103 43t39 113q0 71 -35.5 113.5t-98.5 42.5q-47 0 -89 -22t-68 -56l-55 12l40 382h342v-80h-269l-26 -203q21 20 58.5 33.5t72.5 13.5q100 0 157 -63.5t57 -172.5q0 -104 -63.5 -170t-164.5 -66z
" />
    <glyph glyph-name="six" unicode="6" 
d="M325 -8q-96 0 -158.5 65.5t-62.5 162.5q0 70 36 131l207 357h96l-152 -267q15 7 38 7q96 0 156.5 -63.5t60.5 -164.5q0 -97 -62.5 -162.5t-158.5 -65.5zM325 72q58 0 95.5 42t37.5 106q0 67 -37 107.5t-96 40.5t-96 -40.5t-37 -107.5q0 -64 37.5 -106t95.5 -42z" />
    <glyph glyph-name="seven" unicode="7" 
d="M129 0l295 620h-339v80h449v-37l-312 -663h-93z" />
    <glyph glyph-name="eight" unicode="8" 
d="M310 -8q-91 0 -154 56.5t-63 152.5q0 63 28 108.5t76 67.5q-35 19 -57.5 59.5t-22.5 84.5q0 79 54.5 133t138.5 54t138.5 -54t54.5 -133q0 -44 -22.5 -84.5t-57.5 -59.5q48 -22 76 -67.5t28 -108.5q0 -96 -63 -152.5t-154 -56.5zM310 410q49 0 78 31t29 80t-29 80t-78 31
t-78 -31t-29 -80t29 -80t78 -31zM310 72q57 0 93 35t36 94t-36 94t-93 35t-93 -35t-36 -94t36 -94t93 -35z" />
    <glyph glyph-name="nine" unicode="9" 
d="M192 -8l152 267q-15 -7 -38 -7q-96 0 -156.5 63.5t-60.5 164.5q0 97 62.5 162.5t158.5 65.5t158.5 -65.5t62.5 -162.5q0 -70 -36 -131l-207 -357h-96zM310 332q59 0 96 40.5t37 107.5q0 64 -37.5 106t-95.5 42t-95.5 -42t-37.5 -106q0 -67 37 -107.5t96 -40.5z" />
    <glyph glyph-name="colon" unicode=":" 
d="M310 354q-27 0 -44.5 17.5t-17.5 44.5t17.5 44.5t44.5 17.5t44.5 -17.5t17.5 -44.5t-17.5 -44.5t-44.5 -17.5zM310 -3q-27 0 -44.5 17.5t-17.5 44.5t17.5 44.5t44.5 17.5t44.5 -17.5t17.5 -44.5t-17.5 -44.5t-44.5 -17.5z" />
    <glyph glyph-name="semicolon" unicode=";" 
d="M310 354q-27 0 -44.5 17.5t-17.5 44.5t17.5 44.5t44.5 17.5t44.5 -17.5t17.5 -44.5t-17.5 -44.5t-44.5 -17.5zM200 -103l58 210h117l-116 -210h-59z" />
    <glyph glyph-name="less" unicode="&#x3c;" 
d="M507 70l-409 196v88l409 196v-87l-325 -153l325 -153v-87z" />
    <glyph glyph-name="equal" unicode="=" 
d="M111 356v74h399v-74h-399zM111 190v74h399v-74h-399z" />
    <glyph glyph-name="greater" unicode="&#x3e;" 
d="M113 70v87l325 153l-325 153v87l409 -196v-88z" />
    <glyph glyph-name="question" unicode="?" 
d="M314 202q-60 0 -96 33.5t-36 90.5q0 78 85 120l92 47q43 22 43 71q0 36 -23 54.5t-63 18.5q-38 0 -65.5 -25t-39.5 -67l-78 13q12 68 60 109t123 41q76 0 123 -39.5t47 -109.5q0 -81 -77 -119l-101 -49q-49 -24 -49 -69q0 -24 14 -37.5t38 -13.5q47 0 72 59l65 -23
q-36 -105 -134 -105zM314 -3q-28 0 -47 19t-19 47q0 29 19 48.5t47 19.5t48 -19.5t20 -48.5q0 -28 -19.5 -47t-48.5 -19z" />
    <glyph glyph-name="at" unicode="@" 
d="M350 -94q-147 0 -227.5 98t-80.5 278v39q0 192 76.5 294.5t216.5 102.5q113 0 178.5 -58.5t65.5 -168.5v-384h-78l-8 44q-39 -52 -108 -52q-81 0 -130.5 58.5t-49.5 146.5q0 90 49 147t131 57q76 0 117 -44v21q0 75 -45.5 118t-121.5 43q-95 0 -152 -84t-57 -244v-34
q0 -146 57 -226.5t167 -80.5q107 0 179 72l39 -61q-84 -82 -218 -82zM393 173q49 0 77.5 36.5t28.5 94.5q0 59 -28 94.5t-78 35.5t-78 -35.5t-28 -94.5q0 -58 28.5 -94.5t77.5 -36.5z" />
    <glyph glyph-name="A" unicode="A" 
d="M19 0l249 700h84l249 -700h-91l-63 187h-274l-63 -187h-91zM202 271h216l-108 315z" />
    <glyph glyph-name="B" unicode="B" 
d="M96 0v700h246q94 0 146.5 -47t52.5 -133q0 -45 -22.5 -81.5t-57.5 -55.5q52 -21 83.5 -66.5t31.5 -108.5q0 -97 -58 -152.5t-160 -55.5h-262zM184 415h156q51 0 80.5 25.5t29.5 74.5q0 50 -30 75.5t-80 25.5h-156v-201zM184 84h161q140 0 140 124q0 123 -140 123h-161
v-247z" />
    <glyph glyph-name="C" unicode="C" 
d="M338 -8q-126 0 -207.5 92t-81.5 266t81.5 266t207.5 92q98 0 162.5 -58t88.5 -155l-83 -25q-24 78 -63.5 116t-104.5 38q-93 0 -145.5 -67.5t-52.5 -206.5t52.5 -206.5t145.5 -67.5q65 0 104.5 38t63.5 116l83 -25q-24 -97 -88.5 -155t-162.5 -58z" />
    <glyph glyph-name="D" unicode="D" 
d="M78 0v700h177q142 0 226.5 -89t84.5 -261t-84.5 -261t-226.5 -89h-177zM166 84h80q110 0 168 62.5t58 203.5t-58 203.5t-168 62.5h-80v-532z" />
    <glyph glyph-name="E" unicode="E" 
d="M91 0v700h444v-84h-356v-201h306v-84h-306v-247h366v-84h-454z" />
    <glyph glyph-name="F" unicode="F" 
d="M91 0v700h437v-84h-349v-209h300v-84h-300v-323h-88z" />
    <glyph glyph-name="G" unicode="G" 
d="M327 -8q-121 0 -202 92.5t-81 265.5q0 174 81.5 266t207.5 92q99 0 163 -57.5t88 -155.5l-83 -25q-24 78 -63.5 116t-104.5 38q-93 0 -145.5 -67.5t-52.5 -206.5t52.5 -206.5t145.5 -67.5q143 0 157 193h-157v84h248v-353h-73l-5 94q-23 -50 -70.5 -76t-105.5 -26z" />
    <glyph glyph-name="H" unicode="H" 
d="M68 0v700h88v-286h308v286h88v-700h-88v330h-308v-330h-88z" />
    <glyph glyph-name="I" unicode="I" 
d="M97 0v76h169v548h-169v76h426v-76h-169v-548h169v-76h-426z" />
    <glyph glyph-name="J" unicode="J" 
d="M291 -8q-91 0 -148 54t-70 136l89 19q12 -59 45 -92t84 -33q59 0 93 36t34 110v478h88v-476q0 -113 -60 -172.5t-155 -59.5z" />
    <glyph glyph-name="K" unicode="K" 
d="M63 0v700h88v-281l268 281h115l-302 -315l324 -385h-112l-293 351v-351h-88z" />
    <glyph glyph-name="L" unicode="L" 
d="M88 0v700h88v-616h357v-84h-445z" />
    <glyph glyph-name="M" unicode="M" 
d="M67 0v700h94l149 -388l149 388h94v-700h-88v513l-122 -312h-66l-122 312v-513h-88z" />
    <glyph glyph-name="N" unicode="N" 
d="M71 0v700h96l293 -540v540h88v-700h-96l-293 540v-540h-88z" />
    <glyph glyph-name="O" unicode="O" 
d="M310 -8q-120 0 -196 92.5t-76 265.5t76 265.5t196 92.5t196 -92.5t76 -265.5t-76 -265.5t-196 -92.5zM310 76q83 0 132 66.5t49 207.5t-49 207.5t-132 66.5t-132 -66.5t-49 -207.5t49 -207.5t132 -66.5z" />
    <glyph glyph-name="P" unicode="P" 
d="M99 0v700h265q100 0 154 -53.5t54 -146.5t-54 -146.5t-154 -53.5h-177v-300h-88zM187 384h175q119 0 119 116t-119 116h-175v-232z" />
    <glyph glyph-name="Q" unicode="Q" 
d="M595 55l-61 -63l-59 60q-69 -60 -165 -60q-120 0 -196 92.5t-76 265.5t76 265.5t196 92.5t196 -92.5t76 -265.5q0 -139 -52 -229zM310 76q63 0 105 36l-73 74l61 63l62 -63q26 63 26 164q0 141 -49 207.5t-132 66.5t-132 -66.5t-49 -207.5t49 -207.5t132 -66.5z" />
    <glyph glyph-name="R" unicode="R" 
d="M80 0v700h245q96 0 151 -47t55 -138q0 -149 -146 -179l209 -336h-104l-205 330h-117v-330h-88zM168 414h159q113 0 113 101t-113 101h-159v-202z" />
    <glyph glyph-name="S" unicode="S" 
d="M320 -8q-101 0 -171 53.5t-90 154.5l82 32q41 -156 179 -156q56 0 97.5 31t41.5 82q0 53 -35.5 80t-118.5 48q-90 23 -146 69.5t-56 134.5q0 80 57.5 133.5t156.5 53.5q85 0 140 -43t79 -107l-77 -39q-46 105 -142 105q-58 0 -92 -28.5t-34 -79.5t38.5 -74t123.5 -45
q45 -12 76 -25t60 -35t43.5 -56t14.5 -80q0 -99 -66 -154t-161 -55z" />
    <glyph glyph-name="T" unicode="T" 
d="M266 0v616h-218v84h524v-84h-218v-616h-88z" />
    <glyph glyph-name="U" unicode="U" 
d="M310 -8q-108 0 -178 67t-70 184v457h88v-463q0 -72 42 -116.5t118 -44.5t118 44.5t42 116.5v463h88v-457q0 -117 -70 -184t-178 -67z" />
    <glyph glyph-name="V" unicode="V" 
d="M268 0l-245 700h91l196 -575l196 575h91l-245 -700h-84z" />
    <glyph glyph-name="W" unicode="W" 
d="M98 0l-67 700h91l42 -570l106 427h80l106 -427l42 570h91l-67 -700h-109l-103 411l-103 -411h-109z" />
    <glyph glyph-name="X" unicode="X" 
d="M39 0l221 376l-190 324h101l139 -238l139 238h101l-190 -324l221 -376h-101l-170 290l-170 -290h-101z" />
    <glyph glyph-name="Y" unicode="Y" 
d="M266 0v276l-225 424h97l172 -336l172 336h97l-225 -424v-276h-88z" />
    <glyph glyph-name="Z" unicode="Z" 
d="M73 0v42l343 574h-329v84h456v-42l-343 -574h354v-84h-481z" />
    <glyph glyph-name="bracketleft" unicode="[" 
d="M202 -50v800h268v-76h-188v-648h188v-76h-268z" />
    <glyph glyph-name="backslash" unicode="\" 
d="M470 -50l-406 800h86l406 -800h-86z" />
    <glyph glyph-name="bracketright" unicode="]" 
d="M150 -50v76h188v648h-188v76h268v-800h-268z" />
    <glyph glyph-name="asciicircum" unicode="^" 
d="M90 421l187 279h66l187 -279h-86l-134 203l-134 -203h-86z" />
    <glyph glyph-name="underscore" unicode="_" 
d="M70 -80v80h480v-80h-480z" />
    <glyph glyph-name="grave" unicode="`" 
d="M337 560l-122 144h121l67 -144h-66z" />
    <glyph glyph-name="a" unicode="a" 
d="M259 -8q-67 0 -111.5 39.5t-44.5 113.5q0 82 60.5 123.5t167.5 41.5h102v22q0 55 -32.5 79.5t-83.5 24.5q-43 0 -75 -24t-44 -62l-74 20q17 65 70 103.5t123 38.5q93 0 146.5 -47t53.5 -147v-318h-68l-12 71q-24 -35 -73 -57t-105 -22zM272 68q60 0 110.5 38.5
t50.5 115.5v16h-110q-64 0 -99 -25t-35 -68q0 -36 22.5 -56.5t60.5 -20.5z" />
    <glyph glyph-name="b" unicode="b" 
d="M338 -8q-49 0 -90 21.5t-64 53.5v-67h-84v708h84v-268q23 31 63.5 51.5t90.5 20.5q109 0 170 -71t61 -189t-61 -189t-170 -71zM330 68q71 0 112 51t41 133t-41 133t-112 51t-112 -51t-41 -133t41 -133t112 -51z" />
    <glyph glyph-name="c" unicode="c" 
d="M328 -8q-111 0 -176 76t-65 184t65 184t176 76q152 0 213 -139l-73 -30q-40 93 -140 93q-73 0 -114 -51.5t-41 -132.5t41 -132.5t114 -51.5q100 0 140 93l73 -30q-61 -139 -213 -139z" />
    <glyph glyph-name="d" unicode="d" 
d="M306 -8q-109 0 -170 71t-61 189t61 189t170 71q50 0 90.5 -20.5t63.5 -51.5v268h84v-708h-84v67q-23 -32 -64 -53.5t-90 -21.5zM314 68q71 0 112 51t41 133t-41 133t-112 51t-112 -51t-41 -133t41 -133t112 -51z" />
    <glyph glyph-name="e" unicode="e" 
d="M311 -8q-108 0 -174.5 74t-66.5 186q0 110 65.5 185t175.5 75q113 0 176 -69.5t63 -173.5v-35h-394q4 -75 46 -120.5t109 -45.5q108 0 162 100l67 -35q-73 -141 -229 -141zM162 310h299q-11 60 -50 93t-100 33q-59 0 -97.5 -33.5t-51.5 -92.5z" />
    <glyph glyph-name="f" unicode="f" 
d="M241 0v428h-142v76h142v31q0 173 155 173q57 0 105 -29l-21 -74q-42 27 -81 27q-74 0 -74 -95v-33h196v-76h-196v-428h-84z" />
    <glyph glyph-name="g" unicode="g" 
d="M316 -212q-110 0 -171.5 42.5t-61.5 123.5q0 68 52 108q-36 28 -36 77q0 34 19.5 61t54.5 40q-31 42 -31 103q0 77 50.5 123t127.5 46q54 0 99 -26l105 54l38 -69l-85 -44q21 -36 21 -84q0 -77 -50 -123t-128 -46q-52 0 -93 21q-46 -18 -46 -52q0 -42 71 -42h131
q81 0 125 -35.5t44 -103.5q0 -88 -69 -131t-167 -43zM320 246q41 0 68.5 25.5t27.5 71.5t-27.5 71.5t-68.5 25.5t-68.5 -26t-27.5 -71t27.5 -71t68.5 -26zM316 -138q71 0 110.5 24.5t39.5 67.5q0 75 -85 75h-119q-31 0 -52 4q-43 -22 -43 -76q0 -44 40.5 -69.5t108.5 -25.5z
" />
    <glyph glyph-name="h" unicode="h" 
d="M108 0v708h84v-297q30 44 78.5 72.5t104.5 28.5q154 0 154 -164v-348h-84v330q0 106 -93 106q-64 0 -112 -61t-48 -164v-211h-84z" />
    <glyph glyph-name="i" unicode="i" 
d="M298 570q-29 0 -49 20t-20 48q0 29 20 49.5t49 20.5t49 -20.5t20 -49.5t-20 -48.5t-49 -19.5zM88 0v74h174v356h-154v74h238v-430h186v-74h-444z" />
    <glyph glyph-name="j" unicode="j" 
d="M344 570q-29 0 -49 20t-20 48q0 29 20 49.5t49 20.5t49 -20.5t20 -49.5t-20 -48.5t-49 -19.5zM201 -212l-28 80q72 24 103.5 66t31.5 116v380h-198v74h282v-476q0 -101 -55.5 -160.5t-135.5 -79.5z" />
    <glyph glyph-name="k" unicode="k" 
d="M94 0v708h84v-415l215 211h110l-235 -231l258 -273h-110l-238 253v-253h-84z" />
    <glyph glyph-name="l" unicode="l" 
d="M378 -8q-88 0 -139 52t-51 146v434h-139v76h223v-510q0 -122 106 -122q98 0 117 122l76 -15q-13 -90 -63.5 -136.5t-129.5 -46.5z" />
    <glyph glyph-name="m" unicode="m" 
d="M48 0v504h84v-64q45 72 118 72q81 0 104 -82q20 37 52.5 59.5t71.5 22.5q50 0 80 -33.5t30 -102.5v-376h-84v358q0 41 -13 59t-42 18q-39 0 -64 -49t-25 -149v-237h-84v358q0 41 -13 59t-42 18q-39 0 -64 -49t-25 -149v-237h-84z" />
    <glyph glyph-name="n" unicode="n" 
d="M106 0v504h84v-93q28 45 73.5 73t97.5 28q77 0 115.5 -43t38.5 -118v-351h-84v333q0 103 -93 103q-62 0 -105 -63.5t-43 -169.5v-203h-84z" />
    <glyph glyph-name="o" unicode="o" 
d="M310 -8q-112 0 -180 76t-68 184t68 184t180 76t180 -76t68 -184t-68 -184t-180 -76zM310 68q74 0 118 54t44 130t-44 130t-118 54t-118 -54t-44 -130t44 -130t118 -54z" />
    <glyph glyph-name="p" unicode="p" 
d="M106 -204v708h84v-67q23 32 64 53.5t90 21.5q109 0 170 -71t61 -189t-61 -189t-170 -71q-50 0 -90.5 20.5t-63.5 51.5v-268h-84zM336 68q71 0 112 51t41 133t-41 133t-112 51t-112 -51t-41 -133t41 -133t112 -51z" />
    <glyph glyph-name="q" unicode="q" 
d="M460 -204v268q-23 -31 -63.5 -51.5t-90.5 -20.5q-109 0 -170 71t-61 189t61 189t170 71q49 0 90 -21.5t64 -53.5v67h84v-708h-84zM314 68q71 0 112 51t41 133t-41 133t-112 51t-112 -51t-41 -133t41 -133t112 -51z" />
    <glyph glyph-name="r" unicode="r" 
d="M92 0v504h84v-93q65 101 186 101q75 0 118.5 -43.5t47.5 -124.5h-84q-11 92 -97 92q-71 0 -121 -66.5t-50 -187.5v-182h-84z" />
    <glyph glyph-name="s" unicode="s" 
d="M322 -8q-78 0 -137 38t-82 108l80 30q13 -48 50 -74t89 -26q48 0 77.5 18.5t29.5 53.5q0 34 -28 50t-102 30q-35 7 -61.5 16t-51 25.5t-37.5 42.5t-13 62q0 66 50 106t122 40q129 0 187 -112l-69 -44q-44 80 -121 80q-36 0 -61.5 -16.5t-25.5 -50.5q0 -31 28.5 -48.5
t88.5 -29.5q41 -8 69 -17t56 -25t42 -41.5t14 -60.5q0 -70 -56.5 -112.5t-137.5 -42.5z" />
    <glyph glyph-name="t" unicode="t" 
d="M371 -8q-83 0 -127 44t-44 131v261h-134v76h134v151l84 53v-204h176v-76h-176v-258q0 -102 87 -102q67 0 124 60l31 -71q-65 -65 -155 -65z" />
    <glyph glyph-name="u" unicode="u" 
d="M259 -8q-77 0 -115.5 43t-38.5 118v351h84v-333q0 -103 93 -103q62 0 105 63.5t43 169.5v203h84v-504h-84v93q-28 -45 -73.5 -73t-97.5 -28z" />
    <glyph glyph-name="v" unicode="v" 
d="M268 0l-211 504h91l162 -404l162 404h91l-211 -504h-84z" />
    <glyph glyph-name="w" unicode="w" 
d="M137 0l-110 504h86l69 -373l86 323h84l86 -323l69 373h86l-110 -504h-76l-97 354l-97 -354h-76z" />
    <glyph glyph-name="x" unicode="x" 
d="M81 0l183 267l-164 237h99l111 -167l111 167h99l-164 -237l183 -267h-95l-134 198l-134 -198h-95z" />
    <glyph glyph-name="y" unicode="y" 
d="M178 -204l98 238l-218 470h94l169 -369l149 369h91l-299 -708h-84z" />
    <glyph glyph-name="z" unicode="z" 
d="M109 0v36l264 392h-251v76h378v-36l-267 -392h279v-76h-403z" />
    <glyph glyph-name="braceleft" unicode="{" 
d="M350 -50q-45 0 -72.5 27.5t-27.5 72.5v172q0 50 -25.5 70t-74.5 20v76q49 0 74.5 20t25.5 70v172q0 45 27.5 72.5t72.5 27.5h138v-76h-113q-24 0 -34.5 -10.5t-10.5 -34.5v-181q0 -47 -18 -68t-52 -30q34 -9 52 -30t18 -68v-181q0 -24 10.5 -34.5t34.5 -10.5h113v-76
h-138z" />
    <glyph glyph-name="bar" unicode="|" 
d="M270 -50v800h80v-800h-80z" />
    <glyph glyph-name="braceright" unicode="}" 
d="M132 -50v76h113q24 0 34.5 10.5t10.5 34.5v181q0 47 18 68t52 30q-34 9 -52 30t-18 68v181q0 24 -10.5 34.5t-34.5 10.5h-113v76h138q45 0 72.5 -27.5t27.5 -72.5v-172q0 -50 25.5 -70t74.5 -20v-76q-49 0 -74.5 -20t-25.5 -70v-172q0 -45 -27.5 -72.5t-72.5 -27.5h-138z
" />
    <glyph glyph-name="asciitilde" unicode="~" 
d="M412 263q-44 0 -102 25t-92 25q-56 0 -93 -45l-49 51q22 41 56.5 64.5t75.5 23.5q44 0 102 -25t92 -25q56 0 93 45l49 -51q-22 -41 -56.5 -64.5t-75.5 -23.5z" />
    <glyph glyph-name="uni00A0" unicode="&#xa0;" 
 />
    <glyph glyph-name="exclamdown" unicode="&#xa1;" 
d="M310 499q30 0 50 -19.5t20 -48.5q0 -30 -20 -50.5t-50 -20.5t-50 20.5t-20 50.5q0 29 20 48.5t50 19.5zM277 296h66l24 -500h-114z" />
    <glyph glyph-name="cent" unicode="&#xa2;" 
d="M284 -50v143q-94 14 -147.5 86.5t-53.5 170.5q0 97 53.5 169.5t147.5 87.5v143h80v-143q119 -15 173 -136l-73 -30q-40 93 -140 93q-73 0 -114 -51.5t-41 -132.5t41 -132.5t114 -51.5q100 0 140 93l73 -30q-53 -121 -173 -137v-142h-80z" />
    <glyph glyph-name="sterling" unicode="&#xa3;" 
d="M149 -8l-57 62q59 56 85 101.5t26 95.5q0 31 -11 73h-80v80h53q-22 60 -22 103q0 92 56 146.5t141 54.5q72 0 122 -36t74 -102l-75 -35q-22 50 -50.5 71.5t-70.5 21.5q-48 0 -80.5 -31t-32.5 -91q0 -48 20 -102h164v-80h-138q7 -32 7 -63q0 -100 -79 -177q45 27 87 27
q30 0 67 -19.5t56 -19.5q27 0 47 14.5t43 53.5l66 -36q-60 -112 -151 -112q-42 0 -86.5 20t-67.5 20q-59 0 -113 -40z" />
    <glyph glyph-name="currency" unicode="&#xa4;" 
d="M128 56l-69 69l88 67q-35 51 -35 115t35 115l-88 67l69 69l67 -87q51 38 115 38t115 -38l67 87l69 -69l-88 -67q35 -51 35 -115t-35 -115l88 -67l-69 -69l-67 87q-51 -38 -115 -38t-115 38zM310 181q53 0 85 35t32 91t-32 91t-85 35t-85 -35t-32 -91t32 -91t85 -35z" />
    <glyph glyph-name="yen" unicode="&#xa5;" 
d="M266 0v116h-156v72h156v88h-156v72h118l-183 352h97l168 -336l168 336h97l-183 -352h118v-72h-156v-88h156v-72h-156v-116h-88z" />
    <glyph glyph-name="brokenbar" unicode="&#xa6;" 
d="M270 401v349h80v-349h-80zM270 -50v349h80v-349h-80z" />
    <glyph glyph-name="section" unicode="&#xa7;" 
d="M310 -212q-81 0 -133.5 42t-70.5 116l77 25q37 -103 127 -103q48 0 76.5 27t28.5 75q0 26 -10.5 46t-33 35.5t-44 25.5t-59.5 26.5t-62 28.5q-60 31 -86 62.5t-26 79.5q0 84 70 136q-43 46 -43 112q0 86 53 136t136 50q81 0 133.5 -42t70.5 -116l-77 -25
q-37 103 -127 103q-48 0 -76.5 -27t-28.5 -75q0 -26 10.5 -46t33 -35.5t44 -25.5t59.5 -26.5t62 -28.5q60 -31 86 -62.5t26 -79.5q0 -84 -70 -136q43 -46 43 -112q0 -86 -53 -136t-136 -50zM392 131q55 34 55 82q0 28 -23 51t-52 36t-74 32t-70 33q-55 -34 -55 -82
q0 -28 23 -51t52 -36t74 -32t70 -33z" />
    <glyph glyph-name="dieresis" unicode="&#xa8;" 
d="M218 586q-24 0 -40.5 16.5t-16.5 40.5t16.5 40.5t40.5 16.5t40.5 -16.5t16.5 -40.5t-16.5 -40.5t-40.5 -16.5zM402 586q-24 0 -40.5 16.5t-16.5 40.5t16.5 40.5t40.5 16.5t40.5 -16.5t16.5 -40.5t-16.5 -40.5t-40.5 -16.5z" />
    <glyph glyph-name="copyright" unicode="&#xa9;" 
d="M310 72q-117 0 -194 79.5t-77 198.5t77 198.5t194 79.5t194 -79.5t77 -198.5t-77 -198.5t-194 -79.5zM310 133q92 0 149.5 62t57.5 155t-57.5 155t-149.5 62t-149.5 -62t-57.5 -155t57.5 -155t149.5 -62zM310 198q-56 0 -98.5 39t-42.5 113t42.5 113t98.5 39
q47 0 80.5 -24.5t41.5 -67.5l-51 -12q-20 51 -71 51q-37 0 -59.5 -24.5t-22.5 -74.5t22.5 -74.5t59.5 -24.5q51 0 71 51l51 -12q-8 -43 -41.5 -67.5t-80.5 -24.5z" />
    <glyph glyph-name="ordfeminine" unicode="&#xaa;" 
d="M269 296q-53 0 -87.5 30t-34.5 89q0 63 48 96.5t131 33.5h80v17q0 43 -27 62.5t-68 19.5q-32 0 -56 -18.5t-34 -48.5l-57 15q13 51 53 81.5t94 30.5q74 0 117.5 -37.5t43.5 -115.5v-251h-54l-9 58q-19 -28 -57.5 -45t-82.5 -17zM280 356q47 0 86.5 30t39.5 90v13h-87
q-50 0 -77 -20t-27 -54q0 -28 17 -43.5t48 -15.5z" />
    <glyph glyph-name="guillemotleft" unicode="&#xab;" 
d="M337 80l-294 199v62l294 199v-90l-209 -140l209 -140v-90zM577 80l-294 199v62l294 199v-90l-209 -140l209 -140v-90z" />
    <glyph glyph-name="logicalnot" unicode="&#xac;" 
d="M459 142v171h-366v76h450v-247h-84z" />
    <glyph glyph-name="uni00AD" unicode="&#xad;" 
d="M136 280v74h349v-74h-349z" />
    <glyph glyph-name="registered" unicode="&#xae;" 
d="M310 72q-117 0 -194 79.5t-77 198.5t77 198.5t194 79.5t194 -79.5t77 -198.5t-77 -198.5t-194 -79.5zM310 133q92 0 149.5 62t57.5 155t-57.5 155t-149.5 62t-149.5 -62t-57.5 -155t57.5 -155t149.5 -62zM213 202v296h106q45 0 69.5 -23.5t24.5 -61.5q0 -32 -18.5 -54
t-47.5 -28l89 -129h-59l-88 126h-24v-126h-52zM265 377h51q43 0 43 36t-43 36h-51v-72z" />
    <glyph glyph-name="macron" unicode="&#xaf;" 
d="M183 600v74h254v-74h-254z" />
    <glyph glyph-name="degree" unicode="&#xb0;" 
d="M310 400q-68 0 -111 43.5t-43 109.5t43 109.5t111 43.5t111 -43.5t43 -109.5t-43 -109.5t-111 -43.5zM310 466q39 0 62 24t23 63t-23 63t-62 24t-62 -24t-23 -63t23 -63t62 -24z" />
    <glyph glyph-name="plusminus" unicode="&#xb1;" 
d="M273 179v183h-183v74h183v183h74v-183h183v-74h-183v-183h-74zM90 0v74h440v-74h-440z" />
    <glyph glyph-name="uni00B2" unicode="&#xb2;" 
d="M181 300v25l147 180q35 43 35 86q0 23 -14 37t-40 14q-24 0 -40 -18t-20 -50l-62 17q5 50 38 81.5t84 31.5q57 0 89 -30.5t32 -81.5q0 -59 -38 -105l-103 -127h149v-60h-257z" />
    <glyph glyph-name="uni00B3" unicode="&#xb3;" 
d="M313 296q-57 0 -92.5 31.5t-40.5 88.5l63 9q4 -33 23.5 -51t46.5 -18q29 0 46.5 19t17.5 53q0 36 -17 55.5t-48 19.5q-19 0 -35 -10l-31 40l81 109h-127v58h221v-22l-95 -129q50 7 83.5 -25.5t33.5 -95.5q0 -58 -33.5 -95t-96.5 -37z" />
    <glyph glyph-name="acute" unicode="&#xb4;" 
d="M216 560l67 144h121l-122 -144h-66z" />
    <glyph glyph-name="uni00B5" unicode="&#xb5;" 
d="M106 -204v708h84v-333q0 -103 93 -103q62 0 105 63.5t43 169.5v203h84v-504h-84v93q-28 -45 -73.5 -73t-97.5 -28q-42 0 -70 12v-208h-84z" />
    <glyph glyph-name="paragraph" unicode="&#xb6;" 
d="M250 -204v518q-80 0 -136.5 56.5t-56.5 136.5t56.5 136.5t136.5 56.5h312v-76h-62v-828h-84v828h-82v-828h-84z" />
    <glyph glyph-name="periodcentered" unicode="&#xb7;" 
d="M310 289q-27 0 -44.5 17.5t-17.5 44.5t17.5 44.5t44.5 17.5t44.5 -17.5t17.5 -44.5t-17.5 -44.5t-44.5 -17.5z" />
    <glyph glyph-name="cedilla" unicode="&#xb8;" 
d="M316 -235l-95 45l108 130h70z" />
    <glyph glyph-name="uni00B9" unicode="&#xb9;" 
d="M200 300v56h83v255l-75 -34v71l113 52h24v-344h83v-56h-228z" />
    <glyph glyph-name="ordmasculine" unicode="&#xba;" 
d="M309 296q-88 0 -141 59.5t-53 144.5t53 144.5t141 59.5t141.5 -59.5t53.5 -144.5t-53.5 -144.5t-141.5 -59.5zM309 355q58 0 92.5 42.5t34.5 102.5t-34.5 102t-92.5 42t-92.5 -42t-34.5 -102t34.5 -102.5t92.5 -42.5z" />
    <glyph glyph-name="guillemotright" unicode="&#xbb;" 
d="M43 80v90l209 140l-209 140v90l294 -199v-62zM283 80v90l209 140l-209 140v90l294 -199v-62z" />
    <glyph glyph-name="onequarter" unicode="&#xbc;" 
d="M31 366v54h76v199l-69 -32v63l105 50h24v-280h76v-54h-212zM144 102l-41 41l440 439l41 -42zM468 0v67h-153v27l142 240h71v-213h43v-54h-43v-67h-60zM396 121h72v125z" />
    <glyph glyph-name="onehalf" unicode="&#xbd;" 
d="M31 366v54h76v199l-69 -32v63l105 50h24v-280h76v-54h-212zM122 102l-41 41l440 439l41 -42zM358 0v25l127 151q25 30 25 61q0 20 -12 32.5t-31 12.5q-43 0 -52 -53l-54 15q7 42 34.5 68t71.5 26q51 0 78 -26.5t27 -70.5q0 -52 -37 -96l-73 -89h113v-56h-217z" />
    <glyph glyph-name="threequarters" unicode="&#xbe;" 
d="M162 362q-49 0 -80.5 28t-35.5 74l58 12q9 -60 58 -60q24 0 37.5 16t13.5 46q0 27 -13.5 41t-34.5 14q-23 0 -35 -9l-27 36l67 86h-105v54h191v-23l-78 -99q44 0 70.5 -28.5t26.5 -71.5q0 -53 -30.5 -84.5t-82.5 -31.5zM144 102l-41 41l440 439l41 -42zM468 0v67h-153v27
l142 240h71v-213h43v-54h-43v-67h-60zM396 121h72v125z" />
    <glyph glyph-name="questiondown" unicode="&#xbf;" 
d="M306 499q28 0 47 -19t19 -47q0 -29 -19 -48.5t-47 -19.5t-48 19.5t-20 48.5q0 28 19.5 47t48.5 19zM306 294q60 0 96 -33.5t36 -90.5q0 -78 -85 -120l-92 -47q-43 -22 -43 -71q0 -36 23 -54.5t63 -18.5q38 0 65.5 25t39.5 67l78 -13q-12 -68 -60 -109t-123 -41
q-76 0 -123 39.5t-47 109.5q0 81 77 119l101 49q49 24 49 69q0 24 -14 37.5t-38 13.5q-47 0 -72 -59l-65 23q36 105 134 105z" />
    <glyph glyph-name="Agrave" unicode="&#xc0;" 
d="M277 756l-122 144h121l67 -144h-66zM19 0l249 700h84l249 -700h-91l-63 187h-274l-63 -187h-91zM202 271h216l-108 315z" />
    <glyph glyph-name="Aacute" unicode="&#xc1;" 
d="M277 756l67 144h121l-122 -144h-66zM19 0l249 700h84l249 -700h-91l-63 187h-274l-63 -187h-91zM202 271h216l-108 315z" />
    <glyph glyph-name="Acircumflex" unicode="&#xc2;" 
d="M143 756l154 152h26l154 -152h-91l-76 75l-76 -75h-91zM19 0l249 700h84l249 -700h-91l-63 187h-274l-63 -187h-91zM202 271h216l-108 315z" />
    <glyph glyph-name="Atilde" unicode="&#xc3;" 
d="M379 774q-36 0 -72 20t-59 20q-37 0 -66 -36l-49 38q18 34 46.5 55t60.5 21q36 0 72 -20t59 -20q37 0 66 36l49 -39q-18 -33 -46.5 -54t-60.5 -21zM19 0l249 700h84l249 -700h-91l-63 187h-274l-63 -187h-91zM202 271h216l-108 315z" />
    <glyph glyph-name="Adieresis" unicode="&#xc4;" 
d="M218 782q-24 0 -40.5 16.5t-16.5 40.5t16.5 40.5t40.5 16.5t40.5 -16.5t16.5 -40.5t-16.5 -40.5t-40.5 -16.5zM402 782q-24 0 -40.5 16.5t-16.5 40.5t16.5 40.5t40.5 16.5t40.5 -16.5t16.5 -40.5t-16.5 -40.5t-40.5 -16.5zM19 0l249 700h84l249 -700h-91l-63 187h-274
l-63 -187h-91zM202 271h216l-108 315z" />
    <glyph glyph-name="Aring" unicode="&#xc5;" 
d="M310 753q-42 0 -70.5 27.5t-28.5 68.5q0 42 28.5 71t70.5 29q43 0 71 -29t28 -71q0 -41 -28 -68.5t-71 -27.5zM310 806q19 0 31 12.5t12 31.5q0 20 -12 33t-31 13t-31 -13t-12 -33q0 -19 12 -31.5t31 -12.5zM19 0l249 700h84l249 -700h-91l-63 187h-274l-63 -187h-91z
M202 271h216l-108 315z" />
    <glyph glyph-name="AE" unicode="&#xc6;" 
d="M-11 0l194 700h392v-84h-206v-201h166v-84h-166v-247h216v-84h-304v187h-152l-52 -187h-88zM149 271h132v345h-39z" />
    <glyph glyph-name="Ccedilla" unicode="&#xc7;" 
d="M338 -8q-126 0 -207.5 92t-81.5 266t81.5 266t207.5 92q98 0 162.5 -58t88.5 -155l-83 -25q-24 78 -63.5 116t-104.5 38q-93 0 -145.5 -67.5t-52.5 -206.5t52.5 -206.5t145.5 -67.5q65 0 104.5 38t63.5 116l83 -25q-24 -97 -88.5 -155t-162.5 -58zM290 -235l-95 45
l108 130h70z" />
    <glyph glyph-name="Egrave" unicode="&#xc8;" 
d="M287 756l-122 144h121l67 -144h-66zM91 0v700h444v-84h-356v-201h306v-84h-306v-247h366v-84h-454z" />
    <glyph glyph-name="Eacute" unicode="&#xc9;" 
d="M287 756l67 144h121l-122 -144h-66zM91 0v700h444v-84h-356v-201h306v-84h-306v-247h366v-84h-454z" />
    <glyph glyph-name="Ecircumflex" unicode="&#xca;" 
d="M153 756l154 152h26l154 -152h-91l-76 75l-76 -75h-91zM91 0v700h444v-84h-356v-201h306v-84h-306v-247h366v-84h-454z" />
    <glyph glyph-name="Edieresis" unicode="&#xcb;" 
d="M228 782q-24 0 -40.5 16.5t-16.5 40.5t16.5 40.5t40.5 16.5t40.5 -16.5t16.5 -40.5t-16.5 -40.5t-40.5 -16.5zM412 782q-24 0 -40.5 16.5t-16.5 40.5t16.5 40.5t40.5 16.5t40.5 -16.5t16.5 -40.5t-16.5 -40.5t-40.5 -16.5zM91 0v700h444v-84h-356v-201h306v-84h-306v-247
h366v-84h-454z" />
    <glyph glyph-name="Igrave" unicode="&#xcc;" 
d="M277 756l-122 144h121l67 -144h-66zM97 0v76h169v548h-169v76h426v-76h-169v-548h169v-76h-426z" />
    <glyph glyph-name="Iacute" unicode="&#xcd;" 
d="M277 756l67 144h121l-122 -144h-66zM97 0v76h169v548h-169v76h426v-76h-169v-548h169v-76h-426z" />
    <glyph glyph-name="Icircumflex" unicode="&#xce;" 
d="M143 756l154 152h26l154 -152h-91l-76 75l-76 -75h-91zM97 0v76h169v548h-169v76h426v-76h-169v-548h169v-76h-426z" />
    <glyph glyph-name="Idieresis" unicode="&#xcf;" 
d="M218 782q-24 0 -40.5 16.5t-16.5 40.5t16.5 40.5t40.5 16.5t40.5 -16.5t16.5 -40.5t-16.5 -40.5t-40.5 -16.5zM402 782q-24 0 -40.5 16.5t-16.5 40.5t16.5 40.5t40.5 16.5t40.5 -16.5t16.5 -40.5t-16.5 -40.5t-40.5 -16.5zM97 0v76h169v548h-169v76h426v-76h-169v-548
h169v-76h-426z" />
    <glyph glyph-name="Eth" unicode="&#xd0;" 
d="M78 0v308h-49v84h49v308h177q142 0 226.5 -89t84.5 -261t-84.5 -261t-226.5 -89h-177zM166 84h80q110 0 168 62.5t58 203.5t-58 203.5t-168 62.5h-80v-224h109v-84h-109v-224z" />
    <glyph glyph-name="Ntilde" unicode="&#xd1;" 
d="M379 774q-36 0 -72 20t-59 20q-37 0 -66 -36l-49 38q18 34 46.5 55t60.5 21q36 0 72 -20t59 -20q37 0 66 36l49 -39q-18 -33 -46.5 -54t-60.5 -21zM71 0v700h96l293 -540v540h88v-700h-96l-293 540v-540h-88z" />
    <glyph glyph-name="Ograve" unicode="&#xd2;" 
d="M277 756l-122 144h121l67 -144h-66zM310 -8q-120 0 -196 92.5t-76 265.5t76 265.5t196 92.5t196 -92.5t76 -265.5t-76 -265.5t-196 -92.5zM310 76q83 0 132 66.5t49 207.5t-49 207.5t-132 66.5t-132 -66.5t-49 -207.5t49 -207.5t132 -66.5z" />
    <glyph glyph-name="Oacute" unicode="&#xd3;" 
d="M277 756l67 144h121l-122 -144h-66zM310 -8q-120 0 -196 92.5t-76 265.5t76 265.5t196 92.5t196 -92.5t76 -265.5t-76 -265.5t-196 -92.5zM310 76q83 0 132 66.5t49 207.5t-49 207.5t-132 66.5t-132 -66.5t-49 -207.5t49 -207.5t132 -66.5z" />
    <glyph glyph-name="Ocircumflex" unicode="&#xd4;" 
d="M143 756l154 152h26l154 -152h-91l-76 75l-76 -75h-91zM310 -8q-120 0 -196 92.5t-76 265.5t76 265.5t196 92.5t196 -92.5t76 -265.5t-76 -265.5t-196 -92.5zM310 76q83 0 132 66.5t49 207.5t-49 207.5t-132 66.5t-132 -66.5t-49 -207.5t49 -207.5t132 -66.5z" />
    <glyph glyph-name="Otilde" unicode="&#xd5;" 
d="M379 774q-36 0 -72 20t-59 20q-37 0 -66 -36l-49 38q18 34 46.5 55t60.5 21q36 0 72 -20t59 -20q37 0 66 36l49 -39q-18 -33 -46.5 -54t-60.5 -21zM310 -8q-120 0 -196 92.5t-76 265.5t76 265.5t196 92.5t196 -92.5t76 -265.5t-76 -265.5t-196 -92.5zM310 76
q83 0 132 66.5t49 207.5t-49 207.5t-132 66.5t-132 -66.5t-49 -207.5t49 -207.5t132 -66.5z" />
    <glyph glyph-name="Odieresis" unicode="&#xd6;" 
d="M218 782q-24 0 -40.5 16.5t-16.5 40.5t16.5 40.5t40.5 16.5t40.5 -16.5t16.5 -40.5t-16.5 -40.5t-40.5 -16.5zM402 782q-24 0 -40.5 16.5t-16.5 40.5t16.5 40.5t40.5 16.5t40.5 -16.5t16.5 -40.5t-16.5 -40.5t-40.5 -16.5zM310 -8q-120 0 -196 92.5t-76 265.5t76 265.5
t196 92.5t196 -92.5t76 -265.5t-76 -265.5t-196 -92.5zM310 76q83 0 132 66.5t49 207.5t-49 207.5t-132 66.5t-132 -66.5t-49 -207.5t49 -207.5t132 -66.5z" />
    <glyph glyph-name="multiply" unicode="&#xd7;" 
d="M152 109l-52 52l158 158l-158 158l52 52l158 -158l158 158l52 -52l-158 -158l158 -158l-52 -52l-158 158z" />
    <glyph glyph-name="Oslash" unicode="&#xd8;" 
d="M612 680l-80 -104q50 -88 50 -226q0 -173 -76 -265.5t-196 -92.5q-106 0 -176 70l-67 -86l-59 44l80 104q-50 87 -50 226q0 173 76 265.5t196 92.5q106 0 176 -70l67 86zM129 350q0 -88 20 -148l284 367q-46 55 -123 55q-83 0 -132 -66.5t-49 -207.5zM491 350
q0 88 -20 148l-284 -367q46 -55 123 -55q83 0 132 66.5t49 207.5z" />
    <glyph glyph-name="Ugrave" unicode="&#xd9;" 
d="M277 756l-122 144h121l67 -144h-66zM310 -8q-108 0 -178 67t-70 184v457h88v-463q0 -72 42 -116.5t118 -44.5t118 44.5t42 116.5v463h88v-457q0 -117 -70 -184t-178 -67z" />
    <glyph glyph-name="Uacute" unicode="&#xda;" 
d="M277 756l67 144h121l-122 -144h-66zM310 -8q-108 0 -178 67t-70 184v457h88v-463q0 -72 42 -116.5t118 -44.5t118 44.5t42 116.5v463h88v-457q0 -117 -70 -184t-178 -67z" />
    <glyph glyph-name="Ucircumflex" unicode="&#xdb;" 
d="M143 756l154 152h26l154 -152h-91l-76 75l-76 -75h-91zM310 -8q-108 0 -178 67t-70 184v457h88v-463q0 -72 42 -116.5t118 -44.5t118 44.5t42 116.5v463h88v-457q0 -117 -70 -184t-178 -67z" />
    <glyph glyph-name="Udieresis" unicode="&#xdc;" 
d="M218 782q-24 0 -40.5 16.5t-16.5 40.5t16.5 40.5t40.5 16.5t40.5 -16.5t16.5 -40.5t-16.5 -40.5t-40.5 -16.5zM402 782q-24 0 -40.5 16.5t-16.5 40.5t16.5 40.5t40.5 16.5t40.5 -16.5t16.5 -40.5t-16.5 -40.5t-40.5 -16.5zM310 -8q-108 0 -178 67t-70 184v457h88v-463
q0 -72 42 -116.5t118 -44.5t118 44.5t42 116.5v463h88v-457q0 -117 -70 -184t-178 -67z" />
    <glyph glyph-name="Yacute" unicode="&#xdd;" 
d="M277 756l67 144h121l-122 -144h-66zM266 0v276l-225 424h97l172 -336l172 336h97l-225 -424v-276h-88z" />
    <glyph glyph-name="Thorn" unicode="&#xde;" 
d="M105 0v700h88v-150h159q100 0 154 -53.5t54 -146.5t-54 -146.5t-154 -53.5h-159v-150h-88zM193 234h157q119 0 119 116t-119 116h-157v-232z" />
    <glyph glyph-name="germandbls" unicode="&#xdf;" 
d="M326 -8q-41 0 -71 7v76q35 -7 65 -7q66 0 101.5 35t35.5 103t-37 103t-104 35h-35v76h35q98 0 98 106q0 51 -29 78.5t-77 27.5q-49 0 -77 -34t-28 -96v-502h-84v344h-50v76h50v85q0 97 54 150t135 53q91 0 138.5 -50.5t47.5 -128.5q0 -55 -25 -91t-65 -48
q59 -11 98 -56.5t39 -121.5q0 -109 -57.5 -164.5t-157.5 -55.5z" />
    <glyph glyph-name="agrave" unicode="&#xe0;" 
d="M300 560l-122 144h121l67 -144h-66zM259 -8q-67 0 -111.5 39.5t-44.5 113.5q0 82 60.5 123.5t167.5 41.5h102v22q0 55 -32.5 79.5t-83.5 24.5q-43 0 -75 -24t-44 -62l-74 20q17 65 70 103.5t123 38.5q93 0 146.5 -47t53.5 -147v-318h-68l-12 71q-24 -35 -73 -57t-105 -22
zM272 68q60 0 110.5 38.5t50.5 115.5v16h-110q-64 0 -99 -25t-35 -68q0 -36 22.5 -56.5t60.5 -20.5z" />
    <glyph glyph-name="aacute" unicode="&#xe1;" 
d="M282 560l67 144h121l-122 -144h-66zM259 -8q-67 0 -111.5 39.5t-44.5 113.5q0 82 60.5 123.5t167.5 41.5h102v22q0 55 -32.5 79.5t-83.5 24.5q-43 0 -75 -24t-44 -62l-74 20q17 65 70 103.5t123 38.5q93 0 146.5 -47t53.5 -147v-318h-68l-12 71q-24 -35 -73 -57t-105 -22
zM272 68q60 0 110.5 38.5t50.5 115.5v16h-110q-64 0 -99 -25t-35 -68q0 -36 22.5 -56.5t60.5 -20.5z" />
    <glyph glyph-name="acircumflex" unicode="&#xe2;" 
d="M150 560l154 152h26l154 -152h-91l-76 75l-76 -75h-91zM259 -8q-67 0 -111.5 39.5t-44.5 113.5q0 82 60.5 123.5t167.5 41.5h102v22q0 55 -32.5 79.5t-83.5 24.5q-43 0 -75 -24t-44 -62l-74 20q17 65 70 103.5t123 38.5q93 0 146.5 -47t53.5 -147v-318h-68l-12 71
q-24 -35 -73 -57t-105 -22zM272 68q60 0 110.5 38.5t50.5 115.5v16h-110q-64 0 -99 -25t-35 -68q0 -36 22.5 -56.5t60.5 -20.5z" />
    <glyph glyph-name="atilde" unicode="&#xe3;" 
d="M386 578q-36 0 -72 20t-59 20q-37 0 -66 -36l-49 38q18 34 46.5 55t60.5 21q36 0 72 -20t59 -20q37 0 66 36l49 -39q-18 -33 -46.5 -54t-60.5 -21zM259 -8q-67 0 -111.5 39.5t-44.5 113.5q0 82 60.5 123.5t167.5 41.5h102v22q0 55 -32.5 79.5t-83.5 24.5q-43 0 -75 -24
t-44 -62l-74 20q17 65 70 103.5t123 38.5q93 0 146.5 -47t53.5 -147v-318h-68l-12 71q-24 -35 -73 -57t-105 -22zM272 68q60 0 110.5 38.5t50.5 115.5v16h-110q-64 0 -99 -25t-35 -68q0 -36 22.5 -56.5t60.5 -20.5z" />
    <glyph glyph-name="adieresis" unicode="&#xe4;" 
d="M225 586q-24 0 -40.5 16.5t-16.5 40.5t16.5 40.5t40.5 16.5t40.5 -16.5t16.5 -40.5t-16.5 -40.5t-40.5 -16.5zM409 586q-24 0 -40.5 16.5t-16.5 40.5t16.5 40.5t40.5 16.5t40.5 -16.5t16.5 -40.5t-16.5 -40.5t-40.5 -16.5zM259 -8q-67 0 -111.5 39.5t-44.5 113.5
q0 82 60.5 123.5t167.5 41.5h102v22q0 55 -32.5 79.5t-83.5 24.5q-43 0 -75 -24t-44 -62l-74 20q17 65 70 103.5t123 38.5q93 0 146.5 -47t53.5 -147v-318h-68l-12 71q-24 -35 -73 -57t-105 -22zM272 68q60 0 110.5 38.5t50.5 115.5v16h-110q-64 0 -99 -25t-35 -68
q0 -36 22.5 -56.5t60.5 -20.5z" />
    <glyph glyph-name="aring" unicode="&#xe5;" 
d="M317 557q-42 0 -70.5 27.5t-28.5 68.5q0 42 28.5 71t70.5 29q43 0 71 -29t28 -71q0 -41 -28 -68.5t-71 -27.5zM317 610q19 0 31 12.5t12 31.5q0 20 -12 33t-31 13t-31 -13t-12 -33q0 -19 12 -31.5t31 -12.5zM259 -8q-67 0 -111.5 39.5t-44.5 113.5q0 82 60.5 123.5
t167.5 41.5h102v22q0 55 -32.5 79.5t-83.5 24.5q-43 0 -75 -24t-44 -62l-74 20q17 65 70 103.5t123 38.5q93 0 146.5 -47t53.5 -147v-318h-68l-12 71q-24 -35 -73 -57t-105 -22zM272 68q60 0 110.5 38.5t50.5 115.5v16h-110q-64 0 -99 -25t-35 -68q0 -36 22.5 -56.5
t60.5 -20.5z" />
    <glyph glyph-name="ae" unicode="&#xe6;" 
d="M181 -8q-65 0 -105 40t-40 112q0 80 52 123t136 43h55v32q0 42 -18 68t-50 26q-64 0 -80 -86l-74 20q8 60 50 101t103 41q89 0 117 -76q19 35 52 55.5t71 20.5q75 0 116 -59.5t41 -168.5v-50h-242q0 -79 20.5 -122.5t58.5 -43.5q32 0 51.5 23.5t33.5 75.5l72 -21
q-23 -78 -59.5 -116t-97.5 -38q-44 0 -75 24.5t-44 65.5q-40 -90 -144 -90zM365 310h158q0 55 -21 90.5t-58 35.5q-34 0 -56.5 -34.5t-22.5 -91.5zM189 68q46 0 68 37.5t22 93.5v39h-44q-55 0 -84 -23.5t-29 -67.5q0 -36 18 -57.5t49 -21.5z" />
    <glyph glyph-name="ccedilla" unicode="&#xe7;" 
d="M328 -8q-111 0 -176 76t-65 184t65 184t176 76q152 0 213 -139l-73 -30q-40 93 -140 93q-73 0 -114 -51.5t-41 -132.5t41 -132.5t114 -51.5q100 0 140 93l73 -30q-61 -139 -213 -139zM280 -235l-95 45l108 130h70z" />
    <glyph glyph-name="egrave" unicode="&#xe8;" 
d="M294 560l-122 144h121l67 -144h-66zM311 -8q-108 0 -174.5 74t-66.5 186q0 110 65.5 185t175.5 75q113 0 176 -69.5t63 -173.5v-35h-394q4 -75 46 -120.5t109 -45.5q108 0 162 100l67 -35q-73 -141 -229 -141zM162 310h299q-11 60 -50 93t-100 33q-59 0 -97.5 -33.5
t-51.5 -92.5z" />
    <glyph glyph-name="eacute" unicode="&#xe9;" 
d="M276 560l67 144h121l-122 -144h-66zM311 -8q-108 0 -174.5 74t-66.5 186q0 110 65.5 185t175.5 75q113 0 176 -69.5t63 -173.5v-35h-394q4 -75 46 -120.5t109 -45.5q108 0 162 100l67 -35q-73 -141 -229 -141zM162 310h299q-11 60 -50 93t-100 33q-59 0 -97.5 -33.5
t-51.5 -92.5z" />
    <glyph glyph-name="ecircumflex" unicode="&#xea;" 
d="M144 560l154 152h26l154 -152h-91l-76 75l-76 -75h-91zM311 -8q-108 0 -174.5 74t-66.5 186q0 110 65.5 185t175.5 75q113 0 176 -69.5t63 -173.5v-35h-394q4 -75 46 -120.5t109 -45.5q108 0 162 100l67 -35q-73 -141 -229 -141zM162 310h299q-11 60 -50 93t-100 33
q-59 0 -97.5 -33.5t-51.5 -92.5z" />
    <glyph glyph-name="edieresis" unicode="&#xeb;" 
d="M219 586q-24 0 -40.5 16.5t-16.5 40.5t16.5 40.5t40.5 16.5t40.5 -16.5t16.5 -40.5t-16.5 -40.5t-40.5 -16.5zM403 586q-24 0 -40.5 16.5t-16.5 40.5t16.5 40.5t40.5 16.5t40.5 -16.5t16.5 -40.5t-16.5 -40.5t-40.5 -16.5zM311 -8q-108 0 -174.5 74t-66.5 186
q0 110 65.5 185t175.5 75q113 0 176 -69.5t63 -173.5v-35h-394q4 -75 46 -120.5t109 -45.5q108 0 162 100l67 -35q-73 -141 -229 -141zM162 310h299q-11 60 -50 93t-100 33q-59 0 -97.5 -33.5t-51.5 -92.5z" />
    <glyph glyph-name="igrave" unicode="&#xec;" 
d="M287 560l-122 144h121l67 -144h-66zM88 0v74h174v356h-154v74h238v-430h186v-74h-444z" />
    <glyph glyph-name="iacute" unicode="&#xed;" 
d="M269 560l67 144h121l-122 -144h-66zM88 0v74h174v356h-154v74h238v-430h186v-74h-444z" />
    <glyph glyph-name="icircumflex" unicode="&#xee;" 
d="M137 560l154 152h26l154 -152h-91l-76 75l-76 -75h-91zM88 0v74h174v356h-154v74h238v-430h186v-74h-444z" />
    <glyph glyph-name="idieresis" unicode="&#xef;" 
d="M212 586q-24 0 -40.5 16.5t-16.5 40.5t16.5 40.5t40.5 16.5t40.5 -16.5t16.5 -40.5t-16.5 -40.5t-40.5 -16.5zM396 586q-24 0 -40.5 16.5t-16.5 40.5t16.5 40.5t40.5 16.5t40.5 -16.5t16.5 -40.5t-16.5 -40.5t-40.5 -16.5zM88 0v74h174v356h-154v74h238v-430h186v-74
h-444z" />
    <glyph glyph-name="eth" unicode="&#xf0;" 
d="M313 -8q-109 0 -174.5 76t-65.5 184t65.5 184t174.5 76q33 0 67 -12.5t49 -31.5q-15 40 -42 70t-71 63l-39 -59l-59 42l38 57q-32 18 -80 38l40 61q45 -19 80 -39l37 54l58 -42l-34 -51q104 -78 150 -172.5t46 -227.5q0 -115 -65 -192.5t-175 -77.5zM313 68
q73 0 113.5 54.5t40.5 129.5q0 77 -41 130.5t-113 53.5q-73 0 -113.5 -54.5t-40.5 -129.5t40.5 -129.5t113.5 -54.5z" />
    <glyph glyph-name="ntilde" unicode="&#xf1;" 
d="M401 578q-36 0 -72 20t-59 20q-37 0 -66 -36l-49 38q18 34 46.5 55t60.5 21q36 0 72 -20t59 -20q37 0 66 36l49 -39q-18 -33 -46.5 -54t-60.5 -21zM106 0v504h84v-93q28 45 73.5 73t97.5 28q77 0 115.5 -43t38.5 -118v-351h-84v333q0 103 -93 103q-62 0 -105 -63.5
t-43 -169.5v-203h-84z" />
    <glyph glyph-name="ograve" unicode="&#xf2;" 
d="M293 560l-122 144h121l67 -144h-66zM310 -8q-112 0 -180 76t-68 184t68 184t180 76t180 -76t68 -184t-68 -184t-180 -76zM310 68q74 0 118 54t44 130t-44 130t-118 54t-118 -54t-44 -130t44 -130t118 -54z" />
    <glyph glyph-name="oacute" unicode="&#xf3;" 
d="M275 560l67 144h121l-122 -144h-66zM310 -8q-112 0 -180 76t-68 184t68 184t180 76t180 -76t68 -184t-68 -184t-180 -76zM310 68q74 0 118 54t44 130t-44 130t-118 54t-118 -54t-44 -130t44 -130t118 -54z" />
    <glyph glyph-name="ocircumflex" unicode="&#xf4;" 
d="M143 560l154 152h26l154 -152h-91l-76 75l-76 -75h-91zM310 -8q-112 0 -180 76t-68 184t68 184t180 76t180 -76t68 -184t-68 -184t-180 -76zM310 68q74 0 118 54t44 130t-44 130t-118 54t-118 -54t-44 -130t44 -130t118 -54z" />
    <glyph glyph-name="otilde" unicode="&#xf5;" 
d="M379 578q-36 0 -72 20t-59 20q-37 0 -66 -36l-49 38q18 34 46.5 55t60.5 21q36 0 72 -20t59 -20q37 0 66 36l49 -39q-18 -33 -46.5 -54t-60.5 -21zM310 -8q-112 0 -180 76t-68 184t68 184t180 76t180 -76t68 -184t-68 -184t-180 -76zM310 68q74 0 118 54t44 130t-44 130
t-118 54t-118 -54t-44 -130t44 -130t118 -54z" />
    <glyph glyph-name="odieresis" unicode="&#xf6;" 
d="M218 586q-24 0 -40.5 16.5t-16.5 40.5t16.5 40.5t40.5 16.5t40.5 -16.5t16.5 -40.5t-16.5 -40.5t-40.5 -16.5zM402 586q-24 0 -40.5 16.5t-16.5 40.5t16.5 40.5t40.5 16.5t40.5 -16.5t16.5 -40.5t-16.5 -40.5t-40.5 -16.5zM310 -8q-112 0 -180 76t-68 184t68 184t180 76
t180 -76t68 -184t-68 -184t-180 -76zM310 68q74 0 118 54t44 130t-44 130t-118 54t-118 -54t-44 -130t44 -130t118 -54z" />
    <glyph glyph-name="divide" unicode="&#xf7;" 
d="M310 425q-28 0 -47 18.5t-19 47.5t19 47.5t47 18.5t47 -18.5t19 -47.5t-19 -47.5t-47 -18.5zM90 280v74h440v-74h-440zM310 77q-28 0 -47 18.5t-19 47.5t19 47.5t47 18.5t47 -18.5t19 -47.5t-19 -47.5t-47 -18.5z" />
    <glyph glyph-name="oslash" unicode="&#xf8;" 
d="M496 429q62 -73 62 -177q0 -108 -68 -184t-180 -76q-73 0 -130 35l-56 -71l-59 44l59 75q-62 73 -62 177q0 108 68 184t180 76q73 0 130 -35l56 71l59 -44zM148 252q0 -61 29 -110l214 272q-36 22 -81 22q-74 0 -118 -54t-44 -130zM310 68q74 0 118 54t44 130
q0 61 -29 110l-214 -272q36 -22 81 -22z" />
    <glyph glyph-name="ugrave" unicode="&#xf9;" 
d="M285 560l-122 144h121l67 -144h-66zM259 -8q-77 0 -115.5 43t-38.5 118v351h84v-333q0 -103 93 -103q62 0 105 63.5t43 169.5v203h84v-504h-84v93q-28 -45 -73.5 -73t-97.5 -28z" />
    <glyph glyph-name="uacute" unicode="&#xfa;" 
d="M267 560l67 144h121l-122 -144h-66zM259 -8q-77 0 -115.5 43t-38.5 118v351h84v-333q0 -103 93 -103q62 0 105 63.5t43 169.5v203h84v-504h-84v93q-28 -45 -73.5 -73t-97.5 -28z" />
    <glyph glyph-name="ucircumflex" unicode="&#xfb;" 
d="M135 560l154 152h26l154 -152h-91l-76 75l-76 -75h-91zM259 -8q-77 0 -115.5 43t-38.5 118v351h84v-333q0 -103 93 -103q62 0 105 63.5t43 169.5v203h84v-504h-84v93q-28 -45 -73.5 -73t-97.5 -28z" />
    <glyph glyph-name="udieresis" unicode="&#xfc;" 
d="M210 586q-24 0 -40.5 16.5t-16.5 40.5t16.5 40.5t40.5 16.5t40.5 -16.5t16.5 -40.5t-16.5 -40.5t-40.5 -16.5zM394 586q-24 0 -40.5 16.5t-16.5 40.5t16.5 40.5t40.5 16.5t40.5 -16.5t16.5 -40.5t-16.5 -40.5t-40.5 -16.5zM259 -8q-77 0 -115.5 43t-38.5 118v351h84v-333
q0 -103 93 -103q62 0 105 63.5t43 169.5v203h84v-504h-84v93q-28 -45 -73.5 -73t-97.5 -28z" />
    <glyph glyph-name="yacute" unicode="&#xfd;" 
d="M286 560l67 144h121l-122 -144h-66zM178 -204l98 238l-218 470h94l169 -369l149 369h91l-299 -708h-84z" />
    <glyph glyph-name="thorn" unicode="&#xfe;" 
d="M90 -204v912h84v-268q60 72 154 72q109 0 170 -71t61 -189t-61 -189t-170 -71q-49 0 -90 21.5t-64 53.5v-271h-84zM320 68q71 0 112 51t41 133t-41 133t-112 51t-112 -51t-41 -133t41 -133t112 -51z" />
    <glyph glyph-name="ydieresis" unicode="&#xff;" 
d="M229 586q-24 0 -40.5 16.5t-16.5 40.5t16.5 40.5t40.5 16.5t40.5 -16.5t16.5 -40.5t-16.5 -40.5t-40.5 -16.5zM413 586q-24 0 -40.5 16.5t-16.5 40.5t16.5 40.5t40.5 16.5t40.5 -16.5t16.5 -40.5t-16.5 -40.5t-40.5 -16.5zM178 -204l98 238l-218 470h94l169 -369l149 369
h91l-299 -708h-84z" />
    <glyph glyph-name="Amacron" unicode="&#x100;" 
d="M182 796v74h254v-74h-254zM19 0l249 700h84l249 -700h-91l-63 187h-274l-63 -187h-91zM202 271h216l-108 315z" />
    <glyph glyph-name="amacron" unicode="&#x101;" 
d="M189 600v74h254v-74h-254zM259 -8q-67 0 -111.5 39.5t-44.5 113.5q0 82 60.5 123.5t167.5 41.5h102v22q0 55 -32.5 79.5t-83.5 24.5q-43 0 -75 -24t-44 -62l-74 20q17 65 70 103.5t123 38.5q93 0 146.5 -47t53.5 -147v-318h-68l-12 71q-24 -35 -73 -57t-105 -22zM272 68
q60 0 110.5 38.5t50.5 115.5v16h-110q-64 0 -99 -25t-35 -68q0 -36 22.5 -56.5t60.5 -20.5z" />
    <glyph glyph-name="Abreve" unicode="&#x102;" 
d="M310 787q-47 0 -79 31.5t-32 77.5h67q0 -20 12.5 -32.5t31.5 -12.5q20 0 32 12.5t12 32.5h67q0 -46 -31.5 -77.5t-79.5 -31.5zM19 0l249 700h84l249 -700h-91l-63 187h-274l-63 -187h-91zM202 271h216l-108 315z" />
    <glyph glyph-name="abreve" unicode="&#x103;" 
d="M317 591q-47 0 -79 31.5t-32 77.5h67q0 -20 12.5 -32.5t31.5 -12.5q20 0 32 12.5t12 32.5h67q0 -46 -31.5 -77.5t-79.5 -31.5zM259 -8q-67 0 -111.5 39.5t-44.5 113.5q0 82 60.5 123.5t167.5 41.5h102v22q0 55 -32.5 79.5t-83.5 24.5q-43 0 -75 -24t-44 -62l-74 20
q17 65 70 103.5t123 38.5q93 0 146.5 -47t53.5 -147v-318h-68l-12 71q-24 -35 -73 -57t-105 -22zM272 68q60 0 110.5 38.5t50.5 115.5v16h-110q-64 0 -99 -25t-35 -68q0 -36 22.5 -56.5t60.5 -20.5z" />
    <glyph glyph-name="Aogonek" unicode="&#x104;" 
d="M609 -101l17 -66q-28 -17 -65 -17q-43 0 -69 23.5t-26 63.5q0 53 60 97h-16l-63 187h-274l-63 -187h-91l249 700h84l249 -700q-62 -52 -62 -84t33 -32q19 0 37 15zM202 271h216l-108 315z" />
    <glyph glyph-name="aogonek" unicode="&#x105;" 
d="M525 -101l17 -66q-28 -17 -65 -17q-43 0 -69 23.5t-26 63.5q0 55 67 97l-12 71q-24 -35 -73 -57t-105 -22q-67 0 -111.5 39.5t-44.5 113.5q0 82 60.5 123.5t167.5 41.5h102v22q0 55 -32.5 79.5t-83.5 24.5q-43 0 -75 -24t-44 -62l-74 20q17 65 70 103.5t123 38.5
q93 0 146.5 -47t53.5 -147v-318q-62 -52 -62 -84t33 -32q19 0 37 15zM433 222v16h-110q-64 0 -99 -25t-35 -68q0 -36 22.5 -56.5t60.5 -20.5q60 0 110.5 38.5t50.5 115.5z" />
    <glyph glyph-name="Cacute" unicode="&#x106;" 
d="M305 756l67 144h121l-122 -144h-66zM338 -8q-126 0 -207.5 92t-81.5 266t81.5 266t207.5 92q98 0 162.5 -58t88.5 -155l-83 -25q-24 78 -63.5 116t-104.5 38q-93 0 -145.5 -67.5t-52.5 -206.5t52.5 -206.5t145.5 -67.5q65 0 104.5 38t63.5 116l83 -25q-24 -97 -88.5 -155
t-162.5 -58z" />
    <glyph glyph-name="cacute" unicode="&#x107;" 
d="M293 560l67 144h121l-122 -144h-66zM328 -8q-111 0 -176 76t-65 184t65 184t176 76q152 0 213 -139l-73 -30q-40 93 -140 93q-73 0 -114 -51.5t-41 -132.5t41 -132.5t114 -51.5q100 0 140 93l73 -30q-61 -139 -213 -139z" />
    <glyph glyph-name="Ccircumflex" unicode="&#x108;" 
d="M171 756l154 152h26l154 -152h-91l-76 75l-76 -75h-91zM338 -8q-126 0 -207.5 92t-81.5 266t81.5 266t207.5 92q98 0 162.5 -58t88.5 -155l-83 -25q-24 78 -63.5 116t-104.5 38q-93 0 -145.5 -67.5t-52.5 -206.5t52.5 -206.5t145.5 -67.5q65 0 104.5 38t63.5 116l83 -25
q-24 -97 -88.5 -155t-162.5 -58z" />
    <glyph glyph-name="ccircumflex" unicode="&#x109;" 
d="M161 560l154 152h26l154 -152h-91l-76 75l-76 -75h-91zM328 -8q-111 0 -176 76t-65 184t65 184t176 76q152 0 213 -139l-73 -30q-40 93 -140 93q-73 0 -114 -51.5t-41 -132.5t41 -132.5t114 -51.5q100 0 140 93l73 -30q-61 -139 -213 -139z" />
    <glyph glyph-name="Cdotaccent" unicode="&#x10a;" 
d="M337 776q-29 0 -49 20t-20 48q0 29 20 49.5t49 20.5t49 -20.5t20 -49.5t-20 -48.5t-49 -19.5zM338 -8q-126 0 -207.5 92t-81.5 266t81.5 266t207.5 92q98 0 162.5 -58t88.5 -155l-83 -25q-24 78 -63.5 116t-104.5 38q-93 0 -145.5 -67.5t-52.5 -206.5t52.5 -206.5
t145.5 -67.5q65 0 104.5 38t63.5 116l83 -25q-24 -97 -88.5 -155t-162.5 -58z" />
    <glyph glyph-name="cdotaccent" unicode="&#x10b;" 
d="M328 570q-29 0 -49 20t-20 48q0 29 20 49.5t49 20.5t49 -20.5t20 -49.5t-20 -48.5t-49 -19.5zM328 -8q-111 0 -176 76t-65 184t65 184t176 76q152 0 213 -139l-73 -30q-40 93 -140 93q-73 0 -114 -51.5t-41 -132.5t41 -132.5t114 -51.5q100 0 140 93l73 -30
q-61 -139 -213 -139z" />
    <glyph glyph-name="Ccaron" unicode="&#x10c;" 
d="M325 756l-154 152h91l76 -75l76 75h91l-154 -152h-26zM338 -8q-126 0 -207.5 92t-81.5 266t81.5 266t207.5 92q98 0 162.5 -58t88.5 -155l-83 -25q-24 78 -63.5 116t-104.5 38q-93 0 -145.5 -67.5t-52.5 -206.5t52.5 -206.5t145.5 -67.5q65 0 104.5 38t63.5 116l83 -25
q-24 -97 -88.5 -155t-162.5 -58z" />
    <glyph glyph-name="ccaron" unicode="&#x10d;" 
d="M315 560l-154 152h91l76 -75l76 75h91l-154 -152h-26zM328 -8q-111 0 -176 76t-65 184t65 184t176 76q152 0 213 -139l-73 -30q-40 93 -140 93q-73 0 -114 -51.5t-41 -132.5t41 -132.5t114 -51.5q100 0 140 93l73 -30q-61 -139 -213 -139z" />
    <glyph glyph-name="Dcaron" unicode="&#x10e;" 
d="M247 756l-154 152h91l76 -75l76 75h91l-154 -152h-26zM78 0v700h177q142 0 226.5 -89t84.5 -261t-84.5 -261t-226.5 -89h-177zM166 84h80q110 0 168 62.5t58 203.5t-58 203.5t-168 62.5h-80v-532z" />
    <glyph glyph-name="dcaron" unicode="&#x10f;" 
d="M515 542l24 174h104l-72 -174h-56zM245 -8q-109 0 -170 71t-61 189t61 189t170 71q50 0 90.5 -20.5t63.5 -51.5v268h84v-708h-84v67q-23 -32 -64 -53.5t-90 -21.5zM253 68q71 0 112 51t41 133t-41 133t-112 51t-112 -51t-41 -133t41 -133t112 -51z" />
    <glyph glyph-name="Dcroat" unicode="&#x110;" 
d="M78 0v308h-49v84h49v308h177q142 0 226.5 -89t84.5 -261t-84.5 -261t-226.5 -89h-177zM166 84h80q110 0 168 62.5t58 203.5t-58 203.5t-168 62.5h-80v-224h109v-84h-109v-224z" />
    <glyph glyph-name="dcroat" unicode="&#x111;" 
d="M301 -8q-109 0 -170 71t-61 189t61 189t170 71q50 0 90.5 -20.5t63.5 -51.5v132h-138v68h138v68h84v-68h71v-68h-71v-572h-84v67q-23 -32 -64 -53.5t-90 -21.5zM309 68q71 0 112 51t41 133t-41 133t-112 51t-112 -51t-41 -133t41 -133t112 -51z" />
    <glyph glyph-name="Emacron" unicode="&#x112;" 
d="M192 796v74h254v-74h-254zM91 0v700h444v-84h-356v-201h306v-84h-306v-247h366v-84h-454z" />
    <glyph glyph-name="emacron" unicode="&#x113;" 
d="M183 600v74h254v-74h-254zM311 -8q-108 0 -174.5 74t-66.5 186q0 110 65.5 185t175.5 75q113 0 176 -69.5t63 -173.5v-35h-394q4 -75 46 -120.5t109 -45.5q108 0 162 100l67 -35q-73 -141 -229 -141zM162 310h299q-11 60 -50 93t-100 33q-59 0 -97.5 -33.5t-51.5 -92.5z
" />
    <glyph glyph-name="Ebreve" unicode="&#x114;" 
d="M320 787q-47 0 -79 31.5t-32 77.5h67q0 -20 12.5 -32.5t31.5 -12.5q20 0 32 12.5t12 32.5h67q0 -46 -31.5 -77.5t-79.5 -31.5zM91 0v700h444v-84h-356v-201h306v-84h-306v-247h366v-84h-454z" />
    <glyph glyph-name="ebreve" unicode="&#x115;" 
d="M311 591q-47 0 -79 31.5t-32 77.5h67q0 -20 12.5 -32.5t31.5 -12.5q20 0 32 12.5t12 32.5h67q0 -46 -31.5 -77.5t-79.5 -31.5zM311 -8q-108 0 -174.5 74t-66.5 186q0 110 65.5 185t175.5 75q113 0 176 -69.5t63 -173.5v-35h-394q4 -75 46 -120.5t109 -45.5q108 0 162 100
l67 -35q-73 -141 -229 -141zM162 310h299q-11 60 -50 93t-100 33q-59 0 -97.5 -33.5t-51.5 -92.5z" />
    <glyph glyph-name="Edotaccent" unicode="&#x116;" 
d="M319 776q-29 0 -49 20t-20 48q0 29 20 49.5t49 20.5t49 -20.5t20 -49.5t-20 -48.5t-49 -19.5zM91 0v700h444v-84h-356v-201h306v-84h-306v-247h366v-84h-454z" />
    <glyph glyph-name="edotaccent" unicode="&#x117;" 
d="M311 570q-29 0 -49 20t-20 48q0 29 20 49.5t49 20.5t49 -20.5t20 -49.5t-20 -48.5t-49 -19.5zM311 -8q-108 0 -174.5 74t-66.5 186q0 110 65.5 185t175.5 75q113 0 176 -69.5t63 -173.5v-35h-394q4 -75 46 -120.5t109 -45.5q108 0 162 100l67 -35q-73 -141 -229 -141z
M162 310h299q-11 60 -50 93t-100 33q-59 0 -97.5 -33.5t-51.5 -92.5z" />
    <glyph glyph-name="Eogonek" unicode="&#x118;" 
d="M553 -101l17 -66q-28 -17 -65 -17q-43 0 -69 23.5t-26 63.5q0 53 60 97h-379v700h444v-84h-356v-201h306v-84h-306v-247h366v-84q-62 -52 -62 -84t33 -32q19 0 37 15z" />
    <glyph glyph-name="eogonek" unicode="&#x119;" 
d="M550 269v-35h-394q4 -75 46 -120.5t109 -45.5q108 0 162 100l67 -35q-57 -109 -158 -133q-62 -52 -62 -84t33 -32q19 0 37 15l17 -66q-28 -17 -65 -17q-43 0 -69 23.5t-26 63.5q0 48 50 89q-103 5 -165 78.5t-62 181.5q0 110 65.5 185t175.5 75q113 0 176 -69.5
t63 -173.5zM162 310h299q-11 60 -50 93t-100 33q-59 0 -97.5 -33.5t-51.5 -92.5z" />
    <glyph glyph-name="Ecaron" unicode="&#x11a;" 
d="M307 756l-154 152h91l76 -75l76 75h91l-154 -152h-26zM91 0v700h444v-84h-356v-201h306v-84h-306v-247h366v-84h-454z" />
    <glyph glyph-name="ecaron" unicode="&#x11b;" 
d="M298 560l-154 152h91l76 -75l76 75h91l-154 -152h-26zM311 -8q-108 0 -174.5 74t-66.5 186q0 110 65.5 185t175.5 75q113 0 176 -69.5t63 -173.5v-35h-394q4 -75 46 -120.5t109 -45.5q108 0 162 100l67 -35q-73 -141 -229 -141zM162 310h299q-11 60 -50 93t-100 33
q-59 0 -97.5 -33.5t-51.5 -92.5z" />
    <glyph glyph-name="Gcircumflex" unicode="&#x11c;" 
d="M165 756l154 152h26l154 -152h-91l-76 75l-76 -75h-91zM327 -8q-121 0 -202 92.5t-81 265.5q0 174 81.5 266t207.5 92q99 0 163 -57.5t88 -155.5l-83 -25q-24 78 -63.5 116t-104.5 38q-93 0 -145.5 -67.5t-52.5 -206.5t52.5 -206.5t145.5 -67.5q143 0 157 193h-157v84
h248v-353h-73l-5 94q-23 -50 -70.5 -76t-105.5 -26z" />
    <glyph glyph-name="gcircumflex" unicode="&#x11d;" 
d="M153 560l154 152h26l154 -152h-91l-76 75l-76 -75h-91zM316 -212q-110 0 -171.5 42.5t-61.5 123.5q0 68 52 108q-36 28 -36 77q0 34 19.5 61t54.5 40q-31 42 -31 103q0 77 50.5 123t127.5 46q54 0 99 -26l105 54l38 -69l-85 -44q21 -36 21 -84q0 -77 -50 -123t-128 -46
q-52 0 -93 21q-46 -18 -46 -52q0 -42 71 -42h131q81 0 125 -35.5t44 -103.5q0 -88 -69 -131t-167 -43zM320 246q41 0 68.5 25.5t27.5 71.5t-27.5 71.5t-68.5 25.5t-68.5 -26t-27.5 -71t27.5 -71t68.5 -26zM316 -138q71 0 110.5 24.5t39.5 67.5q0 75 -85 75h-119q-31 0 -52 4
q-43 -22 -43 -76q0 -44 40.5 -69.5t108.5 -25.5z" />
    <glyph glyph-name="Gbreve" unicode="&#x11e;" 
d="M332 787q-47 0 -79 31.5t-32 77.5h67q0 -20 12.5 -32.5t31.5 -12.5q20 0 32 12.5t12 32.5h67q0 -46 -31.5 -77.5t-79.5 -31.5zM327 -8q-121 0 -202 92.5t-81 265.5q0 174 81.5 266t207.5 92q99 0 163 -57.5t88 -155.5l-83 -25q-24 78 -63.5 116t-104.5 38
q-93 0 -145.5 -67.5t-52.5 -206.5t52.5 -206.5t145.5 -67.5q143 0 157 193h-157v84h248v-353h-73l-5 94q-23 -50 -70.5 -76t-105.5 -26z" />
    <glyph glyph-name="gbreve" unicode="&#x11f;" 
d="M320 591q-47 0 -79 31.5t-32 77.5h67q0 -20 12.5 -32.5t31.5 -12.5q20 0 32 12.5t12 32.5h67q0 -46 -31.5 -77.5t-79.5 -31.5zM316 -212q-110 0 -171.5 42.5t-61.5 123.5q0 68 52 108q-36 28 -36 77q0 34 19.5 61t54.5 40q-31 42 -31 103q0 77 50.5 123t127.5 46
q54 0 99 -26l105 54l38 -69l-85 -44q21 -36 21 -84q0 -77 -50 -123t-128 -46q-52 0 -93 21q-46 -18 -46 -52q0 -42 71 -42h131q81 0 125 -35.5t44 -103.5q0 -88 -69 -131t-167 -43zM320 246q41 0 68.5 25.5t27.5 71.5t-27.5 71.5t-68.5 25.5t-68.5 -26t-27.5 -71t27.5 -71
t68.5 -26zM316 -138q71 0 110.5 24.5t39.5 67.5q0 75 -85 75h-119q-31 0 -52 4q-43 -22 -43 -76q0 -44 40.5 -69.5t108.5 -25.5z" />
    <glyph glyph-name="Gdotaccent" unicode="&#x120;" 
d="M331 776q-29 0 -49 20t-20 48q0 29 20 49.5t49 20.5t49 -20.5t20 -49.5t-20 -48.5t-49 -19.5zM327 -8q-121 0 -202 92.5t-81 265.5q0 174 81.5 266t207.5 92q99 0 163 -57.5t88 -155.5l-83 -25q-24 78 -63.5 116t-104.5 38q-93 0 -145.5 -67.5t-52.5 -206.5t52.5 -206.5
t145.5 -67.5q143 0 157 193h-157v84h248v-353h-73l-5 94q-23 -50 -70.5 -76t-105.5 -26z" />
    <glyph glyph-name="gdotaccent" unicode="&#x121;" 
d="M320 570q-29 0 -49 20t-20 48q0 29 20 49.5t49 20.5t49 -20.5t20 -49.5t-20 -48.5t-49 -19.5zM316 -212q-110 0 -171.5 42.5t-61.5 123.5q0 68 52 108q-36 28 -36 77q0 34 19.5 61t54.5 40q-31 42 -31 103q0 77 50.5 123t127.5 46q54 0 99 -26l105 54l38 -69l-85 -44
q21 -36 21 -84q0 -77 -50 -123t-128 -46q-52 0 -93 21q-46 -18 -46 -52q0 -42 71 -42h131q81 0 125 -35.5t44 -103.5q0 -88 -69 -131t-167 -43zM320 246q41 0 68.5 25.5t27.5 71.5t-27.5 71.5t-68.5 25.5t-68.5 -26t-27.5 -71t27.5 -71t68.5 -26zM316 -138q71 0 110.5 24.5
t39.5 67.5q0 75 -85 75h-119q-31 0 -52 4q-43 -22 -43 -76q0 -44 40.5 -69.5t108.5 -25.5z" />
    <glyph glyph-name="uni0122" unicode="&#x122;" 
d="M327 -8q-121 0 -202 92.5t-81 265.5q0 174 81.5 266t207.5 92q99 0 163 -57.5t88 -155.5l-83 -25q-24 78 -63.5 116t-104.5 38q-93 0 -145.5 -67.5t-52.5 -206.5t52.5 -206.5t145.5 -67.5q143 0 157 193h-157v84h248v-353h-73l-5 94q-23 -50 -70.5 -76t-105.5 -26z
M234 -224l42 172h109l-104 -172h-47z" />
    <glyph glyph-name="uni0123" unicode="&#x123;" 
d="M269 586l87 152h57l-42 -152h-102zM316 -212q-110 0 -171.5 42.5t-61.5 123.5q0 68 52 108q-36 28 -36 77q0 34 19.5 61t54.5 40q-31 42 -31 103q0 77 50.5 123t127.5 46q54 0 99 -26l105 54l38 -69l-85 -44q21 -36 21 -84q0 -77 -50 -123t-128 -46q-52 0 -93 21
q-46 -18 -46 -52q0 -42 71 -42h131q81 0 125 -35.5t44 -103.5q0 -88 -69 -131t-167 -43zM320 246q41 0 68.5 25.5t27.5 71.5t-27.5 71.5t-68.5 25.5t-68.5 -26t-27.5 -71t27.5 -71t68.5 -26zM316 -138q71 0 110.5 24.5t39.5 67.5q0 75 -85 75h-119q-31 0 -52 4
q-43 -22 -43 -76q0 -44 40.5 -69.5t108.5 -25.5z" />
    <glyph glyph-name="Hcircumflex" unicode="&#x124;" 
d="M143 756l154 152h26l154 -152h-91l-76 75l-76 -75h-91zM68 0v700h88v-286h308v286h88v-700h-88v330h-308v-330h-88z" />
    <glyph glyph-name="hcircumflex" unicode="&#x125;" 
d="M104 764l154 152h26l154 -152h-91l-76 75l-76 -75h-91zM108 0v708h84v-297q30 44 78.5 72.5t104.5 28.5q154 0 154 -164v-348h-84v330q0 106 -93 106q-64 0 -112 -61t-48 -164v-211h-84z" />
    <glyph glyph-name="Hbar" unicode="&#x126;" 
d="M68 0v525h-52v76h52v99h88v-99h308v99h88v-99h53v-76h-53v-525h-88v330h-308v-330h-88zM156 414h308v111h-308v-111z" />
    <glyph glyph-name="hbar" unicode="&#x127;" 
d="M108 0v572h-71v68h71v68h84v-68h138v-68h-138v-161q30 44 78.5 72.5t104.5 28.5q154 0 154 -164v-348h-84v330q0 106 -93 106q-64 0 -112 -61t-48 -164v-211h-84z" />
    <glyph glyph-name="Itilde" unicode="&#x128;" 
d="M379 774q-36 0 -72 20t-59 20q-37 0 -66 -36l-49 38q18 34 46.5 55t60.5 21q36 0 72 -20t59 -20q37 0 66 36l49 -39q-18 -33 -46.5 -54t-60.5 -21zM97 0v76h169v548h-169v76h426v-76h-169v-548h169v-76h-426z" />
    <glyph glyph-name="itilde" unicode="&#x129;" 
d="M373 578q-36 0 -72 20t-59 20q-37 0 -66 -36l-49 38q18 34 46.5 55t60.5 21q36 0 72 -20t59 -20q37 0 66 36l49 -39q-18 -33 -46.5 -54t-60.5 -21zM88 0v74h174v356h-154v74h238v-430h186v-74h-444z" />
    <glyph glyph-name="Imacron" unicode="&#x12a;" 
d="M182 796v74h254v-74h-254zM97 0v76h169v548h-169v76h426v-76h-169v-548h169v-76h-426z" />
    <glyph glyph-name="imacron" unicode="&#x12b;" 
d="M176 600v74h254v-74h-254zM88 0v74h174v356h-154v74h238v-430h186v-74h-444z" />
    <glyph glyph-name="Ibreve" unicode="&#x12c;" 
d="M310 787q-47 0 -79 31.5t-32 77.5h67q0 -20 12.5 -32.5t31.5 -12.5q20 0 32 12.5t12 32.5h67q0 -46 -31.5 -77.5t-79.5 -31.5zM97 0v76h169v548h-169v76h426v-76h-169v-548h169v-76h-426z" />
    <glyph glyph-name="ibreve" unicode="&#x12d;" 
d="M304 591q-47 0 -79 31.5t-32 77.5h67q0 -20 12.5 -32.5t31.5 -12.5q20 0 32 12.5t12 32.5h67q0 -46 -31.5 -77.5t-79.5 -31.5zM88 0v74h174v356h-154v74h238v-430h186v-74h-444z" />
    <glyph glyph-name="Iogonek" unicode="&#x12e;" 
d="M531 -101l17 -66q-28 -17 -65 -17q-43 0 -69 23.5t-26 63.5q0 53 60 97h-351v76h169v548h-169v76h426v-76h-169v-548h169v-76q-62 -52 -62 -84t33 -32q19 0 37 15z" />
    <glyph glyph-name="iogonek" unicode="&#x12f;" 
d="M304 570q-29 0 -49 20t-20 48q0 29 20 49.5t49 20.5t49 -20.5t20 -49.5t-20 -48.5t-49 -19.5zM540 -101l17 -66q-28 -17 -65 -17q-43 0 -69 23.5t-26 63.5q0 53 60 97h-369v74h174v356h-154v74h238v-430h186v-74q-62 -52 -62 -84t33 -32q19 0 37 15z" />
    <glyph glyph-name="Idotaccent" unicode="&#x130;" 
d="M309 776q-29 0 -49 20t-20 48q0 29 20 49.5t49 20.5t49 -20.5t20 -49.5t-20 -48.5t-49 -19.5zM97 0v76h169v548h-169v76h426v-76h-169v-548h169v-76h-426z" />
    <glyph glyph-name="dotlessi" unicode="&#x131;" 
d="M88 0v74h174v356h-154v74h238v-430h186v-74h-444z" />
    <glyph glyph-name="IJ" unicode="&#x132;" 
d="M54 0v700h88v-700h-88zM368 -8q-74 0 -125.5 45.5t-65.5 120.5l89 19q11 -50 38 -75.5t64 -25.5q106 0 106 146v478h88v-476q0 -109 -51 -170.5t-143 -61.5z" />
    <glyph glyph-name="ij" unicode="&#x133;" 
d="M170 570q-29 0 -49 20t-20 48q0 29 20 49.5t49 20.5t49 -20.5t20 -49.5t-20 -48.5t-49 -19.5zM480 570q-29 0 -49 20t-20 48q0 29 20 49.5t49 20.5t49 -20.5t20 -49.5t-20 -48.5t-49 -19.5zM134 0v504h84v-504h-84zM337 -212l-28 80q72 24 103.5 66t31.5 116v380h-98v74
h182v-476q0 -101 -55.5 -160.5t-135.5 -79.5z" />
    <glyph glyph-name="Jcircumflex" unicode="&#x134;" 
d="M295 756l154 152h26l154 -152h-91l-76 75l-76 -75h-91zM291 -8q-91 0 -148 54t-70 136l89 19q12 -59 45 -92t84 -33q59 0 93 36t34 110v478h88v-476q0 -113 -60 -172.5t-155 -59.5z" />
    <glyph glyph-name="jcircumflex" unicode="&#x135;" 
d="M184 560l154 152h26l154 -152h-91l-76 75l-76 -75h-91zM201 -212l-28 80q72 24 103.5 66t31.5 116v380h-198v74h282v-476q0 -101 -55.5 -160.5t-135.5 -79.5z" />
    <glyph glyph-name="uni0136" unicode="&#x136;" 
d="M63 0v700h88v-281l268 281h115l-302 -315l324 -385h-112l-293 351v-351h-88zM179 -224l42 172h109l-104 -172h-47z" />
    <glyph glyph-name="uni0137" unicode="&#x137;" 
d="M94 0v708h84v-415l215 211h110l-235 -231l258 -273h-110l-238 253v-253h-84zM197 -224l42 172h109l-104 -172h-47z" />
    <glyph glyph-name="kgreenlandic" unicode="&#x138;" 
d="M94 0v504h84v-211l215 211h110l-235 -231l258 -273h-110l-238 253v-253h-84z" />
    <glyph glyph-name="Lacute" unicode="&#x139;" 
d="M99 756l67 144h121l-122 -144h-66zM88 0v700h88v-616h357v-84h-445z" />
    <glyph glyph-name="lacute" unicode="&#x13a;" 
d="M199 756l67 144h121l-122 -144h-66zM378 -8q-88 0 -139 52t-51 146v434h-139v76h223v-510q0 -122 106 -122q98 0 117 122l76 -15q-13 -90 -63.5 -136.5t-129.5 -46.5z" />
    <glyph glyph-name="uni013B" unicode="&#x13b;" 
d="M88 0v700h88v-616h357v-84h-445zM219 -224l42 172h109l-104 -172h-47z" />
    <glyph glyph-name="uni013C" unicode="&#x13c;" 
d="M378 -8q-88 0 -139 52t-51 146v434h-139v76h223v-510q0 -122 106 -122q98 0 117 122l76 -15q-13 -90 -63.5 -136.5t-129.5 -46.5zM281 -224l42 172h109l-104 -172h-47z" />
    <glyph glyph-name="Lcaron" unicode="&#x13d;" 
d="M372 542l24 174h104l-72 -174h-56zM88 0v700h88v-616h357v-84h-445z" />
    <glyph glyph-name="lcaron" unicode="&#x13e;" 
d="M405 542l24 174h104l-72 -174h-56zM378 -8q-88 0 -139 52t-51 146v434h-139v76h223v-510q0 -122 106 -122q98 0 117 122l76 -15q-13 -90 -63.5 -136.5t-129.5 -46.5z" />
    <glyph glyph-name="Ldot" unicode="&#x13f;" 
d="M88 0v700h88v-616h357v-84h-445zM411 312q-27 0 -44.5 17.5t-17.5 44.5t17.5 44.5t44.5 17.5t44.5 -17.5t17.5 -44.5t-17.5 -44.5t-44.5 -17.5z" />
    <glyph glyph-name="ldot" unicode="&#x140;" 
d="M378 -8q-88 0 -139 52t-51 146v434h-139v76h223v-510q0 -122 106 -122q98 0 117 122l76 -15q-13 -90 -63.5 -136.5t-129.5 -46.5zM491 289q-27 0 -44.5 17.5t-17.5 44.5t17.5 44.5t44.5 17.5t44.5 -17.5t17.5 -44.5t-17.5 -44.5t-44.5 -17.5z" />
    <glyph glyph-name="Lslash" unicode="&#x141;" 
d="M176 84h357v-84h-445v258l-50 -29l-39 74l89 52v345h88v-294l112 65l43 -74l-155 -89v-224z" />
    <glyph glyph-name="lslash" unicode="&#x142;" 
d="M378 -8q-88 0 -139 53t-51 146v90l-84 -47l-36 64l120 68v258h-139v76h223v-287l84 48l36 -64l-120 -68v-139q0 -122 106 -122q98 0 117 121l76 -15q-13 -90 -63.5 -136t-129.5 -46z" />
    <glyph glyph-name="Nacute" unicode="&#x143;" 
d="M277 756l67 144h121l-122 -144h-66zM71 0v700h96l293 -540v540h88v-700h-96l-293 540v-540h-88z" />
    <glyph glyph-name="nacute" unicode="&#x144;" 
d="M297 560l67 144h121l-122 -144h-66zM106 0v504h84v-93q28 45 73.5 73t97.5 28q77 0 115.5 -43t38.5 -118v-351h-84v333q0 103 -93 103q-62 0 -105 -63.5t-43 -169.5v-203h-84z" />
    <glyph glyph-name="uni0145" unicode="&#x145;" 
d="M71 0v700h96l293 -540v540h88v-700h-96l-293 540v-540h-88zM214 -224l42 172h109l-104 -172h-47z" />
    <glyph glyph-name="uni0146" unicode="&#x146;" 
d="M106 0v504h84v-93q28 45 73.5 73t97.5 28q77 0 115.5 -43t38.5 -118v-351h-84v333q0 103 -93 103q-62 0 -105 -63.5t-43 -169.5v-203h-84zM214 -224l42 172h109l-104 -172h-47z" />
    <glyph glyph-name="Ncaron" unicode="&#x147;" 
d="M297 756l-154 152h91l76 -75l76 75h91l-154 -152h-26zM71 0v700h96l293 -540v540h88v-700h-96l-293 540v-540h-88z" />
    <glyph glyph-name="ncaron" unicode="&#x148;" 
d="M319 560l-154 152h91l76 -75l76 75h91l-154 -152h-26zM106 0v504h84v-93q28 45 73.5 73t97.5 28q77 0 115.5 -43t38.5 -118v-351h-84v333q0 103 -93 103q-62 0 -105 -63.5t-43 -169.5v-203h-84z" />
    <glyph glyph-name="Eng" unicode="&#x14a;" 
d="M333 -212v84q63 0 95 27.5t32 100.5l-301 540v-540h-88v700h96l293 -527v527h88v-700q0 -111 -58.5 -161.5t-156.5 -50.5z" />
    <glyph glyph-name="eng" unicode="&#x14b;" 
d="M324 -212l-28 80q72 24 103.5 66t31.5 116v283q0 103 -93 103q-62 0 -105 -63.5t-43 -169.5v-203h-84v504h84v-93q28 45 73.5 73t97.5 28q77 0 115.5 -43t38.5 -118v-323q0 -101 -55.5 -160.5t-135.5 -79.5z" />
    <glyph glyph-name="Omacron" unicode="&#x14c;" 
d="M182 796v74h254v-74h-254zM310 -8q-120 0 -196 92.5t-76 265.5t76 265.5t196 92.5t196 -92.5t76 -265.5t-76 -265.5t-196 -92.5zM310 76q83 0 132 66.5t49 207.5t-49 207.5t-132 66.5t-132 -66.5t-49 -207.5t49 -207.5t132 -66.5z" />
    <glyph glyph-name="omacron" unicode="&#x14d;" 
d="M182 600v74h254v-74h-254zM310 -8q-112 0 -180 76t-68 184t68 184t180 76t180 -76t68 -184t-68 -184t-180 -76zM310 68q74 0 118 54t44 130t-44 130t-118 54t-118 -54t-44 -130t44 -130t118 -54z" />
    <glyph glyph-name="Obreve" unicode="&#x14e;" 
d="M310 787q-47 0 -79 31.5t-32 77.5h67q0 -20 12.5 -32.5t31.5 -12.5q20 0 32 12.5t12 32.5h67q0 -46 -31.5 -77.5t-79.5 -31.5zM310 -8q-120 0 -196 92.5t-76 265.5t76 265.5t196 92.5t196 -92.5t76 -265.5t-76 -265.5t-196 -92.5zM310 76q83 0 132 66.5t49 207.5
t-49 207.5t-132 66.5t-132 -66.5t-49 -207.5t49 -207.5t132 -66.5z" />
    <glyph glyph-name="obreve" unicode="&#x14f;" 
d="M310 591q-47 0 -79 31.5t-32 77.5h67q0 -20 12.5 -32.5t31.5 -12.5q20 0 32 12.5t12 32.5h67q0 -46 -31.5 -77.5t-79.5 -31.5zM310 -8q-112 0 -180 76t-68 184t68 184t180 76t180 -76t68 -184t-68 -184t-180 -76zM310 68q74 0 118 54t44 130t-44 130t-118 54t-118 -54
t-44 -130t44 -130t118 -54z" />
    <glyph glyph-name="Ohungarumlaut" unicode="&#x150;" 
d="M164 756l68 144h121l-121 -144h-68zM354 756l68 144h121l-121 -144h-68zM310 -8q-120 0 -196 92.5t-76 265.5t76 265.5t196 92.5t196 -92.5t76 -265.5t-76 -265.5t-196 -92.5zM310 76q83 0 132 66.5t49 207.5t-49 207.5t-132 66.5t-132 -66.5t-49 -207.5t49 -207.5
t132 -66.5z" />
    <glyph glyph-name="ohungarumlaut" unicode="&#x151;" 
d="M151 560l68 144h121l-121 -144h-68zM341 560l68 144h121l-121 -144h-68zM310 -8q-112 0 -180 76t-68 184t68 184t180 76t180 -76t68 -184t-68 -184t-180 -76zM310 68q74 0 118 54t44 130t-44 130t-118 54t-118 -54t-44 -130t44 -130t118 -54z" />
    <glyph glyph-name="OE" unicode="&#x152;" 
d="M299 0q-119 0 -190 88t-71 262t71 262t190 88h262v-84h-183v-201h156v-84h-156v-247h193v-84h-272zM290 84v540q-80 0 -120.5 -65t-40.5 -209q0 -143 40 -204.5t121 -61.5z" />
    <glyph glyph-name="oe" unicode="&#x153;" 
d="M321 -8q-112 0 -180 76t-68 184t68 184t180 76q113 0 176 -69.5t63 -173.5v-35h-197v-162q77 17 120 96l67 -35q-73 -141 -229 -141zM363 310h108q-21 105 -108 122v-122zM277 73v357q-56 -14 -87 -64t-31 -114q0 -65 30.5 -114.5t87.5 -64.5z" />
    <glyph glyph-name="Racute" unicode="&#x154;" 
d="M227 756l67 144h121l-122 -144h-66zM80 0v700h245q96 0 151 -47t55 -138q0 -149 -146 -179l209 -336h-104l-205 330h-117v-330h-88zM168 414h159q113 0 113 101t-113 101h-159v-202z" />
    <glyph glyph-name="racute" unicode="&#x155;" 
d="M302 560l67 144h121l-122 -144h-66zM92 0v504h84v-93q65 101 186 101q75 0 118.5 -43.5t47.5 -124.5h-84q-11 92 -97 92q-71 0 -121 -66.5t-50 -187.5v-182h-84z" />
    <glyph glyph-name="uni0156" unicode="&#x156;" 
d="M80 0v700h245q96 0 151 -47t55 -138q0 -149 -146 -179l209 -336h-104l-205 330h-117v-330h-88zM168 414h159q113 0 113 101t-113 101h-159v-202zM224 -224l42 172h109l-104 -172h-47z" />
    <glyph glyph-name="uni0157" unicode="&#x157;" 
d="M92 0v504h84v-93q65 101 186 101q75 0 118.5 -43.5t47.5 -124.5h-84q-11 92 -97 92q-71 0 -121 -66.5t-50 -187.5v-182h-84zM38 -224l42 172h109l-104 -172h-47z" />
    <glyph glyph-name="Rcaron" unicode="&#x158;" 
d="M247 756l-154 152h91l76 -75l76 75h91l-154 -152h-26zM80 0v700h245q96 0 151 -47t55 -138q0 -149 -146 -179l209 -336h-104l-205 330h-117v-330h-88zM168 414h159q113 0 113 101t-113 101h-159v-202z" />
    <glyph glyph-name="rcaron" unicode="&#x159;" 
d="M324 560l-154 152h91l76 -75l76 75h91l-154 -152h-26zM92 0v504h84v-93q65 101 186 101q75 0 118.5 -43.5t47.5 -124.5h-84q-11 92 -97 92q-71 0 -121 -66.5t-50 -187.5v-182h-84z" />
    <glyph glyph-name="Sacute" unicode="&#x15a;" 
d="M277 756l67 144h121l-122 -144h-66zM320 -8q-101 0 -171 53.5t-90 154.5l82 32q41 -156 179 -156q56 0 97.5 31t41.5 82q0 53 -35.5 80t-118.5 48q-90 23 -146 69.5t-56 134.5q0 80 57.5 133.5t156.5 53.5q85 0 140 -43t79 -107l-77 -39q-46 105 -142 105
q-58 0 -92 -28.5t-34 -79.5t38.5 -74t123.5 -45q45 -12 76 -25t60 -35t43.5 -56t14.5 -80q0 -99 -66 -154t-161 -55z" />
    <glyph glyph-name="sacute" unicode="&#x15b;" 
d="M275 560l67 144h121l-122 -144h-66zM322 -8q-78 0 -137 38t-82 108l80 30q13 -48 50 -74t89 -26q48 0 77.5 18.5t29.5 53.5q0 34 -28 50t-102 30q-35 7 -61.5 16t-51 25.5t-37.5 42.5t-13 62q0 66 50 106t122 40q129 0 187 -112l-69 -44q-44 80 -121 80
q-36 0 -61.5 -16.5t-25.5 -50.5q0 -31 28.5 -48.5t88.5 -29.5q41 -8 69 -17t56 -25t42 -41.5t14 -60.5q0 -70 -56.5 -112.5t-137.5 -42.5z" />
    <glyph glyph-name="Scircumflex" unicode="&#x15c;" 
d="M143 756l154 152h26l154 -152h-91l-76 75l-76 -75h-91zM320 -8q-101 0 -171 53.5t-90 154.5l82 32q41 -156 179 -156q56 0 97.5 31t41.5 82q0 53 -35.5 80t-118.5 48q-90 23 -146 69.5t-56 134.5q0 80 57.5 133.5t156.5 53.5q85 0 140 -43t79 -107l-77 -39
q-46 105 -142 105q-58 0 -92 -28.5t-34 -79.5t38.5 -74t123.5 -45q45 -12 76 -25t60 -35t43.5 -56t14.5 -80q0 -99 -66 -154t-161 -55z" />
    <glyph glyph-name="scircumflex" unicode="&#x15d;" 
d="M143 560l154 152h26l154 -152h-91l-76 75l-76 -75h-91zM322 -8q-78 0 -137 38t-82 108l80 30q13 -48 50 -74t89 -26q48 0 77.5 18.5t29.5 53.5q0 34 -28 50t-102 30q-35 7 -61.5 16t-51 25.5t-37.5 42.5t-13 62q0 66 50 106t122 40q129 0 187 -112l-69 -44
q-44 80 -121 80q-36 0 -61.5 -16.5t-25.5 -50.5q0 -31 28.5 -48.5t88.5 -29.5q41 -8 69 -17t56 -25t42 -41.5t14 -60.5q0 -70 -56.5 -112.5t-137.5 -42.5z" />
    <glyph glyph-name="Scedilla" unicode="&#x15e;" 
d="M320 -8q-101 0 -171 53.5t-90 154.5l82 32q41 -156 179 -156q56 0 97.5 31t41.5 82q0 53 -35.5 80t-118.5 48q-90 23 -146 69.5t-56 134.5q0 80 57.5 133.5t156.5 53.5q85 0 140 -43t79 -107l-77 -39q-46 105 -142 105q-58 0 -92 -28.5t-34 -79.5t38.5 -74t123.5 -45
q45 -12 76 -25t60 -35t43.5 -56t14.5 -80q0 -99 -66 -154t-161 -55zM262 -235l-95 45l108 130h70z" />
    <glyph glyph-name="scedilla" unicode="&#x15f;" 
d="M322 -8q-78 0 -137 38t-82 108l80 30q13 -48 50 -74t89 -26q48 0 77.5 18.5t29.5 53.5q0 34 -28 50t-102 30q-35 7 -61.5 16t-51 25.5t-37.5 42.5t-13 62q0 66 50 106t122 40q129 0 187 -112l-69 -44q-44 80 -121 80q-36 0 -61.5 -16.5t-25.5 -50.5q0 -31 28.5 -48.5
t88.5 -29.5q41 -8 69 -17t56 -25t42 -41.5t14 -60.5q0 -70 -56.5 -112.5t-137.5 -42.5zM262 -235l-95 45l108 130h70z" />
    <glyph glyph-name="Scaron" unicode="&#x160;" 
d="M297 756l-154 152h91l76 -75l76 75h91l-154 -152h-26zM320 -8q-101 0 -171 53.5t-90 154.5l82 32q41 -156 179 -156q56 0 97.5 31t41.5 82q0 53 -35.5 80t-118.5 48q-90 23 -146 69.5t-56 134.5q0 80 57.5 133.5t156.5 53.5q85 0 140 -43t79 -107l-77 -39
q-46 105 -142 105q-58 0 -92 -28.5t-34 -79.5t38.5 -74t123.5 -45q45 -12 76 -25t60 -35t43.5 -56t14.5 -80q0 -99 -66 -154t-161 -55z" />
    <glyph glyph-name="scaron" unicode="&#x161;" 
d="M297 560l-154 152h91l76 -75l76 75h91l-154 -152h-26zM322 -8q-78 0 -137 38t-82 108l80 30q13 -48 50 -74t89 -26q48 0 77.5 18.5t29.5 53.5q0 34 -28 50t-102 30q-35 7 -61.5 16t-51 25.5t-37.5 42.5t-13 62q0 66 50 106t122 40q129 0 187 -112l-69 -44q-44 80 -121 80
q-36 0 -61.5 -16.5t-25.5 -50.5q0 -31 28.5 -48.5t88.5 -29.5q41 -8 69 -17t56 -25t42 -41.5t14 -60.5q0 -70 -56.5 -112.5t-137.5 -42.5z" />
    <glyph glyph-name="uni0162" unicode="&#x162;" 
d="M266 0v616h-218v84h524v-84h-218v-616h-88zM262 -235l-95 45l108 130h70z" />
    <glyph glyph-name="uni0163" unicode="&#x163;" 
d="M371 -8q-83 0 -127 44t-44 131v261h-134v76h134v151l84 53v-204h176v-76h-176v-258q0 -102 87 -102q67 0 124 60l31 -71q-65 -65 -155 -65zM312 -235l-95 45l108 130h70z" />
    <glyph glyph-name="Tcaron" unicode="&#x164;" 
d="M297 756l-154 152h91l76 -75l76 75h91l-154 -152h-26zM266 0v616h-218v84h524v-84h-218v-616h-88z" />
    <glyph glyph-name="tcaron" unicode="&#x165;" 
d="M404 542l24 174h104l-72 -174h-56zM371 -8q-83 0 -127 44t-44 131v261h-134v76h134v151l84 53v-204h176v-76h-176v-258q0 -102 87 -102q67 0 124 60l31 -71q-65 -65 -155 -65z" />
    <glyph glyph-name="Tbar" unicode="&#x166;" 
d="M572 616h-218v-228h127v-76h-127v-312h-88v312h-126v76h126v228h-218v84h524v-84z" />
    <glyph glyph-name="tbar" unicode="&#x167;" 
d="M371 -8q-83 0 -127 44t-44 131v92h-89v68h89v101h-134v76h134v151l84 53v-204h176v-76h-176v-101h144v-68h-144v-89q0 -102 87 -102q67 0 124 60l31 -71q-65 -65 -155 -65z" />
    <glyph glyph-name="Utilde" unicode="&#x168;" 
d="M379 774q-36 0 -72 20t-59 20q-37 0 -66 -36l-49 38q18 34 46.5 55t60.5 21q36 0 72 -20t59 -20q37 0 66 36l49 -39q-18 -33 -46.5 -54t-60.5 -21zM310 -8q-108 0 -178 67t-70 184v457h88v-463q0 -72 42 -116.5t118 -44.5t118 44.5t42 116.5v463h88v-457q0 -117 -70 -184
t-178 -67z" />
    <glyph glyph-name="utilde" unicode="&#x169;" 
d="M371 578q-36 0 -72 20t-59 20q-37 0 -66 -36l-49 38q18 34 46.5 55t60.5 21q36 0 72 -20t59 -20q37 0 66 36l49 -39q-18 -33 -46.5 -54t-60.5 -21zM259 -8q-77 0 -115.5 43t-38.5 118v351h84v-333q0 -103 93 -103q62 0 105 63.5t43 169.5v203h84v-504h-84v93
q-28 -45 -73.5 -73t-97.5 -28z" />
    <glyph glyph-name="Umacron" unicode="&#x16a;" 
d="M182 796v74h254v-74h-254zM310 -8q-108 0 -178 67t-70 184v457h88v-463q0 -72 42 -116.5t118 -44.5t118 44.5t42 116.5v463h88v-457q0 -117 -70 -184t-178 -67z" />
    <glyph glyph-name="umacron" unicode="&#x16b;" 
d="M174 600v74h254v-74h-254zM259 -8q-77 0 -115.5 43t-38.5 118v351h84v-333q0 -103 93 -103q62 0 105 63.5t43 169.5v203h84v-504h-84v93q-28 -45 -73.5 -73t-97.5 -28z" />
    <glyph glyph-name="Ubreve" unicode="&#x16c;" 
d="M310 787q-47 0 -79 31.5t-32 77.5h67q0 -20 12.5 -32.5t31.5 -12.5q20 0 32 12.5t12 32.5h67q0 -46 -31.5 -77.5t-79.5 -31.5zM310 -8q-108 0 -178 67t-70 184v457h88v-463q0 -72 42 -116.5t118 -44.5t118 44.5t42 116.5v463h88v-457q0 -117 -70 -184t-178 -67z" />
    <glyph glyph-name="ubreve" unicode="&#x16d;" 
d="M302 591q-47 0 -79 31.5t-32 77.5h67q0 -20 12.5 -32.5t31.5 -12.5q20 0 32 12.5t12 32.5h67q0 -46 -31.5 -77.5t-79.5 -31.5zM259 -8q-77 0 -115.5 43t-38.5 118v351h84v-333q0 -103 93 -103q62 0 105 63.5t43 169.5v203h84v-504h-84v93q-28 -45 -73.5 -73t-97.5 -28z
" />
    <glyph glyph-name="Uring" unicode="&#x16e;" 
d="M310 753q-42 0 -70.5 27.5t-28.5 68.5q0 42 28.5 71t70.5 29q43 0 71 -29t28 -71q0 -41 -28 -68.5t-71 -27.5zM310 806q19 0 31 12.5t12 31.5q0 20 -12 33t-31 13t-31 -13t-12 -33q0 -19 12 -31.5t31 -12.5zM310 -8q-108 0 -178 67t-70 184v457h88v-463q0 -72 42 -116.5
t118 -44.5t118 44.5t42 116.5v463h88v-457q0 -117 -70 -184t-178 -67z" />
    <glyph glyph-name="uring" unicode="&#x16f;" 
d="M302 557q-42 0 -70.5 27.5t-28.5 68.5q0 42 28.5 71t70.5 29q43 0 71 -29t28 -71q0 -41 -28 -68.5t-71 -27.5zM302 610q19 0 31 12.5t12 31.5q0 20 -12 33t-31 13t-31 -13t-12 -33q0 -19 12 -31.5t31 -12.5zM259 -8q-77 0 -115.5 43t-38.5 118v351h84v-333
q0 -103 93 -103q62 0 105 63.5t43 169.5v203h84v-504h-84v93q-28 -45 -73.5 -73t-97.5 -28z" />
    <glyph glyph-name="Uhungarumlaut" unicode="&#x170;" 
d="M164 756l68 144h121l-121 -144h-68zM354 756l68 144h121l-121 -144h-68zM310 -8q-108 0 -178 67t-70 184v457h88v-463q0 -72 42 -116.5t118 -44.5t118 44.5t42 116.5v463h88v-457q0 -117 -70 -184t-178 -67z" />
    <glyph glyph-name="uhungarumlaut" unicode="&#x171;" 
d="M143 560l68 144h121l-121 -144h-68zM333 560l68 144h121l-121 -144h-68zM259 -8q-77 0 -115.5 43t-38.5 118v351h84v-333q0 -103 93 -103q62 0 105 63.5t43 169.5v203h84v-504h-84v93q-28 -45 -73.5 -73t-97.5 -28z" />
    <glyph glyph-name="Uogonek" unicode="&#x172;" 
d="M470 700h88v-457q0 -97 -49.5 -160.5t-130.5 -82.5q-62 -52 -62 -84t33 -32q19 0 37 15l17 -66q-28 -17 -65 -17q-43 0 -69 23.5t-26 63.5q0 48 50 89q-102 5 -166.5 72t-64.5 179v457h88v-463q0 -72 42 -116.5t118 -44.5t118 44.5t42 116.5v463z" />
    <glyph glyph-name="uogonek" unicode="&#x173;" 
d="M522 -101l17 -66q-28 -17 -65 -17q-43 0 -69 23.5t-26 63.5q0 53 60 97h-9v93q-28 -45 -73.5 -73t-97.5 -28q-77 0 -115.5 43t-38.5 118v351h84v-333q0 -103 93 -103q62 0 105 63.5t43 169.5v203h84v-504q-62 -52 -62 -84t33 -32q19 0 37 15z" />
    <glyph glyph-name="Wcircumflex" unicode="&#x174;" 
d="M143 756l154 152h26l154 -152h-91l-76 75l-76 -75h-91zM98 0l-67 700h91l42 -570l106 427h80l106 -427l42 570h91l-67 -700h-109l-103 411l-103 -411h-109z" />
    <glyph glyph-name="wcircumflex" unicode="&#x175;" 
d="M143 560l154 152h26l154 -152h-91l-76 75l-76 -75h-91zM137 0l-110 504h86l69 -373l86 323h84l86 -323l69 373h86l-110 -504h-76l-97 354l-97 -354h-76z" />
    <glyph glyph-name="Ycircumflex" unicode="&#x176;" 
d="M143 756l154 152h26l154 -152h-91l-76 75l-76 -75h-91zM266 0v276l-225 424h97l172 -336l172 336h97l-225 -424v-276h-88z" />
    <glyph glyph-name="ycircumflex" unicode="&#x177;" 
d="M154 560l154 152h26l154 -152h-91l-76 75l-76 -75h-91zM178 -204l98 238l-218 470h94l169 -369l149 369h91l-299 -708h-84z" />
    <glyph glyph-name="Ydieresis" unicode="&#x178;" 
d="M218 782q-24 0 -40.5 16.5t-16.5 40.5t16.5 40.5t40.5 16.5t40.5 -16.5t16.5 -40.5t-16.5 -40.5t-40.5 -16.5zM402 782q-24 0 -40.5 16.5t-16.5 40.5t16.5 40.5t40.5 16.5t40.5 -16.5t16.5 -40.5t-16.5 -40.5t-40.5 -16.5zM266 0v276l-225 424h97l172 -336l172 336h97
l-225 -424v-276h-88z" />
    <glyph glyph-name="Zacute" unicode="&#x179;" 
d="M277 756l67 144h121l-122 -144h-66zM73 0v42l343 574h-329v84h456v-42l-343 -574h354v-84h-481z" />
    <glyph glyph-name="zacute" unicode="&#x17a;" 
d="M274 560l67 144h121l-122 -144h-66zM109 0v36l264 392h-251v76h378v-36l-267 -392h279v-76h-403z" />
    <glyph glyph-name="Zdotaccent" unicode="&#x17b;" 
d="M309 776q-29 0 -49 20t-20 48q0 29 20 49.5t49 20.5t49 -20.5t20 -49.5t-20 -48.5t-49 -19.5zM73 0v42l343 574h-329v84h456v-42l-343 -574h354v-84h-481z" />
    <glyph glyph-name="zdotaccent" unicode="&#x17c;" 
d="M309 570q-29 0 -49 20t-20 48q0 29 20 49.5t49 20.5t49 -20.5t20 -49.5t-20 -48.5t-49 -19.5zM109 0v36l264 392h-251v76h378v-36l-267 -392h279v-76h-403z" />
    <glyph glyph-name="Zcaron" unicode="&#x17d;" 
d="M297 756l-154 152h91l76 -75l76 75h91l-154 -152h-26zM73 0v42l343 574h-329v84h456v-42l-343 -574h354v-84h-481z" />
    <glyph glyph-name="zcaron" unicode="&#x17e;" 
d="M296 560l-154 152h91l76 -75l76 75h91l-154 -152h-26zM109 0v36l264 392h-251v76h378v-36l-267 -392h279v-76h-403z" />
    <glyph glyph-name="florin" unicode="&#x192;" 
d="M114 -212q-64 0 -106 29l36 74q32 -27 75 -27q74 0 93 95l91 469h-142l15 76h142l6 31q19 95 63.5 134t118.5 39q64 0 106 -29l-36 -74q-32 27 -75 27q-74 0 -93 -95l-6 -33h196l-15 -76h-196l-91 -467q-19 -95 -63.5 -134t-118.5 -39z" />
    <glyph glyph-name="uni01B5" unicode="&#x1b5;" 
d="M73 0v42l168 281h-134v76h179l130 217h-329v84h456v-42l-155 -259h126v-76h-172l-142 -239h354v-84h-481z" />
    <glyph glyph-name="uni01B6" unicode="&#x1b6;" 
d="M108 0v36l130 194h-93v68h139l88 130h-251v76h378v-36l-116 -170h93v-68h-140l-104 -154h279v-76h-403z" />
    <glyph glyph-name="Aringacute" unicode="&#x1fa;" 
d="M277 975l67 144h121l-122 -144h-66zM310 753q-42 0 -70.5 27.5t-28.5 68.5q0 42 28.5 71t70.5 29q43 0 71 -29t28 -71q0 -41 -28 -68.5t-71 -27.5zM310 806q19 0 31 12.5t12 31.5q0 20 -12 33t-31 13t-31 -13t-12 -33q0 -19 12 -31.5t31 -12.5zM19 0l249 700h84l249 -700
h-91l-63 187h-274l-63 -187h-91zM202 271h216l-108 315z" />
    <glyph glyph-name="aringacute" unicode="&#x1fb;" 
d="M282 795l67 144h121l-122 -144h-66zM317 557q-42 0 -70.5 27.5t-28.5 68.5q0 42 28.5 71t70.5 29q43 0 71 -29t28 -71q0 -41 -28 -68.5t-71 -27.5zM317 610q19 0 31 12.5t12 31.5q0 20 -12 33t-31 13t-31 -13t-12 -33q0 -19 12 -31.5t31 -12.5zM259 -8q-67 0 -111.5 39.5
t-44.5 113.5q0 82 60.5 123.5t167.5 41.5h102v22q0 55 -32.5 79.5t-83.5 24.5q-43 0 -75 -24t-44 -62l-74 20q17 65 70 103.5t123 38.5q93 0 146.5 -47t53.5 -147v-318h-68l-12 71q-24 -35 -73 -57t-105 -22zM272 68q60 0 110.5 38.5t50.5 115.5v16h-110q-64 0 -99 -25
t-35 -68q0 -36 22.5 -56.5t60.5 -20.5z" />
    <glyph glyph-name="AEacute" unicode="&#x1fc;" 
d="M387 756l67 144h121l-122 -144h-66zM-11 0l194 700h392v-84h-206v-201h166v-84h-166v-247h216v-84h-304v187h-152l-52 -187h-88zM149 271h132v345h-39z" />
    <glyph glyph-name="aeacute" unicode="&#x1fd;" 
d="M295 560l67 144h121l-122 -144h-66zM181 -8q-65 0 -105 40t-40 112q0 80 52 123t136 43h55v32q0 42 -18 68t-50 26q-64 0 -80 -86l-74 20q8 60 50 101t103 41q89 0 117 -76q19 35 52 55.5t71 20.5q75 0 116 -59.5t41 -168.5v-50h-242q0 -79 20.5 -122.5t58.5 -43.5
q32 0 51.5 23.5t33.5 75.5l72 -21q-23 -78 -59.5 -116t-97.5 -38q-44 0 -75 24.5t-44 65.5q-40 -90 -144 -90zM365 310h158q0 55 -21 90.5t-58 35.5q-34 0 -56.5 -34.5t-22.5 -91.5zM189 68q46 0 68 37.5t22 93.5v39h-44q-55 0 -84 -23.5t-29 -67.5q0 -36 18 -57.5t49 -21.5
z" />
    <glyph glyph-name="uni0218" unicode="&#x218;" 
d="M320 -8q-101 0 -171 53.5t-90 154.5l82 32q41 -156 179 -156q56 0 97.5 31t41.5 82q0 53 -35.5 80t-118.5 48q-90 23 -146 69.5t-56 134.5q0 80 57.5 133.5t156.5 53.5q85 0 140 -43t79 -107l-77 -39q-46 105 -142 105q-58 0 -92 -28.5t-34 -79.5t38.5 -74t123.5 -45
q45 -12 76 -25t60 -35t43.5 -56t14.5 -80q0 -99 -66 -154t-161 -55zM214 -224l42 172h109l-104 -172h-47z" />
    <glyph glyph-name="uni0219" unicode="&#x219;" 
d="M322 -8q-78 0 -137 38t-82 108l80 30q13 -48 50 -74t89 -26q48 0 77.5 18.5t29.5 53.5q0 34 -28 50t-102 30q-35 7 -61.5 16t-51 25.5t-37.5 42.5t-13 62q0 66 50 106t122 40q129 0 187 -112l-69 -44q-44 80 -121 80q-36 0 -61.5 -16.5t-25.5 -50.5q0 -31 28.5 -48.5
t88.5 -29.5q41 -8 69 -17t56 -25t42 -41.5t14 -60.5q0 -70 -56.5 -112.5t-137.5 -42.5zM214 -224l42 172h109l-104 -172h-47z" />
    <glyph glyph-name="uni021A" unicode="&#x21a;" 
d="M266 0v616h-218v84h524v-84h-218v-616h-88zM214 -224l42 172h109l-104 -172h-47z" />
    <glyph glyph-name="uni021B" unicode="&#x21b;" 
d="M371 -8q-83 0 -127 44t-44 131v261h-134v76h134v151l84 53v-204h176v-76h-176v-258q0 -102 87 -102q67 0 124 60l31 -71q-65 -65 -155 -65zM264 -224l42 172h109l-104 -172h-47z" />
    <glyph glyph-name="uni0237" unicode="&#x237;" 
d="M201 -212l-28 80q72 24 103.5 66t31.5 116v380h-198v74h282v-476q0 -101 -55.5 -160.5t-135.5 -79.5z" />
    <glyph glyph-name="circumflex" unicode="&#x2c6;" 
d="M143 560l154 152h26l154 -152h-91l-76 75l-76 -75h-91z" />
    <glyph glyph-name="caron" unicode="&#x2c7;" 
d="M297 560l-154 152h91l76 -75l76 75h91l-154 -152h-26z" />
    <glyph glyph-name="uni02C9" unicode="&#x2c9;" 
d="M183 600v74h254v-74h-254z" />
    <glyph glyph-name="breve" unicode="&#x2d8;" 
d="M310 591q-47 0 -79 31.5t-32 77.5h67q0 -20 12.5 -32.5t31.5 -12.5q20 0 32 12.5t12 32.5h67q0 -46 -31.5 -77.5t-79.5 -31.5z" />
    <glyph glyph-name="dotaccent" unicode="&#x2d9;" 
d="M310 570q-29 0 -49 20t-20 48q0 29 20 49.5t49 20.5t49 -20.5t20 -49.5t-20 -48.5t-49 -19.5z" />
    <glyph glyph-name="ring" unicode="&#x2da;" 
d="M310 557q-42 0 -70.5 27.5t-28.5 68.5q0 42 28.5 71t70.5 29q43 0 71 -29t28 -71q0 -41 -28 -68.5t-71 -27.5zM310 610q19 0 31 12.5t12 31.5q0 20 -12 33t-31 13t-31 -13t-12 -33q0 -19 12 -31.5t31 -12.5z" />
    <glyph glyph-name="ogonek" unicode="&#x2db;" 
d="M325 -184q-43 0 -69 23.5t-26 63.5q0 53 60 97h75q-62 -52 -62 -84t33 -32q19 0 37 15l17 -66q-28 -17 -65 -17z" />
    <glyph glyph-name="tilde" unicode="&#x2dc;" 
d="M379 578q-36 0 -72 20t-59 20q-37 0 -66 -36l-49 38q18 34 46.5 55t60.5 21q36 0 72 -20t59 -20q37 0 66 36l49 -39q-18 -33 -46.5 -54t-60.5 -21z" />
    <glyph glyph-name="hungarumlaut" unicode="&#x2dd;" 
d="M120 560l68 144h121l-121 -144h-68zM310 560l68 144h121l-121 -144h-68z" />
    <glyph glyph-name="gravecomb" unicode="&#x300;" horiz-adv-x="0" 
d="M-282 560l-122 144h121l67 -144h-66z" />
    <glyph glyph-name="acutecomb" unicode="&#x301;" horiz-adv-x="0" 
d="M-404 560l67 144h121l-122 -144h-66z" />
    <glyph glyph-name="uni0302" unicode="&#x302;" horiz-adv-x="0" 
d="M-477 560l154 152h26l154 -152h-91l-76 75l-76 -75h-91z" />
    <glyph glyph-name="tildecomb" unicode="&#x303;" horiz-adv-x="0" 
d="M-241 578q-36 0 -72 20t-59 20q-37 0 -66 -36l-49 38q18 34 46.5 55t60.5 21q36 0 72 -20t59 -20q37 0 66 36l49 -39q-18 -33 -46.5 -54t-60.5 -21z" />
    <glyph glyph-name="uni0304" unicode="&#x304;" horiz-adv-x="0" 
d="M-437 600v74h254v-74h-254z" />
    <glyph glyph-name="uni0306" unicode="&#x306;" horiz-adv-x="0" 
d="M-310 591q-47 0 -79 31.5t-32 77.5h67q0 -20 12.5 -32.5t31.5 -12.5q20 0 32 12.5t12 32.5h67q0 -46 -31.5 -77.5t-79.5 -31.5z" />
    <glyph glyph-name="uni0307" unicode="&#x307;" horiz-adv-x="0" 
d="M-310 570q-29 0 -49 20t-20 48q0 29 20 49.5t49 20.5t49 -20.5t20 -49.5t-20 -48.5t-49 -19.5z" />
    <glyph glyph-name="uni0308" unicode="&#x308;" horiz-adv-x="0" 
d="M-402 586q-24 0 -40.5 16.5t-16.5 40.5t16.5 40.5t40.5 16.5t40.5 -16.5t16.5 -40.5t-16.5 -40.5t-40.5 -16.5zM-218 586q-24 0 -40.5 16.5t-16.5 40.5t16.5 40.5t40.5 16.5t40.5 -16.5t16.5 -40.5t-16.5 -40.5t-40.5 -16.5z" />
    <glyph glyph-name="uni030A" unicode="&#x30a;" horiz-adv-x="0" 
d="M-310 557q-42 0 -70.5 27.5t-28.5 68.5q0 42 28.5 71t70.5 29q43 0 71 -29t28 -71q0 -41 -28 -68.5t-71 -27.5zM-310 610q19 0 31 12.5t12 31.5q0 20 -12 33t-31 13t-31 -13t-12 -33q0 -19 12 -31.5t31 -12.5z" />
    <glyph glyph-name="uni030B" unicode="&#x30b;" horiz-adv-x="0" 
d="M-499 560l68 144h121l-121 -144h-68zM-309 560l68 144h121l-121 -144h-68z" />
    <glyph glyph-name="uni030C" unicode="&#x30c;" horiz-adv-x="0" 
d="M-323 560l-154 152h91l76 -75l76 75h91l-154 -152h-26z" />
    <glyph glyph-name="uni0312" unicode="&#x312;" horiz-adv-x="0" 
d="M-382 586l87 152h57l-42 -152h-102z" />
    <glyph glyph-name="uni0326" unicode="&#x326;" horiz-adv-x="0" 
d="M-386 -224l42 172h109l-104 -172h-47z" />
    <glyph glyph-name="uni0327" unicode="&#x327;" horiz-adv-x="0" 
d="M-304 -235l-95 45l108 130h70z" />
    <glyph glyph-name="uni0328" unicode="&#x328;" horiz-adv-x="0" 
d="M-295 -184q-43 0 -69 23.5t-26 63.5q0 53 60 97h75q-62 -52 -62 -84t33 -32q19 0 37 15l17 -66q-28 -17 -65 -17z" />
    <glyph glyph-name="uni0335" unicode="&#x335;" horiz-adv-x="0" 
d="M-451 316v68h282v-68h-282z" />
    <glyph glyph-name="uni0336" unicode="&#x336;" horiz-adv-x="0" 
d="M-590 313v74h560v-74h-560z" />
    <glyph glyph-name="uni0337" unicode="&#x337;" horiz-adv-x="0" 
d="M-419 263l-35 63l253 140l36 -63z" />
    <glyph glyph-name="uni0338" unicode="&#x338;" horiz-adv-x="0" 
d="M-496 -44l-59 44l431 548l59 -44z" />
    <glyph glyph-name="uni037E" unicode="&#x37e;" 
d="M310 354q-27 0 -44.5 17.5t-17.5 44.5t17.5 44.5t44.5 17.5t44.5 -17.5t17.5 -44.5t-17.5 -44.5t-44.5 -17.5zM200 -103l58 210h117l-116 -210h-59z" />
    <glyph glyph-name="tonos" unicode="&#x384;" 
d="M216 560l43 143h121l-96 -143h-68z" />
    <glyph glyph-name="dieresistonos" unicode="&#x385;" 
d="M241 560l43 143h108l-92 -143h-59zM172 575q-23 0 -39.5 16t-16.5 40t16.5 40.5t39.5 16.5q25 0 41 -16.5t16 -40.5t-16 -40t-41 -16zM447 575q-23 0 -39.5 16t-16.5 40t16.5 40.5t39.5 16.5q25 0 41 -16.5t16 -40.5t-16 -40t-41 -16z" />
    <glyph glyph-name="Alphatonos" unicode="&#x386;" 
d="M15 556l67 144h121l-122 -144h-66zM19 0l249 700h84l249 -700h-91l-63 187h-274l-63 -187h-91zM202 271h216l-108 315z" />
    <glyph glyph-name="anoteleia" unicode="&#x387;" 
d="M310 289q-27 0 -44.5 17.5t-17.5 44.5t17.5 44.5t44.5 17.5t44.5 -17.5t17.5 -44.5t-17.5 -44.5t-44.5 -17.5z" />
    <glyph glyph-name="Epsilontonos" unicode="&#x388;" 
d="M6 556l67 144h121l-122 -144h-66zM221 0v700h368v-84h-280v-201h230v-84h-230v-247h290v-84h-378z" />
    <glyph glyph-name="Etatonos" unicode="&#x389;" 
d="M-21 556l67 144h121l-122 -144h-66zM191 0v700h88v-286h218v286h88v-700h-88v330h-218v-330h-88z" />
    <glyph glyph-name="Iotatonos" unicode="&#x38a;" 
d="M16 556l67 144h121l-122 -144h-66zM237 0v76h139v548h-139v76h366v-76h-139v-548h139v-76h-366z" />
    <glyph glyph-name="Omicrontonos" unicode="&#x38c;" 
d="M359 -8q-105 0 -173.5 93t-68.5 265t68.5 265t173.5 93t173.5 -93t68.5 -265t-68.5 -265t-173.5 -93zM0 556l67 144h121l-122 -144h-66zM359 76q67 0 109 67t42 207t-42 207t-109 67t-109 -67t-42 -207t42 -207t109 -67z" />
    <glyph glyph-name="Upsilontonos" unicode="&#x38e;" 
d="M-25 556l67 144h121l-122 -144h-66zM346 0v276l-165 424h97l112 -326l112 326h97l-165 -424v-276h-88z" />
    <glyph glyph-name="Omegatonos" unicode="&#x38f;" 
d="M88 0v78h134q-54 59 -92.5 150t-38.5 180q0 140 71.5 220t187.5 80t187 -80t71 -220q0 -89 -38.5 -180t-92.5 -150h134v-78h-233v78q72 66 106.5 152t34.5 174q0 110 -48.5 166.5t-120.5 56.5q-73 0 -121 -56.5t-48 -166.5q0 -88 34.5 -174t105.5 -152v-78h-233zM-10 556
l67 144h121l-122 -144h-66z" />
    <glyph glyph-name="iotadieresistonos" unicode="&#x390;" 
d="M271 560l43 143h108l-92 -143h-59zM202 575q-23 0 -39.5 16t-16.5 40t16.5 40.5t39.5 16.5q25 0 41 -16.5t16 -40.5t-16 -40t-41 -16zM477 575q-23 0 -39.5 16t-16.5 40t16.5 40.5t39.5 16.5q25 0 41 -16.5t16 -40.5t-16 -40t-41 -16zM88 0v74h174v356h-154v74h238v-430
h186v-74h-444z" />
    <glyph glyph-name="Alpha" unicode="&#x391;" 
d="M19 0l249 700h84l249 -700h-91l-63 187h-274l-63 -187h-91zM202 271h216l-108 315z" />
    <glyph glyph-name="Beta" unicode="&#x392;" 
d="M96 0v700h246q94 0 146.5 -47t52.5 -133q0 -45 -22.5 -81.5t-57.5 -55.5q52 -21 83.5 -66.5t31.5 -108.5q0 -97 -58 -152.5t-160 -55.5h-262zM184 415h156q51 0 80.5 25.5t29.5 74.5q0 50 -30 75.5t-80 25.5h-156v-201zM184 84h161q140 0 140 124q0 123 -140 123h-161
v-247z" />
    <glyph glyph-name="Gamma" unicode="&#x393;" 
d="M118 0v700h427v-84h-339v-616h-88z" />
    <glyph glyph-name="uni0394" unicode="&#x394;" 
d="M352 700l249 -700h-582l249 700h84zM139 84h342l-171 502z" />
    <glyph glyph-name="Epsilon" unicode="&#x395;" 
d="M91 0v700h444v-84h-356v-201h306v-84h-306v-247h366v-84h-454z" />
    <glyph glyph-name="Zeta" unicode="&#x396;" 
d="M73 0v42l343 574h-329v84h456v-42l-343 -574h354v-84h-481z" />
    <glyph glyph-name="Eta" unicode="&#x397;" 
d="M68 0v700h88v-286h308v286h88v-700h-88v330h-308v-330h-88z" />
    <glyph glyph-name="Theta" unicode="&#x398;" 
d="M310 -8q-120 0 -196 92.5t-76 265.5t76 265.5t196 92.5t196 -92.5t76 -265.5t-76 -265.5t-196 -92.5zM310 76q83 0 132 66.5t49 207.5t-49 207.5t-132 66.5t-132 -66.5t-49 -207.5t49 -207.5t132 -66.5zM185 312v76h249v-76h-249z" />
    <glyph glyph-name="Iota" unicode="&#x399;" 
d="M97 0v76h169v548h-169v76h426v-76h-169v-548h169v-76h-426z" />
    <glyph glyph-name="Kappa" unicode="&#x39a;" 
d="M63 0v700h88v-281l268 281h115l-302 -315l324 -385h-112l-293 351v-351h-88z" />
    <glyph glyph-name="Lambda" unicode="&#x39b;" 
d="M310 586l-200 -586h-91l249 700h84l249 -700h-91z" />
    <glyph glyph-name="Mu" unicode="&#x39c;" 
d="M67 0v700h94l149 -388l149 388h94v-700h-88v513l-122 -312h-66l-122 312v-513h-88z" />
    <glyph glyph-name="Nu" unicode="&#x39d;" 
d="M71 0v700h96l293 -540v540h88v-700h-96l-293 540v-540h-88z" />
    <glyph glyph-name="Xi" unicode="&#x39e;" 
d="M98 616v84h424v-84h-424zM148 331v84h324v-84h-324zM93 0v84h434v-84h-434z" />
    <glyph glyph-name="Omicron" unicode="&#x39f;" 
d="M310 -8q-120 0 -196 92.5t-76 265.5t76 265.5t196 92.5t196 -92.5t76 -265.5t-76 -265.5t-196 -92.5zM310 76q83 0 132 66.5t49 207.5t-49 207.5t-132 66.5t-132 -66.5t-49 -207.5t49 -207.5t132 -66.5z" />
    <glyph glyph-name="Pi" unicode="&#x3a0;" 
d="M68 0v700h484v-700h-88v616h-308v-616h-88z" />
    <glyph glyph-name="Rho" unicode="&#x3a1;" 
d="M99 0v700h265q100 0 154 -53.5t54 -146.5t-54 -146.5t-154 -53.5h-177v-300h-88zM187 384h175q119 0 119 116t-119 116h-175v-232z" />
    <glyph glyph-name="Sigma" unicode="&#x3a3;" 
d="M95 0v41l206 309l-206 309v41h422v-84h-291l167 -255v-22l-167 -255h299v-84h-430z" />
    <glyph glyph-name="Tau" unicode="&#x3a4;" 
d="M266 0v616h-218v84h524v-84h-218v-616h-88z" />
    <glyph glyph-name="Upsilon" unicode="&#x3a5;" 
d="M266 0v276l-225 424h97l172 -336l172 336h97l-225 -424v-276h-88z" />
    <glyph glyph-name="Phi" unicode="&#x3a6;" 
d="M266 0v73q-103 1 -175 77.5t-72 199.5t72 199.5t175 77.5v73h88v-73q97 -1 172 -78.5t75 -198.5t-75 -198.5t-172 -78.5v-73h-88zM266 154v393q-66 0 -111 -52.5t-45 -144.5q0 -91 45 -143t111 -53zM354 154q61 1 108.5 54t47.5 142t-47.5 143t-108.5 54v-393z" />
    <glyph glyph-name="Chi" unicode="&#x3a7;" 
d="M39 0l221 376l-190 324h101l139 -238l139 238h101l-190 -324l221 -376h-101l-170 290l-170 -290h-101z" />
    <glyph glyph-name="Psi" unicode="&#x3a8;" 
d="M266 0v186q-100 1 -161.5 64.5t-61.5 174.5v275h88v-275q0 -72 37.5 -115t97.5 -43v433h88v-433q63 0 99 43t36 115v275h88v-275q0 -111 -61.5 -174.5t-161.5 -64.5v-186h-88z" />
    <glyph glyph-name="uni03A9" unicode="&#x3a9;" 
d="M50 0v78h134q-54 59 -92.5 150t-38.5 180q0 140 71.5 220t187.5 80t187 -80t71 -220q0 -89 -38.5 -180t-92.5 -150h134v-78h-233v78q72 66 106.5 152t34.5 174q0 110 -48.5 166.5t-120.5 56.5q-73 0 -121 -56.5t-48 -166.5q0 -88 34.5 -174t105.5 -152v-78h-233z" />
    <glyph glyph-name="Iotadieresis" unicode="&#x3aa;" 
d="M218 782q-24 0 -40.5 16.5t-16.5 40.5t16.5 40.5t40.5 16.5t40.5 -16.5t16.5 -40.5t-16.5 -40.5t-40.5 -16.5zM402 782q-24 0 -40.5 16.5t-16.5 40.5t16.5 40.5t40.5 16.5t40.5 -16.5t16.5 -40.5t-16.5 -40.5t-40.5 -16.5zM97 0v76h169v548h-169v76h426v-76h-169v-548
h169v-76h-426z" />
    <glyph glyph-name="Upsilondieresis" unicode="&#x3ab;" 
d="M218 782q-24 0 -40.5 16.5t-16.5 40.5t16.5 40.5t40.5 16.5t40.5 -16.5t16.5 -40.5t-16.5 -40.5t-40.5 -16.5zM402 782q-24 0 -40.5 16.5t-16.5 40.5t16.5 40.5t40.5 16.5t40.5 -16.5t16.5 -40.5t-16.5 -40.5t-40.5 -16.5zM266 0v276l-225 424h97l172 -336l172 336h97
l-225 -424v-276h-88z" />
    <glyph glyph-name="alphatonos" unicode="&#x3ac;" 
d="M281 560l43 143h121l-96 -143h-68zM306 -8q-109 0 -170 71t-61 189t61 189t170 71q50 0 90.5 -20.5t63.5 -51.5v64h84v-504h-84v67q-23 -32 -64 -53.5t-90 -21.5zM314 68q71 0 112 51t41 133t-41 133t-112 51t-112 -51t-41 -133t41 -133t112 -51z" />
    <glyph glyph-name="epsilontonos" unicode="&#x3ad;" 
d="M275 560l43 143h121l-96 -143h-68zM310 -8q-74 0 -124.5 42.5t-50.5 108.5q0 89 89 124q-69 34 -69 111q0 59 42.5 96.5t113.5 37.5q64 0 105 -31.5t52 -86.5l-72 -17q-16 65 -84 65q-36 0 -58.5 -19t-22.5 -51q0 -35 24 -55t65 -20h27v-64h-27q-48 0 -75.5 -22
t-27.5 -64q0 -37 27 -59.5t66 -22.5q80 0 99 82l75 -12q-9 -65 -55 -104t-119 -39z" />
    <glyph glyph-name="etatonos" unicode="&#x3ae;" 
d="M309 560l43 143h121l-96 -143h-68zM106 0v504h84v-93q28 45 73.5 73t97.5 28q77 0 115.5 -43t38.5 -118v-555h-84v537q0 103 -93 103q-62 0 -105 -63.5t-43 -169.5v-203h-84z" />
    <glyph glyph-name="iotatonos" unicode="&#x3af;" 
d="M270 560l43 143h121l-96 -143h-68zM88 0v74h174v356h-154v74h238v-430h186v-74h-444z" />
    <glyph glyph-name="upsilondieresistonos" unicode="&#x3b0;" 
d="M277 560l43 143h108l-92 -143h-59zM208 575q-23 0 -39.5 16t-16.5 40t16.5 40.5t39.5 16.5q25 0 41 -16.5t16 -40.5t-16 -40t-41 -16zM483 575q-23 0 -39.5 16t-16.5 40t16.5 40.5t39.5 16.5q25 0 41 -16.5t16 -40.5t-16 -40t-41 -16zM310 -8q-95 0 -149.5 56t-54.5 164
v292h84v-292q0 -76 32.5 -111t87.5 -35t87.5 35t32.5 111v292h83v-292q0 -108 -54 -164t-149 -56z" />
    <glyph glyph-name="alpha" unicode="&#x3b1;" 
d="M306 -8q-109 0 -170 71t-61 189t61 189t170 71q50 0 90.5 -20.5t63.5 -51.5v64h84v-504h-84v67q-23 -32 -64 -53.5t-90 -21.5zM314 68q71 0 112 51t41 133t-41 133t-112 51t-112 -51t-41 -133t41 -133t112 -51z" />
    <glyph glyph-name="beta" unicode="&#x3b2;" 
d="M97 -204v703q0 99 55.5 154t139.5 55q85 0 135.5 -49t50.5 -127q0 -52 -28 -91t-68 -50q58 -15 99 -63t41 -124q0 -97 -57.5 -154.5t-148.5 -57.5q-44 0 -82 17.5t-55 44.5v-258h-82zM309 66q65 0 97.5 37.5t32.5 99.5q0 69 -42.5 105.5t-112.5 36.5h-33v74h32
q53 0 84 29.5t31 80.5q0 48 -30 76.5t-76 28.5q-52 0 -82.5 -31t-30.5 -96v-298q0 -69 35 -106t95 -37z" />
    <glyph glyph-name="gamma" unicode="&#x3b3;" 
d="M268 -204v213l-174 495h85l131 -389l131 389h84l-175 -495v-213h-82z" />
    <glyph glyph-name="delta" unicode="&#x3b4;" 
d="M310 -8q-110 0 -176 76t-66 184q0 101 60.5 174t156.5 81l-157 121v72h369v-76h-244l180 -139q120 -93 120 -233q0 -107 -66.5 -183.5t-176.5 -76.5zM310 66q73 0 115 55t42 131t-42 131t-115 55t-114.5 -55t-41.5 -131t41.5 -131t114.5 -55z" />
    <glyph glyph-name="epsilon" unicode="&#x3b5;" 
d="M310 -8q-74 0 -124.5 42.5t-50.5 108.5q0 89 89 124q-69 34 -69 111q0 59 42.5 96.5t113.5 37.5q64 0 105 -31.5t52 -86.5l-72 -17q-16 65 -84 65q-36 0 -58.5 -19t-22.5 -51q0 -35 24 -55t65 -20h27v-64h-27q-48 0 -75.5 -22t-27.5 -64q0 -37 27 -59.5t66 -22.5
q80 0 99 82l75 -12q-9 -65 -55 -104t-119 -39z" />
    <glyph glyph-name="zeta" unicode="&#x3b6;" 
d="M348 -212q-107 0 -162 79l52 59q45 -62 110 -62q39 0 63 18.5t24 56.5q0 35 -24.5 56t-74.5 21h-45q-84 0 -138 47.5t-54 135.5q0 56 25.5 105t78.5 106l199 214h-278v76h388v-66l-246 -267q-44 -47 -62.5 -84.5t-18.5 -79.5q0 -111 122 -111h42q79 0 125.5 -42
t46.5 -109q0 -65 -46.5 -109t-126.5 -44z" />
    <glyph glyph-name="eta" unicode="&#x3b7;" 
d="M106 0v504h84v-93q28 45 73.5 73t97.5 28q77 0 115.5 -43t38.5 -118v-555h-84v537q0 103 -93 103q-62 0 -105 -63.5t-43 -169.5v-203h-84z" />
    <glyph glyph-name="theta" unicode="&#x3b8;" 
d="M310 708q120 0 196 -92.5t76 -265.5t-76 -265.5t-196 -92.5t-196 92.5t-76 265.5t76 265.5t196 92.5zM310 624q-77 0 -125.5 -57.5t-54.5 -179.5h360q-6 122 -54.5 179.5t-125.5 57.5zM310 76q77 0 125.5 57.5t54.5 179.5h-360q6 -122 54.5 -179.5t125.5 -57.5z" />
    <glyph glyph-name="iota" unicode="&#x3b9;" 
d="M88 0v74h174v356h-154v74h238v-430h186v-74h-444z" />
    <glyph glyph-name="kappa" unicode="&#x3ba;" 
d="M94 0v504h84v-211l215 211h110l-235 -231l258 -273h-110l-238 253v-253h-84z" />
    <glyph glyph-name="lambda" unicode="&#x3bb;" 
d="M178 708h84l299 -708h-91l-149 369l-169 -369h-94l218 470z" />
    <glyph glyph-name="uni03BC" unicode="&#x3bc;" 
d="M105 -204v708h84v-333q0 -103 93 -103q62 0 105 63.5t43 169.5v203h84v-504h-84v93q-28 -45 -73.5 -73t-97.5 -28q-40 0 -70 12v-208h-84z" />
    <glyph glyph-name="nu" unicode="&#x3bd;" 
d="M268 0l-211 504h91l162 -404l162 404h91l-211 -504h-84z" />
    <glyph glyph-name="xi" unicode="&#x3be;" 
d="M332 -212q-89 0 -142 47l48 74q41 -37 97 -37q40 0 63 18t23 51q0 34 -23.5 54.5t-71.5 20.5h-27q-83 0 -140 53t-57 143q0 66 31 108.5t79 61.5q-90 44 -90 144q0 76 55.5 129t145.5 53q76 0 129 -40.5t65 -117.5l-78 -18q-20 102 -117 102q-49 0 -79 -28t-30 -77
t31 -76.5t88 -27.5h69v-84h-69q-61 0 -100 -31t-39 -92q0 -58 35 -88t90 -30h15q85 0 132 -40t47 -112q0 -73 -48 -116.5t-132 -43.5z" />
    <glyph glyph-name="omicron" unicode="&#x3bf;" 
d="M310 -8q-112 0 -180 76t-68 184t68 184t180 76t180 -76t68 -184t-68 -184t-180 -76zM310 68q74 0 118 54t44 130t-44 130t-118 54t-118 -54t-44 -130t44 -130t118 -54z" />
    <glyph glyph-name="pi" unicode="&#x3c0;" 
d="M122 0v428h-88v76h552v-76h-88v-428h-84v428h-208v-428h-84z" />
    <glyph glyph-name="rho" unicode="&#x3c1;" 
d="M76 -204v453q0 116 60 189.5t178 73.5q109 0 170 -71t61 -189t-61 -189t-170 -71q-50 0 -90.5 20.5t-63.5 51.5v-268h-84zM306 68q71 0 112 51t41 133t-41 133t-112 51t-112 -51t-41 -133t41 -133t112 -51z" />
    <glyph glyph-name="uni03C2" unicode="&#x3c2;" 
d="M361 82q65 0 105.5 -38t40.5 -108q0 -65 -48 -106.5t-127 -41.5q-92 0 -145 47l44 67q42 -38 101 -38q90 0 90 67q0 75 -83 75h-16q-101 0 -167.5 68.5t-66.5 177.5q0 108 60.5 184t169.5 76q159 0 212 -141l-74 -29q-41 94 -138 94q-68 0 -106 -50.5t-38 -129.5
q0 -84 47.5 -129t118.5 -45h20z" />
    <glyph glyph-name="sigma" unicode="&#x3c3;" 
d="M569 504v-76h-83q61 -74 61 -176q0 -108 -68 -184t-180 -76t-180 76t-68 184t68 184t180 76q32 0 66 -8h204zM299 68q74 0 118 54t44 130t-44 130t-118 54t-118 -54t-44 -130t44 -130t118 -54z" />
    <glyph glyph-name="tau" unicode="&#x3c4;" 
d="M268 0v428h-160v76h404v-76h-160v-428h-84z" />
    <glyph glyph-name="upsilon" unicode="&#x3c5;" 
d="M310 -8q-95 0 -149.5 56t-54.5 164v292h84v-292q0 -76 32.5 -111t87.5 -35t87.5 35t32.5 111v292h83v-292q0 -108 -54 -164t-149 -56z" />
    <glyph glyph-name="phi" unicode="&#x3c6;" 
d="M269 -204v196q-107 1 -171.5 75t-64.5 185q0 109 63 182.5t173 77.5v105h82v-105q110 -4 173 -77.5t63 -182.5q0 -111 -64.5 -185t-171.5 -75v-196h-82zM269 66v372q-72 -3 -111 -52t-39 -134q0 -86 39.5 -134.5t110.5 -51.5zM351 66q72 3 111 52t39 134
q0 86 -39.5 134.5t-110.5 51.5v-372z" />
    <glyph glyph-name="chi" unicode="&#x3c7;" 
d="M81 0l183 267l-164 237h99l111 -167l111 167h99l-164 -237l183 -267h-95l-134 198l-134 -198h-95z" />
    <glyph glyph-name="psi" unicode="&#x3c8;" 
d="M268 -204v196q-108 0 -167 62t-59 175v275h84v-277q0 -81 39 -121t103 -40v551h84v-551q64 0 102.5 40t38.5 121v277h85v-275q0 -113 -59 -175t-167 -62v-196h-84z" />
    <glyph glyph-name="omega" unicode="&#x3c9;" 
d="M180 -8q-73 0 -115.5 55t-42.5 168q0 152 106 297l70 -50q-90 -120 -90 -247q0 -79 20.5 -114t61.5 -35q38 0 58.5 34.5t20.5 93.5v180h82v-180q0 -59 20.5 -93.5t59.5 -34.5q40 0 60.5 35t20.5 114q0 127 -90 247l70 50q106 -145 106 -297q0 -113 -42.5 -168t-115.5 -55
q-50 0 -79.5 25t-50.5 74q-21 -49 -50.5 -74t-79.5 -25z" />
    <glyph glyph-name="iotadieresis" unicode="&#x3ca;" 
d="M212 586q-24 0 -40.5 16.5t-16.5 40.5t16.5 40.5t40.5 16.5t40.5 -16.5t16.5 -40.5t-16.5 -40.5t-40.5 -16.5zM396 586q-24 0 -40.5 16.5t-16.5 40.5t16.5 40.5t40.5 16.5t40.5 -16.5t16.5 -40.5t-16.5 -40.5t-40.5 -16.5zM88 0v74h174v356h-154v74h238v-430h186v-74
h-444z" />
    <glyph glyph-name="upsilondieresis" unicode="&#x3cb;" 
d="M218 586q-24 0 -40.5 16.5t-16.5 40.5t16.5 40.5t40.5 16.5t40.5 -16.5t16.5 -40.5t-16.5 -40.5t-40.5 -16.5zM402 586q-24 0 -40.5 16.5t-16.5 40.5t16.5 40.5t40.5 16.5t40.5 -16.5t16.5 -40.5t-16.5 -40.5t-40.5 -16.5zM310 -8q-95 0 -149.5 56t-54.5 164v292h84v-292
q0 -76 32.5 -111t87.5 -35t87.5 35t32.5 111v292h83v-292q0 -108 -54 -164t-149 -56z" />
    <glyph glyph-name="omicrontonos" unicode="&#x3cc;" 
d="M276 560l43 143h121l-96 -143h-68zM310 -8q-112 0 -180 76t-68 184t68 184t180 76t180 -76t68 -184t-68 -184t-180 -76zM310 68q74 0 118 54t44 130t-44 130t-118 54t-118 -54t-44 -130t44 -130t118 -54z" />
    <glyph glyph-name="upsilontonos" unicode="&#x3cd;" 
d="M276 560l43 143h121l-96 -143h-68zM310 -8q-95 0 -149.5 56t-54.5 164v292h84v-292q0 -76 32.5 -111t87.5 -35t87.5 35t32.5 111v292h83v-292q0 -108 -54 -164t-149 -56z" />
    <glyph glyph-name="omegatonos" unicode="&#x3ce;" 
d="M276 560l43 143h121l-96 -143h-68zM180 -8q-73 0 -115.5 55t-42.5 168q0 152 106 297l70 -50q-90 -120 -90 -247q0 -79 20.5 -114t61.5 -35q38 0 58.5 34.5t20.5 93.5v180h82v-180q0 -59 20.5 -93.5t59.5 -34.5q40 0 60.5 35t20.5 114q0 127 -90 247l70 50
q106 -145 106 -297q0 -113 -42.5 -168t-115.5 -55q-50 0 -79.5 25t-50.5 74q-21 -49 -50.5 -74t-79.5 -25z" />
    <glyph glyph-name="uni0400" unicode="&#x400;" 
d="M287 756l-122 144h121l67 -144h-66zM91 0v700h444v-84h-356v-201h306v-84h-306v-247h366v-84h-454z" />
    <glyph glyph-name="uni0401" unicode="&#x401;" 
d="M228 782q-24 0 -40.5 16.5t-16.5 40.5t16.5 40.5t40.5 16.5t40.5 -16.5t16.5 -40.5t-16.5 -40.5t-40.5 -16.5zM412 782q-24 0 -40.5 16.5t-16.5 40.5t16.5 40.5t40.5 16.5t40.5 -16.5t16.5 -40.5t-16.5 -40.5t-40.5 -16.5zM91 0v700h444v-84h-356v-201h306v-84h-306v-247
h366v-84h-454z" />
    <glyph glyph-name="uni0402" unicode="&#x402;" 
d="M376 -8l-28 80q72 24 103.5 66t31.5 116v76q0 55 -20.5 80.5t-63.5 25.5q-59 0 -99.5 -60.5t-40.5 -164.5v-211h-88v616h-137v84h418v-84h-193v-200q24 42 68 69t95 27q74 0 109.5 -41t35.5 -110v-129q0 -101 -55.5 -160.5t-135.5 -79.5z" />
    <glyph glyph-name="uni0403" unicode="&#x403;" 
d="M307 756l67 144h121l-122 -144h-66zM118 0v700h427v-84h-339v-616h-88z" />
    <glyph glyph-name="uni0404" unicode="&#x404;" 
d="M328 -8q-124 0 -200.5 91.5t-76.5 266.5t76.5 266.5t200.5 91.5q98 0 164 -58t90 -155l-81 -25q-47 154 -173 154q-173 0 -186 -232h283v-84h-283q13 -232 186 -232q126 0 173 154l81 -25q-24 -97 -90 -155t-164 -58z" />
    <glyph glyph-name="uni0405" unicode="&#x405;" 
d="M320 -8q-101 0 -171 53.5t-90 154.5l82 32q41 -156 179 -156q56 0 97.5 31t41.5 82q0 53 -35.5 80t-118.5 48q-90 23 -146 69.5t-56 134.5q0 80 57.5 133.5t156.5 53.5q85 0 140 -43t79 -107l-77 -39q-46 105 -142 105q-58 0 -92 -28.5t-34 -79.5t38.5 -74t123.5 -45
q45 -12 76 -25t60 -35t43.5 -56t14.5 -80q0 -99 -66 -154t-161 -55z" />
    <glyph glyph-name="uni0406" unicode="&#x406;" 
d="M97 0v76h169v548h-169v76h426v-76h-169v-548h169v-76h-426z" />
    <glyph glyph-name="uni0407" unicode="&#x407;" 
d="M218 782q-24 0 -40.5 16.5t-16.5 40.5t16.5 40.5t40.5 16.5t40.5 -16.5t16.5 -40.5t-16.5 -40.5t-40.5 -16.5zM402 782q-24 0 -40.5 16.5t-16.5 40.5t16.5 40.5t40.5 16.5t40.5 -16.5t16.5 -40.5t-16.5 -40.5t-40.5 -16.5zM97 0v76h169v548h-169v76h426v-76h-169v-548
h169v-76h-426z" />
    <glyph glyph-name="uni0408" unicode="&#x408;" 
d="M291 -8q-91 0 -148 54t-70 136l89 19q12 -59 45 -92t84 -33q59 0 93 36t34 110v478h88v-476q0 -113 -60 -172.5t-155 -59.5z" />
    <glyph glyph-name="uni0409" unicode="&#x409;" 
d="M18 0v84q44 0 59.5 20t17.5 67l26 529h267v-285h28q83 0 134.5 -54t51.5 -153q0 -100 -51.5 -154t-134.5 -54h-116v616h-97l-25 -448q-5 -84 -37.5 -126t-122.5 -42zM388 84h21q102 0 102 124q0 123 -102 123h-21v-247z" />
    <glyph glyph-name="uni040A" unicode="&#x40a;" 
d="M42 0v700h88v-286h144v286h88v-286h35q83 0 134.5 -53.5t51.5 -152.5q0 -100 -51.5 -154t-134.5 -54h-123v330h-144v-330h-88zM362 84h28q102 0 102 124q0 122 -102 122h-28v-246z" />
    <glyph glyph-name="uni040B" unicode="&#x40b;" 
d="M171 0v616h-137v84h418v-84h-193v-200q24 42 68 69t95 27q74 0 109.5 -41t35.5 -110v-361h-84v330q0 55 -20.5 80.5t-63.5 25.5q-59 0 -99.5 -60.5t-40.5 -164.5v-211h-88z" />
    <glyph glyph-name="uni040C" unicode="&#x40c;" 
d="M242 756l67 144h121l-122 -144h-66zM63 0v700h88v-281l268 281h115l-302 -315l324 -385h-112l-293 351v-351h-88z" />
    <glyph glyph-name="uni040D" unicode="&#x40d;" 
d="M277 756l-122 144h121l67 -144h-66zM549 0h-88v540l-293 -540h-96v700h88v-540l293 540h96v-700z" />
    <glyph glyph-name="uni040E" unicode="&#x40e;" 
d="M308 787q-47 0 -79 31.5t-32 77.5h67q0 -20 12.5 -32.5t31.5 -12.5q20 0 32 12.5t12 32.5h67q0 -46 -31.5 -77.5t-79.5 -31.5zM180 0l96 226l-232 474h94l182 -371l160 371h91l-307 -700h-84z" />
    <glyph glyph-name="uni040F" unicode="&#x40f;" 
d="M266 -124v124h-184v700h88v-616h280v616h88v-700h-184v-124h-88z" />
    <glyph glyph-name="uni0410" unicode="&#x410;" 
d="M19 0l249 700h84l249 -700h-91l-63 187h-274l-63 -187h-91zM202 271h216l-108 315z" />
    <glyph glyph-name="uni0411" unicode="&#x411;" 
d="M96 0v700h409v-84h-321v-201h174q102 0 160 -55t58 -152t-58 -152.5t-160 -55.5h-262zM184 84h161q140 0 140 124q0 123 -140 123h-161v-247z" />
    <glyph glyph-name="uni0412" unicode="&#x412;" 
d="M96 0v700h246q94 0 146.5 -47t52.5 -133q0 -45 -22.5 -81.5t-57.5 -55.5q52 -21 83.5 -66.5t31.5 -108.5q0 -97 -58 -152.5t-160 -55.5h-262zM184 415h156q51 0 80.5 25.5t29.5 74.5q0 50 -30 75.5t-80 25.5h-156v-201zM184 84h161q140 0 140 124q0 123 -140 123h-161
v-247z" />
    <glyph glyph-name="uni0413" unicode="&#x413;" 
d="M118 0v700h427v-84h-339v-616h-88z" />
    <glyph glyph-name="uni0414" unicode="&#x414;" 
d="M67 -124l-12 208h34l77 616h379v-616h44l-12 -208h-84v124h-342v-124h-84zM181 84h276v532h-212z" />
    <glyph glyph-name="uni0415" unicode="&#x415;" 
d="M91 0v700h444v-84h-356v-201h306v-84h-306v-247h366v-84h-454z" />
    <glyph glyph-name="uni0416" unicode="&#x416;" 
d="M5 0l190 385l-167 315h95l143 -281v281h88v-281l143 281h95l-167 -315l190 -385h-91l-170 351v-351h-88v351l-170 -351h-91z" />
    <glyph glyph-name="uni0417" unicode="&#x417;" 
d="M306 -8q-81 0 -144 48.5t-79 130.5l81 25q12 -59 48.5 -91.5t93.5 -32.5q61 0 99 37t38 99q0 66 -48.5 98t-106.5 32h-30v70h26q57 0 93 28.5t36 87.5q0 47 -30.5 76.5t-80.5 29.5q-96 0 -117 -100l-80 17q12 75 67 118t130 43q96 0 146.5 -50.5t50.5 -128.5
q0 -96 -94 -151q54 -18 89 -62.5t35 -104.5q0 -95 -62 -157t-161 -62z" />
    <glyph glyph-name="uni0418" unicode="&#x418;" 
d="M549 0h-88v540l-293 -540h-96v700h88v-540l293 540h96v-700z" />
    <glyph glyph-name="uni0419" unicode="&#x419;" 
d="M309 787q-47 0 -79 31.5t-32 77.5h67q0 -20 12.5 -32.5t31.5 -12.5q20 0 32 12.5t12 32.5h67q0 -46 -31.5 -77.5t-79.5 -31.5zM549 0h-88v540l-293 -540h-96v700h88v-540l293 540h96v-700z" />
    <glyph glyph-name="uni041A" unicode="&#x41a;" 
d="M63 0v700h88v-281l268 281h115l-302 -315l324 -385h-112l-293 351v-351h-88z" />
    <glyph glyph-name="uni041B" unicode="&#x41b;" 
d="M18 0v84q51 0 75 22t28 83l31 511h406v-700h-88v616h-236l-26 -430q-5 -93 -50.5 -139.5t-139.5 -46.5z" />
    <glyph glyph-name="uni041C" unicode="&#x41c;" 
d="M67 0v700h94l149 -388l149 388h94v-700h-88v513l-122 -312h-66l-122 312v-513h-88z" />
    <glyph glyph-name="uni041D" unicode="&#x41d;" 
d="M68 0v700h88v-286h308v286h88v-700h-88v330h-308v-330h-88z" />
    <glyph glyph-name="uni041E" unicode="&#x41e;" 
d="M310 -8q-120 0 -196 92.5t-76 265.5t76 265.5t196 92.5t196 -92.5t76 -265.5t-76 -265.5t-196 -92.5zM310 76q83 0 132 66.5t49 207.5t-49 207.5t-132 66.5t-132 -66.5t-49 -207.5t49 -207.5t132 -66.5z" />
    <glyph glyph-name="uni041F" unicode="&#x41f;" 
d="M68 0v700h484v-700h-88v616h-308v-616h-88z" />
    <glyph glyph-name="uni0420" unicode="&#x420;" 
d="M99 0v700h265q100 0 154 -53.5t54 -146.5t-54 -146.5t-154 -53.5h-177v-300h-88zM187 384h175q119 0 119 116t-119 116h-175v-232z" />
    <glyph glyph-name="uni0421" unicode="&#x421;" 
d="M338 -8q-126 0 -207.5 92t-81.5 266t81.5 266t207.5 92q98 0 162.5 -58t88.5 -155l-83 -25q-24 78 -63.5 116t-104.5 38q-93 0 -145.5 -67.5t-52.5 -206.5t52.5 -206.5t145.5 -67.5q65 0 104.5 38t63.5 116l83 -25q-24 -97 -88.5 -155t-162.5 -58z" />
    <glyph glyph-name="uni0422" unicode="&#x422;" 
d="M266 0v616h-218v84h524v-84h-218v-616h-88z" />
    <glyph glyph-name="uni0423" unicode="&#x423;" 
d="M180 0l96 226l-232 474h94l182 -371l160 371h91l-307 -700h-84z" />
    <glyph glyph-name="uni0424" unicode="&#x424;" 
d="M268 0v72q-94 8 -164 82.5t-70 195.5t70 195.5t164 82.5v72h84v-72q94 -8 164 -82.5t70 -195.5t-70 -195.5t-164 -82.5v-72h-84zM268 148v404q-60 -5 -104 -57t-44 -145t44 -145t104 -57zM352 148q60 5 104 57t44 145t-44 145t-104 57v-404z" />
    <glyph glyph-name="uni0425" unicode="&#x425;" 
d="M39 0l221 376l-190 324h101l139 -238l139 238h101l-190 -324l221 -376h-101l-170 290l-170 -290h-101z" />
    <glyph glyph-name="uni0426" unicode="&#x426;" 
d="M463 -124v124h-403v700h88v-616h279v616h88v-616h44l-12 -208h-84z" />
    <glyph glyph-name="uni0427" unicode="&#x427;" 
d="M449 0v326q-76 -55 -167 -55q-93 0 -148 56t-55 170v203h88v-188q0 -157 134 -157q84 0 148 72v273h88v-700h-88z" />
    <glyph glyph-name="uni0428" unicode="&#x428;" 
d="M60 0v700h88v-616h118v616h88v-616h118v616h88v-700h-500z" />
    <glyph glyph-name="uni0429" unicode="&#x429;" 
d="M508 -124v124h-448v700h88v-616h118v616h88v-616h118v616h88v-616h44l-12 -208h-84z" />
    <glyph glyph-name="uni042A" unicode="&#x42a;" 
d="M129 0v616h-119v84h207v-285h141q102 0 160 -55t58 -152t-58 -152.5t-160 -55.5h-229zM217 84h128q140 0 140 124q0 123 -140 123h-128v-247z" />
    <glyph glyph-name="uni042B" unicode="&#x42b;" 
d="M59 0v700h88v-285h65q102 0 160 -55t58 -152t-58 -152.5t-160 -55.5h-153zM484 0v700h84v-700h-84zM147 84h52q140 0 140 124q0 123 -140 123h-52v-247z" />
    <glyph glyph-name="uni042C" unicode="&#x42c;" 
d="M59 0v700h88v-285h164q102 0 160 -55t58 -152t-58 -152.5t-160 -55.5h-252zM147 84h151q140 0 140 124q0 123 -140 123h-151v-247z" />
    <glyph glyph-name="uni042D" unicode="&#x42d;" 
d="M305 -8q-98 0 -164 58t-90 155l81 25q47 -154 173 -154q172 0 186 232h-283v84h283q-14 232 -186 232q-126 0 -173 -154l-81 25q24 97 90 155t164 58q124 0 200.5 -91.5t76.5 -266.5t-76.5 -266.5t-200.5 -91.5z" />
    <glyph glyph-name="uni042E" unicode="&#x42e;" 
d="M389 -8q-86 0 -143 80t-64 236h-66v-308h-88v700h88v-308h66q7 156 64 236t143 80q92 0 150 -91t58 -267t-58 -267t-150 -91zM389 76q53 0 85 66.5t32 207.5t-32 207.5t-85 66.5t-85 -66.5t-32 -207.5t32 -207.5t85 -66.5z" />
    <glyph glyph-name="uni042F" unicode="&#x42f;" 
d="M20 0l209 336q-146 30 -146 179q0 91 55 138t151 47h245v-700h-88v330h-117l-205 -330h-104zM287 414h159v202h-159q-113 0 -113 -101t113 -101z" />
    <glyph glyph-name="uni0430" unicode="&#x430;" 
d="M259 -8q-67 0 -111.5 39.5t-44.5 113.5q0 82 60.5 123.5t167.5 41.5h102v22q0 55 -32.5 79.5t-83.5 24.5q-43 0 -75 -24t-44 -62l-74 20q17 65 70 103.5t123 38.5q93 0 146.5 -47t53.5 -147v-318h-68l-12 71q-24 -35 -73 -57t-105 -22zM272 68q60 0 110.5 38.5
t50.5 115.5v16h-110q-64 0 -99 -25t-35 -68q0 -36 22.5 -56.5t60.5 -20.5z" />
    <glyph glyph-name="uni0431" unicode="&#x431;" 
d="M309 -8q-115 0 -182 82.5t-67 235.5q0 390 254 390h62q35 0 50 10t23 37h55q0 -63 -31.5 -93t-85.5 -30h-77q-70 0 -113 -51.5t-47 -133.5q71 73 179 73q100 0 164.5 -76.5t64.5 -183.5q0 -110 -68.5 -185t-180.5 -75zM309 68q77 0 120 53.5t43 130.5t-43 130.5
t-120 53.5t-120 -53.5t-43 -130.5t43 -130.5t120 -53.5z" />
    <glyph glyph-name="uni0432" unicode="&#x432;" 
d="M90 0v504h218q64 0 107 -34t43 -91q0 -68 -56 -103q77 -34 77 -122q0 -67 -47 -110.5t-120 -43.5h-222zM174 306h130q33 0 52.5 16t19.5 45t-19.5 45t-52.5 16h-130v-122zM174 76h130q89 0 89 77t-89 77h-130v-154z" />
    <glyph glyph-name="uni0433" unicode="&#x433;" 
d="M130 0v504h346v-76h-262v-428h-84z" />
    <glyph glyph-name="uni0434" unicode="&#x434;" 
d="M82 -114l-13 190h34l70 428h337v-428h34l-11 -190h-74v114h-303v-114h-74zM188 76h238v352h-184z" />
    <glyph glyph-name="uni0435" unicode="&#x435;" 
d="M311 -8q-108 0 -174.5 74t-66.5 186q0 110 65.5 185t175.5 75q113 0 176 -69.5t63 -173.5v-35h-394q4 -75 46 -120.5t109 -45.5q108 0 162 100l67 -35q-73 -141 -229 -141zM162 310h299q-11 60 -50 93t-100 33q-59 0 -97.5 -33.5t-51.5 -92.5z" />
    <glyph glyph-name="uni0436" unicode="&#x436;" 
d="M12 0l174 273l-155 231h99l138 -211v211h84v-211l138 211h99l-155 -231l174 -273h-98l-158 253v-253h-84v253l-158 -253h-98z" />
    <glyph glyph-name="uni0437" unicode="&#x437;" 
d="M302 -8q-69 0 -116 40.5t-54 105.5l80 9q5 -37 29 -58t61 -21q39 0 62.5 21t23.5 60q0 36 -28 60t-83 24h-13v62h17q93 0 93 75q0 29 -20 49.5t-55 20.5q-61 0 -82 -63l-71 19q13 53 51.5 84.5t100.5 31.5q73 0 112.5 -38t39.5 -91q0 -76 -67 -113q39 -14 62 -46t23 -73
q0 -72 -46.5 -115.5t-119.5 -43.5z" />
    <glyph glyph-name="uni0438" unicode="&#x438;" 
d="M92 0v504h84v-379l261 379h91v-504h-84v379l-261 -379h-91z" />
    <glyph glyph-name="uni0439" unicode="&#x439;" 
d="M309 591q-47 0 -79 31.5t-32 77.5h67q0 -20 12.5 -32.5t31.5 -12.5q20 0 32 12.5t12 32.5h67q0 -46 -31.5 -77.5t-79.5 -31.5zM92 0v504h84v-379l261 379h91v-504h-84v379l-261 -379h-91z" />
    <glyph glyph-name="uni043A" unicode="&#x43a;" 
d="M94 0v504h84v-211l215 211h110l-235 -231l258 -273h-110l-238 253v-253h-84z" />
    <glyph glyph-name="uni043B" unicode="&#x43b;" 
d="M46 0v76q51 0 74.5 21.5t28.5 70.5l33 336h353v-504h-84v428h-199l-30 -291q-15 -137 -176 -137z" />
    <glyph glyph-name="uni043C" unicode="&#x43c;" 
d="M77 0v504h99l134 -322l134 322h99v-504h-84v333l-125 -287h-48l-125 287v-333h-84z" />
    <glyph glyph-name="uni043D" unicode="&#x43d;" 
d="M106 0v504h84v-198h240v198h84v-504h-84v230h-240v-230h-84z" />
    <glyph glyph-name="uni043E" unicode="&#x43e;" 
d="M310 -8q-112 0 -180 76t-68 184t68 184t180 76t180 -76t68 -184t-68 -184t-180 -76zM310 68q74 0 118 54t44 130t-44 130t-118 54t-118 -54t-44 -130t44 -130t118 -54z" />
    <glyph glyph-name="uni043F" unicode="&#x43f;" 
d="M106 0v504h408v-504h-84v428h-240v-428h-84z" />
    <glyph glyph-name="uni0440" unicode="&#x440;" 
d="M106 -204v708h84v-67q23 32 64 53.5t90 21.5q109 0 170 -71t61 -189t-61 -189t-170 -71q-50 0 -90.5 20.5t-63.5 51.5v-268h-84zM336 68q71 0 112 51t41 133t-41 133t-112 51t-112 -51t-41 -133t41 -133t112 -51z" />
    <glyph glyph-name="uni0441" unicode="&#x441;" 
d="M328 -8q-111 0 -176 76t-65 184t65 184t176 76q152 0 213 -139l-73 -30q-40 93 -140 93q-73 0 -114 -51.5t-41 -132.5t41 -132.5t114 -51.5q100 0 140 93l73 -30q-61 -139 -213 -139z" />
    <glyph glyph-name="uni0442" unicode="&#x442;" 
d="M268 0v428h-177v76h438v-76h-177v-428h-84z" />
    <glyph glyph-name="uni0443" unicode="&#x443;" 
d="M178 -204l98 238l-218 470h94l169 -369l149 369h91l-299 -708h-84z" />
    <glyph glyph-name="uni0444" unicode="&#x444;" 
d="M268 -204v196q-106 0 -171 76t-65 184t65 184t171 76v188h84v-188q106 0 171 -76t65 -184t-65 -184t-171 -76v-196h-84zM267 68h1v368h-1q-70 -1 -109.5 -54t-39.5 -130t39.5 -130.5t109.5 -53.5zM352 68h1q70 1 109.5 54t39.5 130t-39.5 130t-109.5 54h-1v-368z" />
    <glyph glyph-name="uni0445" unicode="&#x445;" 
d="M81 0l183 267l-164 237h99l111 -167l111 167h99l-164 -237l183 -267h-95l-134 198l-134 -198h-95z" />
    <glyph glyph-name="uni0446" unicode="&#x446;" 
d="M463 -114v114h-357v504h84v-428h240v428h84v-428h34l-11 -190h-74z" />
    <glyph glyph-name="uni0447" unicode="&#x447;" 
d="M421 0v232q-70 -78 -161 -78q-69 0 -110 41t-41 126v183h84v-176q0 -49 23 -73.5t62 -24.5q44 0 77.5 25.5t65.5 76.5v172h84v-504h-84z" />
    <glyph glyph-name="uni0448" unicode="&#x448;" 
d="M50 0v504h84v-428h134v428h84v-428h134v428h84v-504h-520z" />
    <glyph glyph-name="uni0449" unicode="&#x449;" 
d="M507 -114v114h-469v504h84v-428h134v428h84v-428h134v428h84v-428h34l-11 -190h-74z" />
    <glyph glyph-name="uni044A" unicode="&#x44a;" 
d="M151 0v428h-99v76h183v-192h119q80 0 124 -42t44 -114t-44 -114t-124 -42h-203zM235 76h98q55 0 80 18.5t25 61.5q0 42 -25 61t-80 19h-98v-160z" />
    <glyph glyph-name="uni044B" unicode="&#x44b;" 
d="M54 0v504h84v-192h104q80 0 124 -42t44 -114t-44 -114t-124 -42h-188zM469 0v504h84v-504h-84zM138 76h83q55 0 80 18.5t25 61.5q0 42 -25 61t-80 19h-83v-160z" />
    <glyph glyph-name="uni044C" unicode="&#x44c;" 
d="M91 0v504h84v-192h129q80 0 124 -42t44 -114t-44 -114t-124 -42h-213zM175 76h108q55 0 80 18.5t25 61.5q0 42 -25 61t-80 19h-108v-160z" />
    <glyph glyph-name="uni044D" unicode="&#x44d;" 
d="M318 -8q-147 0 -216 132l70 37q42 -93 146 -93q66 0 103 40t45 106h-239v76h239q-8 66 -45 106t-103 40q-104 0 -146 -93l-70 37q69 132 216 132q110 0 173 -76t63 -184t-63 -184t-173 -76z" />
    <glyph glyph-name="uni044E" unicode="&#x44e;" 
d="M404 -8q-83 0 -129.5 60t-55.5 162h-63v-214h-84v504h84v-214h63q9 102 55.5 162t129.5 60q90 0 138 -71.5t48 -188.5t-48 -188.5t-138 -71.5zM404 68q49 0 74.5 48.5t25.5 135.5t-25.5 135.5t-74.5 48.5t-74.5 -48.5t-25.5 -135.5t25.5 -135.5t74.5 -48.5z" />
    <glyph glyph-name="uni044F" unicode="&#x44f;" 
d="M107 0l138 232q-46 14 -72.5 48t-26.5 85q0 63 44 101t116 38h192v-504h-84v226h-93l-129 -226h-85zM303 302h111v126h-111q-78 0 -78 -63t78 -63z" />
    <glyph glyph-name="uni0450" unicode="&#x450;" 
d="M287 560l-122 144h121l67 -144h-66zM311 -8q-108 0 -174.5 74t-66.5 186q0 110 65.5 185t175.5 75q113 0 176 -69.5t63 -173.5v-35h-394q4 -75 46 -120.5t109 -45.5q108 0 162 100l67 -35q-73 -141 -229 -141zM162 310h299q-11 60 -50 93t-100 33q-59 0 -97.5 -33.5
t-51.5 -92.5z" />
    <glyph glyph-name="uni0451" unicode="&#x451;" 
d="M212 586q-24 0 -40.5 16.5t-16.5 40.5t16.5 40.5t40.5 16.5t40.5 -16.5t16.5 -40.5t-16.5 -40.5t-40.5 -16.5zM396 586q-24 0 -40.5 16.5t-16.5 40.5t16.5 40.5t40.5 16.5t40.5 -16.5t16.5 -40.5t-16.5 -40.5t-40.5 -16.5zM311 -8q-108 0 -174.5 74t-66.5 186
q0 110 65.5 185t175.5 75q113 0 176 -69.5t63 -173.5v-35h-394q4 -75 46 -120.5t109 -45.5q108 0 162 100l67 -35q-73 -141 -229 -141zM162 310h299q-11 60 -50 93t-100 33q-59 0 -97.5 -33.5t-51.5 -92.5z" />
    <glyph glyph-name="uni0452" unicode="&#x452;" 
d="M338 -212l-28 80q72 24 103.5 66t31.5 116v280q0 106 -93 106q-64 0 -112 -61t-48 -164v-211h-84v572h-71v68h71v68h84v-68h138v-68h-138v-161q30 44 78.5 72.5t104.5 28.5q154 0 154 -164v-320q0 -101 -55.5 -160.5t-135.5 -79.5z" />
    <glyph glyph-name="uni0453" unicode="&#x453;" 
d="M268 560l67 144h121l-122 -144h-66zM130 0v504h346v-76h-262v-428h-84z" />
    <glyph glyph-name="uni0454" unicode="&#x454;" 
d="M302 -8q-110 0 -173 76t-63 184t63 184t173 76q147 0 216 -132l-70 -37q-42 93 -146 93q-66 0 -103 -40t-45 -106h239v-76h-239q8 -66 45 -106t103 -40q104 0 146 93l70 -37q-69 -132 -216 -132z" />
    <glyph glyph-name="uni0455" unicode="&#x455;" 
d="M322 -8q-78 0 -137 38t-82 108l80 30q13 -48 50 -74t89 -26q48 0 77.5 18.5t29.5 53.5q0 34 -28 50t-102 30q-35 7 -61.5 16t-51 25.5t-37.5 42.5t-13 62q0 66 50 106t122 40q129 0 187 -112l-69 -44q-44 80 -121 80q-36 0 -61.5 -16.5t-25.5 -50.5q0 -31 28.5 -48.5
t88.5 -29.5q41 -8 69 -17t56 -25t42 -41.5t14 -60.5q0 -70 -56.5 -112.5t-137.5 -42.5z" />
    <glyph glyph-name="uni0456" unicode="&#x456;" 
d="M298 570q-29 0 -49 20t-20 48q0 29 20 49.5t49 20.5t49 -20.5t20 -49.5t-20 -48.5t-49 -19.5zM88 0v74h174v356h-154v74h238v-430h186v-74h-444z" />
    <glyph glyph-name="uni0457" unicode="&#x457;" 
d="M212 586q-24 0 -40.5 16.5t-16.5 40.5t16.5 40.5t40.5 16.5t40.5 -16.5t16.5 -40.5t-16.5 -40.5t-40.5 -16.5zM396 586q-24 0 -40.5 16.5t-16.5 40.5t16.5 40.5t40.5 16.5t40.5 -16.5t16.5 -40.5t-16.5 -40.5t-40.5 -16.5zM88 0v74h174v356h-154v74h238v-430h186v-74
h-444z" />
    <glyph glyph-name="uni0458" unicode="&#x458;" 
d="M344 570q-29 0 -49 20t-20 48q0 29 20 49.5t49 20.5t49 -20.5t20 -49.5t-20 -48.5t-49 -19.5zM201 -212l-28 80q72 24 103.5 66t31.5 116v380h-198v74h282v-476q0 -101 -55.5 -160.5t-135.5 -79.5z" />
    <glyph glyph-name="uni0459" unicode="&#x459;" 
d="M24 0v76q43 0 61.5 20.5t20.5 60.5l20 347h247v-192h48q80 0 125 -42.5t45 -113.5t-45 -113.5t-125 -42.5h-132v428h-91l-19 -302q-7 -126 -155 -126zM373 76h29q55 0 80 18.5t25 61.5q0 42 -25 61t-80 19h-29v-160z" />
    <glyph glyph-name="uni045A" unicode="&#x45a;" 
d="M30 0v504h84v-192h150v192h84v-192h93q75 0 116 -42t41 -114t-41 -114t-116 -42h-177v236h-150v-236h-84zM348 76h72q49 0 71.5 19t22.5 61q0 41 -22.5 60.5t-71.5 19.5h-72v-160z" />
    <glyph glyph-name="uni045B" unicode="&#x45b;" 
d="M108 0v572h-71v68h71v68h84v-68h138v-68h-138v-161q30 44 78.5 72.5t104.5 28.5q154 0 154 -164v-348h-84v330q0 106 -93 106q-64 0 -112 -61t-48 -164v-211h-84z" />
    <glyph glyph-name="uni045C" unicode="&#x45c;" 
d="M254 560l67 144h121l-122 -144h-66zM94 0v504h84v-211l215 211h110l-235 -231l258 -273h-110l-238 253v-253h-84z" />
    <glyph glyph-name="uni045D" unicode="&#x45d;" 
d="M293 560l-122 144h121l67 -144h-66zM92 0v504h84v-379l261 379h91v-504h-84v379l-261 -379h-91z" />
    <glyph glyph-name="uni045E" unicode="&#x45e;" 
d="M320 591q-47 0 -79 31.5t-32 77.5h67q0 -20 12.5 -32.5t31.5 -12.5q20 0 32 12.5t12 32.5h67q0 -46 -31.5 -77.5t-79.5 -31.5zM178 -204l98 238l-218 470h94l169 -369l149 369h91l-299 -708h-84z" />
    <glyph glyph-name="uni045F" unicode="&#x45f;" 
d="M271 -114v114h-165v504h84v-428h240v428h84v-504h-165v-114h-78z" />
    <glyph glyph-name="uni0462" unicode="&#x462;" 
d="M370 415q102 0 160 -55t58 -152t-58 -152.5t-160 -55.5h-252v515h-109v84h109v101h88v-101h113v-84h-113v-100h164zM357 84q140 0 140 124q0 123 -140 123h-151v-247h151z" />
    <glyph glyph-name="uni0463" unicode="&#x463;" 
d="M380 312q81 0 125.5 -42t44.5 -114t-44.5 -114t-125.5 -42h-187v475h-126v68h126v157h84v-157h126v-68h-126v-163h103zM354 74q57 0 82.5 19.5t25.5 62.5t-26 62.5t-82 19.5h-77v-164h77z" />
    <glyph glyph-name="uni0472" unicode="&#x472;" 
d="M310 708q120 0 196 -92.5t76 -265.5t-76 -265.5t-196 -92.5t-196 92.5t-76 265.5t76 265.5t196 92.5zM310 624q-77 0 -125.5 -57.5t-54.5 -179.5h360q-6 122 -54.5 179.5t-125.5 57.5zM310 76q77 0 125.5 57.5t54.5 179.5h-360q6 -122 54.5 -179.5t125.5 -57.5z" />
    <glyph glyph-name="uni0473" unicode="&#x473;" 
d="M310 512q112 0 180 -76t68 -184t-68 -184t-180 -76t-180 76t-68 184t68 184t180 76zM310 436q-65 0 -107 -41.5t-52 -105.5h318q-10 64 -52 105.5t-107 41.5zM310 68q65 0 107 41.5t52 105.5h-318q10 -64 52 -105.5t107 -41.5z" />
    <glyph glyph-name="uni0474" unicode="&#x474;" 
d="M399 539q24 90 64.5 129.5t125.5 39.5v-83q-41 0 -63 -18t-37 -71l-156 -536h-90l-212 700h93l164 -575z" />
    <glyph glyph-name="uni0475" unicode="&#x475;" 
d="M243 0l-170 504h84l127 -398l89 276q24 74 61 102t113 28v-74q-47 0 -66.5 -17t-32.5 -58l-122 -363h-83z" />
    <glyph glyph-name="uni0490" unicode="&#x490;" 
d="M457 771h88v-155h-339v-616h-88v700h339v71z" />
    <glyph glyph-name="uni0491" unicode="&#x491;" 
d="M130 0v504h262v74h84v-150h-262v-428h-84z" />
    <glyph glyph-name="Wgrave" unicode="&#x1e80;" 
d="M277 756l-122 144h121l67 -144h-66zM98 0l-67 700h91l42 -570l106 427h80l106 -427l42 570h91l-67 -700h-109l-103 411l-103 -411h-109z" />
    <glyph glyph-name="wgrave" unicode="&#x1e81;" 
d="M293 560l-122 144h121l67 -144h-66zM137 0l-110 504h86l69 -373l86 323h84l86 -323l69 373h86l-110 -504h-76l-97 354l-97 -354h-76z" />
    <glyph glyph-name="Wacute" unicode="&#x1e82;" 
d="M277 756l67 144h121l-122 -144h-66zM98 0l-67 700h91l42 -570l106 427h80l106 -427l42 570h91l-67 -700h-109l-103 411l-103 -411h-109z" />
    <glyph glyph-name="wacute" unicode="&#x1e83;" 
d="M275 560l67 144h121l-122 -144h-66zM137 0l-110 504h86l69 -373l86 323h84l86 -323l69 373h86l-110 -504h-76l-97 354l-97 -354h-76z" />
    <glyph glyph-name="Wdieresis" unicode="&#x1e84;" 
d="M218 782q-24 0 -40.5 16.5t-16.5 40.5t16.5 40.5t40.5 16.5t40.5 -16.5t16.5 -40.5t-16.5 -40.5t-40.5 -16.5zM402 782q-24 0 -40.5 16.5t-16.5 40.5t16.5 40.5t40.5 16.5t40.5 -16.5t16.5 -40.5t-16.5 -40.5t-40.5 -16.5zM98 0l-67 700h91l42 -570l106 427h80l106 -427
l42 570h91l-67 -700h-109l-103 411l-103 -411h-109z" />
    <glyph glyph-name="wdieresis" unicode="&#x1e85;" 
d="M218 586q-24 0 -40.5 16.5t-16.5 40.5t16.5 40.5t40.5 16.5t40.5 -16.5t16.5 -40.5t-16.5 -40.5t-40.5 -16.5zM402 586q-24 0 -40.5 16.5t-16.5 40.5t16.5 40.5t40.5 16.5t40.5 -16.5t16.5 -40.5t-16.5 -40.5t-40.5 -16.5zM137 0l-110 504h86l69 -373l86 323h84l86 -323
l69 373h86l-110 -504h-76l-97 354l-97 -354h-76z" />
    <glyph glyph-name="uni1E9E" unicode="&#x1e9e;" 
d="M344 -8q-50 0 -108 19v78q54 -23 106 -23q51 0 83 39t32 99q0 131 -149 131h-47v53l137 228h-139q-50 0 -74.5 -27t-24.5 -93v-496h-88v504q0 93 48 144.5t139 51.5h254v-48l-151 -250q76 -4 131 -54t55 -142t-56.5 -153t-147.5 -61z" />
    <glyph glyph-name="Ygrave" unicode="&#x1ef2;" 
d="M277 756l-122 144h121l67 -144h-66zM266 0v276l-225 424h97l172 -336l172 336h97l-225 -424v-276h-88z" />
    <glyph glyph-name="ygrave" unicode="&#x1ef3;" 
d="M304 560l-122 144h121l67 -144h-66zM178 -204l98 238l-218 470h94l169 -369l149 369h91l-299 -708h-84z" />
    <glyph glyph-name="endash" unicode="&#x2013;" 
d="M105 280v74h409v-74h-409z" />
    <glyph glyph-name="emdash" unicode="&#x2014;" 
d="M65 280v74h490v-74h-490z" />
    <glyph glyph-name="quoteleft" unicode="&#x2018;" 
d="M357 708h64l-95 -248h-126z" />
    <glyph glyph-name="quoteright" unicode="&#x2019;" 
d="M199 460l95 248h126l-157 -248h-64z" />
    <glyph glyph-name="quotesinglbase" unicode="&#x201a;" 
d="M210 -103l58 210h117l-116 -210h-59z" />
    <glyph glyph-name="quotedblleft" unicode="&#x201c;" 
d="M313 708l-95 -248h-126l157 248h64zM529 708l-95 -248h-126l157 248h64z" />
    <glyph glyph-name="quotedblright" unicode="&#x201d;" 
d="M101 460l95 248h126l-157 -248h-64zM297 460l95 248h126l-157 -248h-64z" />
    <glyph glyph-name="quotedblbase" unicode="&#x201e;" 
d="M81 -160l95 248h126l-157 -248h-64zM277 -160l95 248h126l-157 -248h-64z" />
    <glyph glyph-name="dagger" unicode="&#x2020;" 
d="M270 -50v474h-180v80h180v246h80v-246h180v-80h-180v-474h-80z" />
    <glyph glyph-name="daggerdbl" unicode="&#x2021;" 
d="M270 -50v246h-180v80h180v148h-180v80h180v246h80v-246h180v-80h-180v-148h180v-80h-180v-246h-80z" />
    <glyph glyph-name="bullet" unicode="&#x2022;" 
d="M310 247q-34 0 -58.5 24.5t-24.5 58.5t24.5 58.5t58.5 24.5t58.5 -24.5t24.5 -58.5t-24.5 -58.5t-58.5 -24.5z" />
    <glyph glyph-name="ellipsis" unicode="&#x2026;" 
d="M109 -3q-27 0 -44.5 17.5t-17.5 44.5t17.5 44.5t44.5 17.5t44.5 -17.5t17.5 -44.5t-17.5 -44.5t-44.5 -17.5zM309 -3q-27 0 -44.5 17.5t-17.5 44.5t17.5 44.5t44.5 17.5t44.5 -17.5t17.5 -44.5t-17.5 -44.5t-44.5 -17.5zM510 -3q-27 0 -44.5 17.5t-17.5 44.5t17.5 44.5
t44.5 17.5t44.5 -17.5t17.5 -44.5t-17.5 -44.5t-44.5 -17.5z" />
    <glyph glyph-name="perthousand" unicode="&#x2030;" 
d="M170 442q-56 0 -94.5 38.5t-38.5 94.5t38.5 94.5t94.5 38.5q57 0 95 -38.5t38 -94.5t-38 -94.5t-95 -38.5zM170 501q32 0 51.5 21t19.5 53t-19.5 53t-51.5 21q-33 0 -52.5 -21t-19.5 -53t19.5 -53t52.5 -21zM79 214l-34 48l507 353l34 -48zM262 -8q-56 0 -94 38.5
t-38 94.5t38 94.5t94 38.5q63 0 103 -47q40 47 103 47q56 0 94 -38.5t38 -94.5t-38 -94.5t-94 -38.5q-63 0 -103 47q-40 -47 -103 -47zM262 51q31 0 51.5 21t20.5 53t-20.5 53t-51.5 21q-33 0 -52 -21t-19 -53t19 -53t52 -21zM468 51q33 0 52 21t19 53t-19 53t-52 21
q-31 0 -51.5 -21t-20.5 -53t20.5 -53t51.5 -21z" />
    <glyph glyph-name="guilsinglleft" unicode="&#x2039;" 
d="M452 80l-294 199v62l294 199v-90l-209 -140l209 -140v-90z" />
    <glyph glyph-name="guilsinglright" unicode="&#x203a;" 
d="M168 80v90l209 140l-209 140v90l294 -199v-62z" />
    <glyph glyph-name="fraction" unicode="&#x2044;" 
d="M98 122l-39 44l470 401l39 -44z" />
    <glyph glyph-name="uni2048" unicode="&#x2048;" 
d="M226 202q-60 0 -96 33.5t-36 90.5q0 78 85 120l92 47q43 22 43 71q0 36 -23 54.5t-63 18.5q-38 0 -65.5 -25t-39.5 -67l-78 13q12 68 60 109t123 41q76 0 123 -39.5t47 -109.5q0 -81 -77 -119l-101 -49q-49 -24 -49 -69q0 -24 14 -37.5t38 -13.5q47 0 72 59l65 -23
q-36 -105 -134 -105zM469 200l-24 500h114l-24 -500h-66zM502 -3q-30 0 -50 19.5t-20 48.5q0 30 20 50.5t50 20.5t50 -20.5t20 -50.5q0 -29 -20 -48.5t-50 -19.5zM226 -3q-28 0 -47 19t-19 47q0 29 19 48.5t47 19.5t48 -19.5t20 -48.5q0 -28 -19.5 -47t-48.5 -19z" />
    <glyph glyph-name="uni2049" unicode="&#x2049;" 
d="M397 202q-60 0 -96 33.5t-36 90.5q0 78 85 120l92 47q43 22 43 71q0 36 -23 54.5t-63 18.5q-38 0 -65.5 -25t-39.5 -67l-78 13q12 68 60 109t123 41q76 0 123 -39.5t47 -109.5q0 -81 -77 -119l-101 -49q-49 -24 -49 -69q0 -24 14 -37.5t38 -13.5q47 0 72 59l65 -23
q-36 -105 -134 -105zM89 200l-24 500h114l-24 -500h-66zM122 -3q-30 0 -50 19.5t-20 48.5q0 30 20 50.5t50 20.5t50 -20.5t20 -50.5q0 -29 -20 -48.5t-50 -19.5zM397 -3q-28 0 -47 19t-19 47q0 29 19 48.5t47 19.5q29 0 48.5 -19.5t19.5 -48.5q0 -28 -19.5 -47t-48.5 -19z
" />
    <glyph glyph-name="uni2070" unicode="&#x2070;" 
d="M310 296q-72 0 -112 55.5t-40 148.5t40 148.5t112 55.5t112 -55.5t40 -148.5t-40 -148.5t-112 -55.5zM310 356q84 0 84 144t-84 144t-84 -144t84 -144z" />
    <glyph glyph-name="uni2074" unicode="&#x2074;" 
d="M340 300v77h-170v27l162 296h72v-265h49v-58h-49v-77h-64zM250 435h90v171z" />
    <glyph glyph-name="uni2075" unicode="&#x2075;" 
d="M309 296q-52 0 -87 29t-41 83l63 9q9 -59 65 -59q30 0 48 19.5t18 53.5q0 37 -17 57.5t-49 20.5q-44 0 -71 -37l-48 10l21 218h209v-60h-157l-12 -100q23 25 66 25q58 0 92 -36t34 -98q0 -63 -36 -99t-98 -36z" />
    <glyph glyph-name="uni2076" unicode="&#x2076;" 
d="M311 296q-62 0 -98.5 37t-36.5 95q0 42 24 85l109 191h69l-90 -150q6 5 29 5q60 0 94 -35.5t34 -95.5q0 -59 -36 -95.5t-98 -36.5zM311 356q30 0 48 20t18 52q0 33 -18 52t-48 19t-48.5 -19t-18.5 -52q0 -32 18.5 -52t48.5 -20z" />
    <glyph glyph-name="uni2077" unicode="&#x2077;" 
d="M213 300l141 340h-158v60h239v-26l-153 -374h-69z" />
    <glyph glyph-name="uni2078" unicode="&#x2078;" 
d="M310 296q-54 0 -91.5 33t-37.5 89q0 72 58 98q-45 30 -45 83q0 47 32 76t84 29t84 -29t32 -76q0 -53 -45 -83q58 -26 58 -98q0 -56 -37.5 -89t-91.5 -33zM310 542q24 0 39 15.5t15 38.5t-15 38.5t-39 15.5t-39 -15.5t-15 -38.5t15 -38.5t39 -15.5zM310 356
q28 0 44.5 17.5t16.5 45.5q0 29 -16.5 46t-44.5 17t-44.5 -17t-16.5 -46q0 -28 16.5 -45.5t44.5 -17.5z" />
    <glyph glyph-name="uni2079" unicode="&#x2079;" 
d="M243 296l90 150q-6 -5 -29 -5q-60 0 -94 35.5t-34 95.5q0 59 36 95.5t98 36.5t98.5 -37t36.5 -95q0 -42 -24 -85l-109 -191h-69zM310 501q30 0 48.5 19t18.5 52q0 32 -18.5 52t-48.5 20t-48 -20t-18 -52q0 -33 18 -52t48 -19z" />
    <glyph glyph-name="uni2080" unicode="&#x2080;" 
d="M310 -208q-72 0 -112 55.5t-40 148.5t40 148.5t112 55.5t112 -55.5t40 -148.5t-40 -148.5t-112 -55.5zM310 -148q84 0 84 144t-84 144t-84 -144t84 -144z" />
    <glyph glyph-name="uni2081" unicode="&#x2081;" 
d="M200 -204v56h83v255l-75 -34v71l113 52h24v-344h83v-56h-228z" />
    <glyph glyph-name="uni2082" unicode="&#x2082;" 
d="M181 -204v25l147 180q35 42 35 86q0 23 -14 37t-40 14q-24 0 -40 -18t-20 -50l-62 17q5 50 38 81.5t84 31.5q57 0 89 -30.5t32 -81.5q0 -59 -38 -105l-103 -127h149v-60h-257z" />
    <glyph glyph-name="uni2083" unicode="&#x2083;" 
d="M313 -208q-57 0 -92.5 31.5t-40.5 88.5l63 9q4 -33 23.5 -51t46.5 -18q29 0 46.5 19t17.5 53q0 36 -17 55.5t-48 19.5q-19 0 -35 -10l-31 40l81 109h-127v58h221v-22l-95 -129q50 7 83.5 -25.5t33.5 -95.5q0 -58 -33.5 -95t-96.5 -37z" />
    <glyph glyph-name="uni2084" unicode="&#x2084;" 
d="M340 -204v77h-170v27l162 296h72v-265h49v-58h-49v-77h-64zM250 -69h90v171z" />
    <glyph glyph-name="uni2085" unicode="&#x2085;" 
d="M309 -208q-52 0 -87 29t-41 83l63 9q9 -59 65 -59q30 0 48 19.5t18 53.5q0 37 -17 57.5t-49 20.5q-44 0 -71 -37l-48 10l21 218h209v-60h-157l-12 -100q23 25 66 25q58 0 92 -36t34 -98q0 -63 -36 -99t-98 -36z" />
    <glyph glyph-name="uni2086" unicode="&#x2086;" 
d="M311 -208q-62 0 -98.5 37t-36.5 95q0 42 24 85l109 191h69l-90 -150q6 5 29 5q60 0 94 -35.5t34 -95.5q0 -59 -36 -95.5t-98 -36.5zM311 -148q30 0 48 20t18 52q0 33 -18 52t-48 19t-48.5 -19t-18.5 -52q0 -32 18.5 -52t48.5 -20z" />
    <glyph glyph-name="uni2087" unicode="&#x2087;" 
d="M213 -204l141 340h-158v60h239v-26l-153 -374h-69z" />
    <glyph glyph-name="uni2088" unicode="&#x2088;" 
d="M310 -208q-54 0 -91.5 33t-37.5 89q0 72 58 98q-45 30 -45 83q0 47 32 76t84 29t84 -29t32 -76q0 -53 -45 -83q58 -26 58 -98q0 -56 -37.5 -89t-91.5 -33zM310 38q24 0 39 15.5t15 38.5t-15 38.5t-39 15.5t-39 -15.5t-15 -38.5t15 -38.5t39 -15.5zM310 -148
q28 0 44.5 17.5t16.5 45.5q0 29 -16.5 46t-44.5 17t-44.5 -17t-16.5 -46q0 -28 16.5 -45.5t44.5 -17.5z" />
    <glyph glyph-name="uni2089" unicode="&#x2089;" 
d="M243 -204l90 150q-6 -5 -29 -5q-60 0 -94 35.5t-34 95.5q0 59 36 95.5t98 36.5t98.5 -37t36.5 -95q0 -42 -24 -85l-109 -191h-69zM310 1q30 0 48.5 19t18.5 52q0 32 -18.5 52t-48.5 20t-48 -20t-18 -52q0 -33 18 -52t48 -19z" />
    <glyph glyph-name="franc" unicode="&#x20a3;" 
d="M528 616h-349v-209h300v-84h-300v-149h163v-84h-163v-90h-88v90h-60v84h60v526h437v-84z" />
    <glyph glyph-name="uni20A8" unicode="&#x20a8;" 
d="M380 486q-7 -58 -42.5 -96t-89.5 -52l124 -338h-78l-123 331h-24v-331h-78v486h-32v63h32v151h137q70 0 117 -39.5t57 -111.5h67v-63h-67zM147 623v-74h154q-15 74 -94 74h-60zM147 409h60q80 0 95 77h-155v-77zM505 224q44 -22 67 -47.5t23 -65.5q0 -52 -32 -85t-83 -33
q-45 0 -75 27.5t-40 80.5l54 29q13 -72 63 -72q19 0 32 12t13 33q0 22 -14.5 38t-48.5 33q-86 45 -86 114q0 47 30.5 74.5t73.5 27.5q72 0 105 -65l-47 -41q-20 44 -56 44q-19 0 -30.5 -11t-11.5 -27q0 -21 14 -35t49 -31z" />
    <glyph glyph-name="dong" unicode="&#x20ab;" 
d="M509 654v-58h-45v-414h-78v43q-37 -50 -104 -50q-78 0 -122 53t-44 140q0 85 44 138.5t121 53.5q67 0 105 -48v84h-94v58h94v46h78v-46h45zM293 244q45 0 71 33.5t26 90.5q0 56 -26 89.5t-71 33.5t-71.5 -33.5t-26.5 -89.5q0 -57 26.5 -90.5t71.5 -33.5zM509 124v-58
h-398v58h398z" />
    <glyph glyph-name="Euro" unicode="&#x20ac;" 
d="M374 -8q-98 0 -161 63.5t-85 177.5h-85l34 74h42q-1 11 -1 43t1 43h-76l34 74h51q22 114 85 177.5t161 63.5q141 0 202 -128l-74 -40q-43 88 -128 88q-124 0 -158 -161h253l-34 -74h-228q-1 -11 -1 -43t1 -43h262l-34 -74h-219q34 -161 158 -161q85 0 128 88l74 -40
q-61 -128 -202 -128z" />
    <glyph glyph-name="uni20AD" unicode="&#x20ad;" 
d="M586 422v-84h-304l284 -338h-112l-282 338h-11v-338h-88v338h-54v84h54v278h88v-278h3l265 278h115l-267 -278h309z" />
    <glyph glyph-name="uni20B1" unicode="&#x20b1;" 
d="M590 586v-71h-39v-15v-15h39v-71h-54q-21 -54 -70 -84t-123 -30h-177v-300h-88v414h-48v71h48v30h-48v71h48v114h265q74 0 123 -30t70 -84h54zM166 616v-30h264q-30 30 -89 30h-175zM460 500q0 10 -1 15h-293v-30h293q1 5 1 15zM341 384q59 0 89 30h-264v-30h175z" />
    <glyph glyph-name="uni20B4" unicode="&#x20b4;" 
d="M453 447h74v-73h-434v73h256q57 39 57 95q0 35 -25.5 60t-66.5 25q-76 0 -108 -78l-71 45q50 114 179 114q76 0 126 -45.5t50 -116.5q0 -59 -37 -99zM93 253v73h434v-73h-249q-57 -39 -57 -95q0 -35 25 -60t66 -25q75 0 109 78l70 -45q-50 -114 -179 -114
q-76 0 -126 45.5t-50 116.5q0 57 37 99h-80z" />
    <glyph glyph-name="uni20B8" unicode="&#x20b8;" 
d="M72 598v76h476v-76h-476zM268 0v428h-196v76h476v-76h-196v-428h-84z" />
    <glyph glyph-name="uni20BA" unicode="&#x20ba;" 
d="M471 253h90v-53q0 -93 -54.5 -146.5t-153.5 -53.5h-193v257l-127 -32v73l127 32v63l-127 -32v73l127 32v234h87v-211l178 45v-73l-178 -45v-63l178 45v-73l-178 -45v-199h105q119 0 119 119v53z" />
    <glyph glyph-name="uni20BD" unicode="&#x20bd;" 
d="M372 700q100 0 154 -53.5t54 -146.5t-54 -146.5t-154 -53.5h-177v-94h155v-84h-155v-122h-88v122h-67v84h67v94h-67v84h67v316h265zM370 384q119 0 119 116t-119 116h-175v-232h175z" />
    <glyph glyph-name="uni20BF" unicode="&#x20bf;" 
d="M550 208q0 -91 -51 -145.5t-143 -61.5v-71h-76v70h-49v-70h-76v70h-85v700h85v70h76v-70h49v70h76v-72q76 -10 117.5 -56t41.5 -122q0 -45 -22.5 -81.5t-57.5 -55.5q52 -21 83.5 -66.5t31.5 -108.5zM424 515q0 50 -30 75.5t-80 25.5h-156v-201h156q51 0 80.5 25.5
t29.5 74.5zM319 84q140 0 140 124q0 123 -140 123h-161v-247h161z" />
    <glyph glyph-name="uni2113" unicode="&#x2113;" 
d="M434 156l70 -27q-21 -68 -58 -102.5t-103 -34.5q-145 0 -145 152v150q-47 -30 -48 -31l-40 63q38 22 88 57v192q0 57 30.5 95t92.5 38q60 0 86.5 -34.5t26.5 -83.5q0 -60 -35.5 -119t-93.5 -102q-3 -3 -9.5 -7t-9.5 -7v-219q0 -70 62 -70q32 0 52 20t34 70zM318 633
q-32 0 -32 -51v-129q64 64 64 136q0 44 -32 44z" />
    <glyph glyph-name="uni2116" unicode="&#x2116;" 
d="M485 452q-56 0 -89.5 35.5t-33.5 92.5t33.5 92.5t89.5 35.5t89.5 -35.5t33.5 -92.5t-33.5 -92.5t-89.5 -35.5zM25 0v700h86l140 -475v475h78v-700h-86l-140 475v-475h-78zM485 524q21 0 34 15t13 41t-13 41t-34 15t-34 -15t-13 -41t13 -41t34 -15zM371 316v80h228v-80
h-228z" />
    <glyph glyph-name="uni2117" unicode="&#x2117;" 
d="M310 628q117 0 194 -79.5t77 -198.5t-77 -198.5t-194 -79.5t-194 79.5t-77 198.5t77 198.5t194 79.5zM310 133q92 0 149.5 62t57.5 155t-57.5 155t-149.5 62t-149.5 -62t-57.5 -155t57.5 -155t149.5 -62zM319 498q45 0 69.5 -23.5t24.5 -61.5t-24.5 -61.5t-69.5 -23.5
h-54v-126h-52v296h106zM316 377q43 0 43 36t-43 36h-51v-72h51z" />
    <glyph glyph-name="uni2120" unicode="&#x2120;" 
d="M145 292q-50 0 -84 31t-41 79l49 33q18 -85 76 -85q21 0 35.5 15t14.5 42q0 32 -15.5 49.5t-52.5 35.5q-40 21 -63 47.5t-23 68.5q0 45 28.5 72.5t73.5 27.5q74 0 101 -67l-47 -32q-15 43 -54 43q-19 0 -31.5 -11.5t-12.5 -30.5t14.5 -36t26 -23.5t40.5 -22.5
q39 -21 58 -46.5t19 -68.5q0 -57 -31 -89t-81 -32zM301 300v400h59l88 -259l88 259h60v-400h-54v256l-75 -219h-37l-75 219v-256h-54z" />
    <glyph glyph-name="trademark" unicode="&#x2122;" 
d="M105 300v342h-93v58h248v-58h-93v-342h-62zM306 300v400h67l77 -207l77 207h69v-400h-64v279l-63 -164h-38l-63 164v-279h-62z" />
    <glyph glyph-name="uni2126" unicode="&#x2126;" 
d="M50 0v78h134q-54 59 -92.5 150t-38.5 180q0 140 71.5 220t187.5 80t187 -80t71 -220q0 -89 -38.5 -180t-92.5 -150h134v-78h-233v78q72 66 106.5 152t34.5 174q0 110 -48.5 166.5t-120.5 56.5q-73 0 -121 -56.5t-48 -166.5q0 -88 34.5 -174t105.5 -152v-78h-233z" />
    <glyph glyph-name="estimated" unicode="&#x212e;" 
d="M133 350v-155q27 -40 74.5 -65t102.5 -25q68 0 123.5 31.5t81.5 86.5h44q-33 -69 -101 -112t-148 -43q-123 0 -200 81.5t-77 200.5q0 120 77 201.5t200 81.5q122 0 199.5 -79.5t77.5 -203.5h-454zM310 597q-54 0 -101 -23t-76 -61v-126h358v123q-25 37 -73.5 62
t-107.5 25z" />
    <glyph glyph-name="uni2153" unicode="&#x2153;" 
d="M31 366v54h76v199l-69 -32v63l105 50h24v-280h76v-54h-212zM122 102l-41 41l440 439l41 -42zM489 -4q-49 0 -80.5 28t-35.5 74l58 12q9 -60 58 -60q24 0 37.5 16t13.5 46q0 27 -13.5 41t-34.5 14q-23 0 -35 -9l-27 36l67 86h-105v54h191v-23l-78 -99q44 0 70.5 -28.5
t26.5 -71.5q0 -53 -30.5 -84.5t-82.5 -31.5z" />
    <glyph glyph-name="uni2154" unicode="&#x2154;" 
d="M34 366v25l127 151q25 30 25 61q0 20 -12 32.5t-31 12.5q-43 0 -52 -53l-54 15q7 42 34.5 68t71.5 26q51 0 78 -26.5t27 -70.5q0 -52 -37 -96l-73 -89h113v-56h-217zM122 102l-41 41l440 439l41 -42zM489 -4q-49 0 -80.5 28t-35.5 74l58 12q9 -60 58 -60q24 0 37.5 16
t13.5 46q0 27 -13.5 41t-34.5 14q-23 0 -35 -9l-27 36l67 86h-105v54h191v-23l-78 -99q44 0 70.5 -28.5t26.5 -71.5q0 -53 -30.5 -84.5t-82.5 -31.5z" />
    <glyph glyph-name="oneeighth" unicode="&#x215b;" 
d="M31 366v54h76v199l-69 -32v63l105 50h24v-280h76v-54h-212zM137 102l-41 41l440 439l41 -42zM480 -4q-47 0 -79 27.5t-32 74.5q0 55 49 84q-36 25 -36 69q0 39 28 63t70 24t70 -24t28 -63q0 -42 -36 -69q49 -29 49 -84q0 -47 -32 -74.5t-79 -27.5zM480 202
q17 0 29.5 11.5t12.5 30.5t-12.5 30.5t-29.5 11.5t-29.5 -11.5t-12.5 -30.5t12.5 -30.5t29.5 -11.5zM480 50q22 0 36.5 13t14.5 36t-14.5 37t-36.5 14t-36.5 -14t-14.5 -37t14.5 -36t36.5 -13z" />
    <glyph glyph-name="threeeighths" unicode="&#x215c;" 
d="M162 362q-49 0 -80.5 28t-35.5 74l58 12q9 -60 58 -60q24 0 37.5 16t13.5 46q0 27 -13.5 41t-34.5 14q-23 0 -35 -9l-27 36l67 86h-105v54h191v-23l-78 -99q44 0 70.5 -28.5t26.5 -71.5q0 -53 -30.5 -84.5t-82.5 -31.5zM115 102l-41 41l440 439l41 -42zM480 -4
q-47 0 -79 27.5t-32 74.5q0 55 49 84q-36 25 -36 69q0 39 28 63t70 24t70 -24t28 -63q0 -42 -36 -69q49 -29 49 -84q0 -47 -32 -74.5t-79 -27.5zM480 202q17 0 29.5 11.5t12.5 30.5t-12.5 30.5t-29.5 11.5t-29.5 -11.5t-12.5 -30.5t12.5 -30.5t29.5 -11.5zM480 50
q22 0 36.5 13t14.5 36t-14.5 37t-36.5 14t-36.5 -14t-14.5 -37t14.5 -36t36.5 -13z" />
    <glyph glyph-name="fiveeighths" unicode="&#x215d;" 
d="M159 362q-44 0 -73.5 24t-35.5 67l53 14q10 -51 56 -51q54 0 54 59q0 27 -14 43t-39 16q-35 0 -56 -28l-46 8l18 186h177v-54h-129l-9 -77q21 19 55 19q49 0 76 -29.5t27 -86.5q0 -54 -33.5 -82t-80.5 -28zM115 102l-41 41l440 439l41 -42zM480 -4q-47 0 -79 27.5
t-32 74.5q0 55 49 84q-36 25 -36 69q0 39 28 63t70 24t70 -24t28 -63q0 -42 -36 -69q49 -29 49 -84q0 -47 -32 -74.5t-79 -27.5zM480 202q17 0 29.5 11.5t12.5 30.5t-12.5 30.5t-29.5 11.5t-29.5 -11.5t-12.5 -30.5t12.5 -30.5t29.5 -11.5zM480 50q22 0 36.5 13t14.5 36
t-14.5 37t-36.5 14t-36.5 -14t-14.5 -37t14.5 -36t36.5 -13z" />
    <glyph glyph-name="seveneighths" unicode="&#x215e;" 
d="M111 360l124 286h-147v54h219v-23l-135 -317h-61zM92 102l-41 41l440 439l41 -42zM464 -4q-47 0 -79 27.5t-32 74.5q0 55 49 84q-36 25 -36 69q0 39 28 63t70 24t70 -24t28 -63q0 -42 -36 -69q49 -29 49 -84q0 -47 -32 -74.5t-79 -27.5zM464 202q17 0 29.5 11.5
t12.5 30.5t-12.5 30.5t-29.5 11.5t-29.5 -11.5t-12.5 -30.5t12.5 -30.5t29.5 -11.5zM464 50q22 0 36.5 13t14.5 36t-14.5 37t-36.5 14t-36.5 -14t-14.5 -37t14.5 -36t36.5 -13z" />
    <glyph glyph-name="arrowleft" unicode="&#x2190;" 
d="M275 114l-236 236l236 236l53 -54l-141 -144h384v-76h-384l141 -144z" />
    <glyph glyph-name="arrowup" unicode="&#x2191;" 
d="M272 84v384l-144 -141l-54 53l236 236l236 -236l-54 -53l-144 141v-384h-76z" />
    <glyph glyph-name="arrowright" unicode="&#x2192;" 
d="M340 114l-53 54l141 144h-384v76h384l-141 144l53 54l236 -236z" />
    <glyph glyph-name="arrowdown" unicode="&#x2193;" 
d="M310 84l-236 236l54 53l144 -141v384h76v-384l144 141l54 -53z" />
    <glyph glyph-name="arrowboth" unicode="&#x2194;" 
d="M387 571l221 -221l-221 -221l-53 54l126 129h-301l126 -129l-53 -54l-221 221l221 221l53 -54l-126 -129h301l-126 129z" />
    <glyph glyph-name="arrowupdn" unicode="&#x2195;" 
d="M348 110l144 141l54 -53l-236 -236l-236 236l54 53l144 -141v483l-144 -141l-54 53l236 236l236 -236l-54 -53l-144 141v-483z" />
    <glyph glyph-name="uni2196" unicode="&#x2196;" 
d="M477 144l-281 281v-202h-77v333h333v-77h-202l281 -281z" />
    <glyph glyph-name="uni2197" unicode="&#x2197;" 
d="M143 144l-54 54l281 281h-202v77h333v-333h-77v202z" />
    <glyph glyph-name="uni2198" unicode="&#x2198;" 
d="M168 144v77h202l-281 281l54 54l281 -281v202h77v-333h-333z" />
    <glyph glyph-name="uni2199" unicode="&#x2199;" 
d="M119 144v333h77v-202l281 281l54 -54l-281 -281h202v-77h-333z" />
    <glyph glyph-name="partialdiff" unicode="&#x2202;" 
d="M270 -8q-88 0 -142.5 59t-54.5 160q0 128 75.5 214.5t198.5 86.5q80 0 116 -50q-20 170 -141 170q-81 0 -118 -84l-78 20q25 64 76.5 102t122.5 38q223 0 223 -351q0 -69 -15.5 -131.5t-46.5 -116t-87 -85.5t-129 -32zM275 68q84 0 133 66.5t49 161.5q0 140 -118 140
q-83 0 -131.5 -69t-48.5 -158q0 -64 29.5 -102.5t86.5 -38.5z" />
    <glyph glyph-name="uni2206" unicode="&#x2206;" 
d="M61 0v20l210 680h78l210 -680v-20h-498zM156 76h308l-154 505z" />
    <glyph glyph-name="product" unicode="&#x220f;" 
d="M106 0v700h408v-700h-84v624h-240v-624h-84z" />
    <glyph glyph-name="summation" unicode="&#x2211;" 
d="M82 0v20l224 330l-224 330v20h456v-76h-320l174 -264v-20l-174 -264h320v-76h-456z" />
    <glyph glyph-name="minus" unicode="&#x2212;" 
d="M90 280v74h440v-74h-440z" />
    <glyph glyph-name="uni2215" unicode="&#x2215;" 
d="M64 -50l406 800h86l-406 -800h-86z" />
    <glyph glyph-name="uni2219" unicode="&#x2219;" 
d="M310 209q-39 0 -66 27.5t-27 66.5t27 66.5t66 27.5q38 0 65.5 -27.5t27.5 -66.5t-27.5 -66.5t-65.5 -27.5z" />
    <glyph glyph-name="radical" unicode="&#x221a;" 
d="M304 0l-101 313h-104v76h153l86 -270l183 589h80l-231 -708h-66z" />
    <glyph glyph-name="infinity" unicode="&#x221e;" 
d="M169 194q-70 0 -112 42.5t-42 122.5t42 122.5t112 42.5q49 0 88 -29t53 -72q14 43 53 72t88 29q70 0 112 -42.5t42 -122.5t-42 -122.5t-112 -42.5q-49 0 -88 29t-53 72q-14 -43 -53 -72t-88 -29zM179 270q31 0 57 26.5t36 62.5q-10 36 -36 62.5t-57 26.5q-36 0 -57 -23.5
t-21 -65.5t21 -65.5t57 -23.5zM441 270q36 0 57 23.5t21 65.5t-21 65.5t-57 23.5q-31 0 -57 -26.5t-36 -62.5q10 -36 36 -62.5t57 -26.5z" />
    <glyph glyph-name="integral" unicode="&#x222b;" 
d="M114 -212q-64 0 -106 29l36 74q32 -27 75 -27q74 0 93 95l112 576q19 95 63.5 134t118.5 39q64 0 106 -29l-36 -74q-32 27 -75 27q-74 0 -93 -95l-112 -576q-19 -95 -63.5 -134t-118.5 -39z" />
    <glyph glyph-name="approxequal" unicode="&#x2248;" 
d="M412 363q-44 0 -101.5 25t-92.5 25q-56 0 -93 -45l-49 50q22 41 57 65t75 24q44 0 102 -25t92 -25q56 0 93 45l49 -51q-22 -41 -56.5 -64.5t-75.5 -23.5zM412 163q-44 0 -101.5 25t-92.5 25q-56 0 -93 -45l-49 50q22 41 57 65t75 24q44 0 102 -25t92 -25q56 0 93 45
l49 -51q-22 -41 -56.5 -64.5t-75.5 -23.5z" />
    <glyph glyph-name="notequal" unicode="&#x2260;" 
d="M226 88l-64 37l37 65h-88v74h131l52 92h-183v74h225l59 102l64 -37l-37 -65h88v-74h-131l-52 -92h183v-74h-225z" />
    <glyph glyph-name="lessequal" unicode="&#x2264;" 
d="M514 162l-409 196v88l409 196v-87l-325 -153l325 -153v-87zM90 0v74h440v-74h-440z" />
    <glyph glyph-name="greaterequal" unicode="&#x2265;" 
d="M106 162v87l325 153l-325 153v87l409 -196v-88zM90 0v74h440v-74h-440z" />
    <glyph glyph-name="lozenge" unicode="&#x25ca;" 
d="M269 0l-208 350l208 350h82l208 -350l-208 -350h-82zM310 81l159 269l-159 269l-159 -269z" />
    <glyph glyph-name="uniF8FF" unicode="&#xf8ff;" 
d="M36 0q-9 0 -15.5 6.5t-6.5 15.5v595q0 17 16 22l270 78q6 2 10 2t10 -2l270 -78q16 -5 16 -22v-595q0 -9 -6.5 -15.5t-15.5 -6.5q-3 0 -7 1l-267 77l-267 -77q-4 -1 -7 -1zM288 366v303l-230 -67q6 -94 71.5 -161t158.5 -75zM332 366q93 8 158.5 75t71.5 161l-230 67
v-303zM57 51l231 67v204q-73 6 -134 43.5t-97 97.5v-412zM563 51v412q-37 -60 -97.5 -97.5t-133.5 -43.5v-204z" />
    <glyph glyph-name="uni0122.ss02" 
d="M327 -8q-121 0 -202 92.5t-81 265.5q0 174 81.5 266t207.5 92q99 0 163 -57.5t88 -155.5l-83 -25q-24 78 -63.5 116t-104.5 38q-93 0 -145.5 -67.5t-52.5 -206.5t52.5 -206.5t145.5 -67.5q143 0 157 193h-157v84h248v-353h-73l-5 94q-23 -50 -70.5 -76t-105.5 -26z
M279 -263l-15 19q51 34 56 86q-48 15 -48 56q0 23 15.5 39t40.5 16t41.5 -17.5t16.5 -45.5q0 -84 -107 -153z" />
    <glyph glyph-name="uni0136.ss02" 
d="M63 0v700h88v-281l268 281h115l-302 -315l324 -385h-112l-293 351v-351h-88zM224 -263l-15 19q51 34 56 86q-48 15 -48 56q0 23 15.5 39t40.5 16t41.5 -17.5t16.5 -45.5q0 -84 -107 -153z" />
    <glyph glyph-name="Lcaron.ss02" 
d="M385 534l-15 19q51 34 56 86q-48 15 -48 56q0 23 15.5 39t40.5 16t41.5 -17.5t16.5 -45.5q0 -84 -107 -153zM88 0v700h88v-616h357v-84h-445z" />
    <glyph glyph-name="uni013B.ss02" 
d="M88 0v700h88v-616h357v-84h-445zM264 -263l-15 19q51 34 56 86q-48 15 -48 56q0 23 15.5 39t40.5 16t41.5 -17.5t16.5 -45.5q0 -84 -107 -153z" />
    <glyph glyph-name="uni0145.ss02" 
d="M71 0v700h96l293 -540v540h88v-700h-96l-293 540v-540h-88zM259 -263l-15 19q51 34 56 86q-48 15 -48 56q0 23 15.5 39t40.5 16t41.5 -17.5t16.5 -45.5q0 -84 -107 -153z" />
    <glyph glyph-name="uni0156.ss02" 
d="M80 0v700h245q96 0 151 -47t55 -138q0 -149 -146 -179l209 -336h-104l-205 330h-117v-330h-88zM168 414h159q113 0 113 101t-113 101h-159v-202zM269 -263l-15 19q51 34 56 86q-48 15 -48 56q0 23 15.5 39t40.5 16t41.5 -17.5t16.5 -45.5q0 -84 -107 -153z" />
    <glyph glyph-name="uni0218.ss02" 
d="M320 -8q-101 0 -171 53.5t-90 154.5l82 32q41 -156 179 -156q56 0 97.5 31t41.5 82q0 53 -35.5 80t-118.5 48q-90 23 -146 69.5t-56 134.5q0 80 57.5 133.5t156.5 53.5q85 0 140 -43t79 -107l-77 -39q-46 105 -142 105q-58 0 -92 -28.5t-34 -79.5t38.5 -74t123.5 -45
q45 -12 76 -25t60 -35t43.5 -56t14.5 -80q0 -99 -66 -154t-161 -55zM259 -263l-15 19q51 34 56 86q-48 15 -48 56q0 23 15.5 39t40.5 16t41.5 -17.5t16.5 -45.5q0 -84 -107 -153z" />
    <glyph glyph-name="uni021A.ss02" 
d="M266 0v616h-218v84h524v-84h-218v-616h-88zM259 -263l-15 19q51 34 56 86q-48 15 -48 56q0 23 15.5 39t40.5 16t41.5 -17.5t16.5 -45.5q0 -84 -107 -153z" />
    <glyph glyph-name="i.loclTRK" 
d="M304 570q-29 0 -49 20t-20 48q0 29 20 49.5t49 20.5t49 -20.5t20 -49.5t-20 -48.5t-49 -19.5zM88 0v74h174v356h-154v74h238v-430h186v-74h-444z" />
    <glyph glyph-name="a.ss01" 
d="M306 -8q-109 0 -170 71t-61 189t61 189t170 71q50 0 90.5 -20.5t63.5 -51.5v64h84v-504h-84v67q-23 -32 -64 -53.5t-90 -21.5zM314 68q71 0 112 51t41 133t-41 133t-112 51t-112 -51t-41 -133t41 -133t112 -51z" />
    <glyph glyph-name="aacute.ss01" 
d="M280 560l67 144h121l-122 -144h-66zM306 -8q-109 0 -170 71t-61 189t61 189t170 71q50 0 90.5 -20.5t63.5 -51.5v64h84v-504h-84v67q-23 -32 -64 -53.5t-90 -21.5zM314 68q71 0 112 51t41 133t-41 133t-112 51t-112 -51t-41 -133t41 -133t112 -51z" />
    <glyph glyph-name="abreve.ss01" 
d="M315 591q-47 0 -79 31.5t-32 77.5h67q0 -20 12.5 -32.5t31.5 -12.5q20 0 32 12.5t12 32.5h67q0 -46 -31.5 -77.5t-79.5 -31.5zM306 -8q-109 0 -170 71t-61 189t61 189t170 71q50 0 90.5 -20.5t63.5 -51.5v64h84v-504h-84v67q-23 -32 -64 -53.5t-90 -21.5zM314 68
q71 0 112 51t41 133t-41 133t-112 51t-112 -51t-41 -133t41 -133t112 -51z" />
    <glyph glyph-name="acircumflex.ss01" 
d="M148 560l154 152h26l154 -152h-91l-76 75l-76 -75h-91zM306 -8q-109 0 -170 71t-61 189t61 189t170 71q50 0 90.5 -20.5t63.5 -51.5v64h84v-504h-84v67q-23 -32 -64 -53.5t-90 -21.5zM314 68q71 0 112 51t41 133t-41 133t-112 51t-112 -51t-41 -133t41 -133t112 -51z" />
    <glyph glyph-name="adieresis.ss01" 
d="M223 586q-24 0 -40.5 16.5t-16.5 40.5t16.5 40.5t40.5 16.5t40.5 -16.5t16.5 -40.5t-16.5 -40.5t-40.5 -16.5zM407 586q-24 0 -40.5 16.5t-16.5 40.5t16.5 40.5t40.5 16.5t40.5 -16.5t16.5 -40.5t-16.5 -40.5t-40.5 -16.5zM306 -8q-109 0 -170 71t-61 189t61 189t170 71
q50 0 90.5 -20.5t63.5 -51.5v64h84v-504h-84v67q-23 -32 -64 -53.5t-90 -21.5zM314 68q71 0 112 51t41 133t-41 133t-112 51t-112 -51t-41 -133t41 -133t112 -51z" />
    <glyph glyph-name="agrave.ss01" 
d="M298 560l-122 144h121l67 -144h-66zM306 -8q-109 0 -170 71t-61 189t61 189t170 71q50 0 90.5 -20.5t63.5 -51.5v64h84v-504h-84v67q-23 -32 -64 -53.5t-90 -21.5zM314 68q71 0 112 51t41 133t-41 133t-112 51t-112 -51t-41 -133t41 -133t112 -51z" />
    <glyph glyph-name="amacron.ss01" 
d="M187 600v74h254v-74h-254zM306 -8q-109 0 -170 71t-61 189t61 189t170 71q50 0 90.5 -20.5t63.5 -51.5v64h84v-504h-84v67q-23 -32 -64 -53.5t-90 -21.5zM314 68q71 0 112 51t41 133t-41 133t-112 51t-112 -51t-41 -133t41 -133t112 -51z" />
    <glyph glyph-name="aogonek.ss01" 
d="M552 -101l17 -66q-28 -17 -65 -17q-43 0 -69 23.5t-26 63.5q0 53 60 97h-9v67q-23 -32 -64 -53.5t-90 -21.5q-109 0 -170 71t-61 189t61 189t170 71q50 0 90.5 -20.5t63.5 -51.5v64h84v-504q-62 -52 -62 -84t33 -32q19 0 37 15zM314 68q71 0 112 51t41 133t-41 133
t-112 51t-112 -51t-41 -133t41 -133t112 -51z" />
    <glyph glyph-name="aring.ss01" 
d="M315 557q-42 0 -70.5 27.5t-28.5 68.5q0 42 28.5 71t70.5 29q43 0 71 -29t28 -71q0 -41 -28 -68.5t-71 -27.5zM315 610q19 0 31 12.5t12 31.5q0 20 -12 33t-31 13t-31 -13t-12 -33q0 -19 12 -31.5t31 -12.5zM306 -8q-109 0 -170 71t-61 189t61 189t170 71
q50 0 90.5 -20.5t63.5 -51.5v64h84v-504h-84v67q-23 -32 -64 -53.5t-90 -21.5zM314 68q71 0 112 51t41 133t-41 133t-112 51t-112 -51t-41 -133t41 -133t112 -51z" />
    <glyph glyph-name="aringacute.ss01" 
d="M280 795l67 144h121l-122 -144h-66zM315 557q-42 0 -70.5 27.5t-28.5 68.5q0 42 28.5 71t70.5 29q43 0 71 -29t28 -71q0 -41 -28 -68.5t-71 -27.5zM315 610q19 0 31 12.5t12 31.5q0 20 -12 33t-31 13t-31 -13t-12 -33q0 -19 12 -31.5t31 -12.5zM306 -8q-109 0 -170 71
t-61 189t61 189t170 71q50 0 90.5 -20.5t63.5 -51.5v64h84v-504h-84v67q-23 -32 -64 -53.5t-90 -21.5zM314 68q71 0 112 51t41 133t-41 133t-112 51t-112 -51t-41 -133t41 -133t112 -51z" />
    <glyph glyph-name="atilde.ss01" 
d="M384 578q-36 0 -72 20t-59 20q-37 0 -66 -36l-49 38q18 34 46.5 55t60.5 21q36 0 72 -20t59 -20q37 0 66 36l49 -39q-18 -33 -46.5 -54t-60.5 -21zM306 -8q-109 0 -170 71t-61 189t61 189t170 71q50 0 90.5 -20.5t63.5 -51.5v64h84v-504h-84v67q-23 -32 -64 -53.5
t-90 -21.5zM314 68q71 0 112 51t41 133t-41 133t-112 51t-112 -51t-41 -133t41 -133t112 -51z" />
    <glyph glyph-name="ae.ss01" 
d="M183 -8q-68 0 -113 61.5t-45 197.5q0 137 45 199t113 62q53 0 78 -39v31h86v-35q31 43 90 43q75 0 116 -59.5t41 -168.5v-50h-246q0 -79 22 -122.5t61 -43.5q32 0 50 23t35 76l72 -21q-39 -154 -157 -154q-53 0 -84 42v-34h-86v35q-32 -43 -78 -43zM186 68q76 0 76 185
q0 101 -20 142t-56 41q-37 0 -57.5 -39t-20.5 -144q0 -106 20.5 -145.5t57.5 -39.5zM348 310h162q0 55 -21 90.5t-58 35.5q-35 0 -59 -35t-24 -91z" />
    <glyph glyph-name="aeacute.ss01" 
d="M269 560l67 144h121l-122 -144h-66zM183 -8q-68 0 -113 61.5t-45 197.5q0 137 45 199t113 62q53 0 78 -39v31h86v-35q31 43 90 43q75 0 116 -59.5t41 -168.5v-50h-246q0 -79 22 -122.5t61 -43.5q32 0 50 23t35 76l72 -21q-39 -154 -157 -154q-53 0 -84 42v-34h-86v35
q-32 -43 -78 -43zM186 68q76 0 76 185q0 101 -20 142t-56 41q-37 0 -57.5 -39t-20.5 -144q0 -106 20.5 -145.5t57.5 -39.5zM348 310h162q0 55 -21 90.5t-58 35.5q-35 0 -59 -35t-24 -91z" />
    <glyph glyph-name="dcaron.ss02" 
d="M535 534l-15 19q51 34 56 86q-48 15 -48 56q0 23 15.5 39t40.5 16t41.5 -17.5t16.5 -45.5q0 -84 -107 -153zM246 -8q-109 0 -170 71t-61 189t61 189t170 71q50 0 90.5 -20.5t63.5 -51.5v268h84v-708h-84v67q-23 -32 -64 -53.5t-90 -21.5zM254 68q71 0 112 51t41 133
t-41 133t-112 51t-112 -51t-41 -133t41 -133t112 -51z" />
    <glyph glyph-name="uni0123.ss02" 
d="M317 562q-25 0 -41.5 17.5t-16.5 44.5q0 83 107 154l15 -19q-51 -34 -56 -86q48 -15 48 -56q0 -23 -15.5 -39t-40.5 -16zM316 -212q-110 0 -171.5 42.5t-61.5 123.5q0 68 52 108q-36 28 -36 77q0 34 19.5 61t54.5 40q-31 42 -31 103q0 77 50.5 123t127.5 46q54 0 99 -26
l105 54l38 -69l-85 -44q21 -36 21 -84q0 -77 -50 -123t-128 -46q-52 0 -93 21q-46 -18 -46 -52q0 -42 71 -42h131q81 0 125 -35.5t44 -103.5q0 -88 -69 -131t-167 -43zM320 246q41 0 68.5 25.5t27.5 71.5t-27.5 71.5t-68.5 25.5t-68.5 -26t-27.5 -71t27.5 -71t68.5 -26z
M316 -138q71 0 110.5 24.5t39.5 67.5q0 75 -85 75h-119q-31 0 -52 4q-43 -22 -43 -76q0 -44 40.5 -69.5t108.5 -25.5z" />
    <glyph glyph-name="uni0137.ss02" 
d="M94 0v708h84v-415l215 211h110l-235 -231l258 -273h-110l-238 253v-253h-84zM242 -263l-15 19q51 34 56 86q-48 15 -48 56q0 23 15.5 39t40.5 16t41.5 -17.5t16.5 -45.5q0 -84 -107 -153z" />
    <glyph glyph-name="lcaron.ss02" 
d="M418 534l-15 19q51 34 56 86q-48 15 -48 56q0 23 15.5 39t40.5 16t41.5 -17.5t16.5 -45.5q0 -84 -107 -153zM378 -8q-88 0 -139 52t-51 146v434h-139v76h223v-510q0 -122 106 -122q98 0 117 122l76 -15q-13 -90 -63.5 -136.5t-129.5 -46.5z" />
    <glyph glyph-name="uni013C.ss02" 
d="M378 -8q-88 0 -139 52t-51 146v434h-139v76h223v-510q0 -122 106 -122q98 0 117 122l76 -15q-13 -90 -63.5 -136.5t-129.5 -46.5zM326 -263l-15 19q51 34 56 86q-48 15 -48 56q0 23 15.5 39t40.5 16t41.5 -17.5t16.5 -45.5q0 -84 -107 -153z" />
    <glyph glyph-name="uni0146.ss02" 
d="M106 0v504h84v-93q28 45 73.5 73t97.5 28q77 0 115.5 -43t38.5 -118v-351h-84v333q0 103 -93 103q-62 0 -105 -63.5t-43 -169.5v-203h-84zM259 -263l-15 19q51 34 56 86q-48 15 -48 56q0 23 15.5 39t40.5 16t41.5 -17.5t16.5 -45.5q0 -84 -107 -153z" />
    <glyph glyph-name="uni0157.ss02" 
d="M92 0v504h84v-93q65 101 186 101q75 0 118.5 -43.5t47.5 -124.5h-84q-11 92 -97 92q-71 0 -121 -66.5t-50 -187.5v-182h-84zM83 -263l-15 19q51 34 56 86q-48 15 -48 56q0 23 15.5 39t40.5 16t41.5 -17.5t16.5 -45.5q0 -84 -107 -153z" />
    <glyph glyph-name="uni0219.ss02" 
d="M322 -8q-78 0 -137 38t-82 108l80 30q13 -48 50 -74t89 -26q48 0 77.5 18.5t29.5 53.5q0 34 -28 50t-102 30q-35 7 -61.5 16t-51 25.5t-37.5 42.5t-13 62q0 66 50 106t122 40q129 0 187 -112l-69 -44q-44 80 -121 80q-36 0 -61.5 -16.5t-25.5 -50.5q0 -31 28.5 -48.5
t88.5 -29.5q41 -8 69 -17t56 -25t42 -41.5t14 -60.5q0 -70 -56.5 -112.5t-137.5 -42.5zM259 -263l-15 19q51 34 56 86q-48 15 -48 56q0 23 15.5 39t40.5 16t41.5 -17.5t16.5 -45.5q0 -84 -107 -153z" />
    <glyph glyph-name="tcaron.ss02" 
d="M417 534l-15 19q51 34 56 86q-48 15 -48 56q0 23 15.5 39t40.5 16t41.5 -17.5t16.5 -45.5q0 -84 -107 -153zM371 -8q-83 0 -127 44t-44 131v261h-134v76h134v151l84 53v-204h176v-76h-176v-258q0 -102 87 -102q67 0 124 60l31 -71q-65 -65 -155 -65z" />
    <glyph glyph-name="uni021B.ss02" 
d="M371 -8q-83 0 -127 44t-44 131v261h-134v76h134v151l84 53v-204h176v-76h-176v-258q0 -102 87 -102q67 0 124 60l31 -71q-65 -65 -155 -65zM309 -263l-15 19q51 34 56 86q-48 15 -48 56q0 23 15.5 39t40.5 16t41.5 -17.5t16.5 -45.5q0 -84 -107 -153z" />
    <glyph glyph-name="f_b" 
d="M421 -8q-75 0 -114 55v-47h-84v632h-21q-31 0 -46 -16.5t-15 -58.5v-53h53v-76h-53v-428h-84v428h-40v76h40v60q0 144 142 144h108v-248q17 23 50 37.5t64 14.5q87 0 134 -71t47 -189t-47 -189t-134 -71zM413 68q49 0 76 50.5t27 133.5t-27 133.5t-76 50.5
q-113 0 -113 -184t113 -184z" />
    <glyph glyph-name="f_f" 
d="M87 0v428h-72v76h72v31q0 173 155 173q57 0 105 -29l-21 -74q-42 27 -81 27q-74 0 -74 -95v-33h176v31q0 173 155 173q57 0 105 -29l-21 -74q-42 27 -81 27q-74 0 -74 -95v-33h156v-76h-156v-428h-84v428h-176v-428h-84z" />
    <glyph glyph-name="f_h" 
d="M57 0v428h-40v76h40v61q0 143 142 143h128v-266q41 70 130 70q65 0 105 -41.5t40 -120.5v-350h-86v341q0 95 -74 95q-115 0 -115 -212v-224h-84v632h-41q-31 0 -46 -16.5t-15 -58.5v-53h53v-76h-53v-428h-84z" />
    <glyph glyph-name="f_i" 
d="M165 0v428h-92v76h92v26q0 86 52 132t133 46q61 0 102 -17.5t75 -58.5l-58 -55q-52 55 -120 55q-47 0 -73.5 -24t-26.5 -71v-33h297v-504h-84v428h-213v-428h-84z" />
    <glyph glyph-name="f_j" 
d="M355 -212l-28 80q72 24 103.5 66t31.5 116v378h-213v-428h-84v428h-92v76h92v26q0 86 52 132t133 46q61 0 102 -17.5t75 -58.5l-58 -55q-52 55 -120 55q-47 0 -73.5 -24t-26.5 -71v-33h297v-476q0 -101 -55.5 -160.5t-135.5 -79.5z" />
    <glyph glyph-name="f_k" 
d="M463 273l125 -273h-93l-108 253v-253h-84v632h-55q-70 0 -70 -95v-25h84v-76h-84v-436h-84v436h-62v76h62v18q0 178 155 178h138v-415l85 211h93z" />
    <glyph glyph-name="f_l" 
d="M165 0v428h-92v76h92v18q0 178 155 178h228v-700h-84v624h-145q-70 0 -70 -95v-25h104v-76h-104v-428h-84z" />
    <glyph glyph-name="zero.osf" 
d="M310 -8q-112 0 -180 76t-68 184t68 184t180 76t180 -76t68 -184t-68 -184t-180 -76zM310 68q74 0 118 54t44 130t-44 130t-118 54t-118 -54t-44 -130t44 -130t118 -54z" />
    <glyph glyph-name="one.osf" 
d="M88 0v76h180v302l-145 -85v92l197 119h32v-428h180v-76h-444z" />
    <glyph glyph-name="two.osf" 
d="M128 0v32l156 160q6 6 20.5 21t19.5 20t15.5 16.5t14.5 17t11 15.5t9.5 16.5t6 15.5t4.5 18t1 19q0 43 -23 64.5t-62 21.5q-42 0 -67.5 -25t-30.5 -74l-76 14q4 69 53 114.5t123 45.5q75 0 121 -42.5t46 -116.5q0 -50 -26.5 -90t-85.5 -99l-88 -88h222v-76h-364z" />
    <glyph glyph-name="three.osf" 
d="M303 -204q-88 0 -151 55t-72 145l84 11q19 -131 139 -131q63 0 101.5 39t38.5 109q0 71 -38 109.5t-102 38.5q-35 0 -62 -13l-35 47l159 218h-252v80h380v-27l-178 -241q9 3 28 3q81 0 133.5 -59.5t52.5 -155.5q0 -101 -63 -164.5t-163 -63.5z" />
    <glyph glyph-name="four.osf" 
d="M366 -196v149h-304v35l296 516h94v-471h106v-80h-106v-149h-86zM176 33h190v339z" />
    <glyph glyph-name="five.osf" 
d="M315 -204q-89 0 -150 49.5t-70 141.5l85 16q9 -62 45 -94.5t90 -32.5q64 0 103 43t39 113q0 71 -35.5 113.5t-98.5 42.5q-47 0 -89 -22t-68 -56l-55 12l40 382h342v-80h-269l-26 -203q21 20 58.5 33.5t72.5 13.5q100 0 157 -63.5t57 -172.5q0 -104 -63.5 -170t-164.5 -66
z" />
    <glyph glyph-name="six.osf" 
d="M325 -8q-96 0 -158.5 65.5t-62.5 162.5q0 70 36 131l207 357h96l-152 -267q15 7 38 7q96 0 156.5 -63.5t60.5 -164.5q0 -97 -62.5 -162.5t-158.5 -65.5zM325 72q58 0 95.5 42t37.5 106q0 67 -37 107.5t-96 40.5t-96 -40.5t-37 -107.5q0 -64 37.5 -106t95.5 -42z" />
    <glyph glyph-name="seven.osf" 
d="M136 -196l295 620h-339v80h449v-37l-312 -663h-93z" />
    <glyph glyph-name="eight.osf" 
d="M310 -8q-91 0 -154 56.5t-63 152.5q0 63 28 108.5t76 67.5q-35 19 -57.5 59.5t-22.5 84.5q0 79 54.5 133t138.5 54t138.5 -54t54.5 -133q0 -44 -22.5 -84.5t-57.5 -59.5q48 -22 76 -67.5t28 -108.5q0 -96 -63 -152.5t-154 -56.5zM310 410q49 0 78 31t29 80t-29 80t-78 31
t-78 -31t-29 -80t29 -80t78 -31zM310 72q57 0 93 35t36 94t-36 94t-93 35t-93 -35t-36 -94t36 -94t93 -35z" />
    <glyph glyph-name="nine.osf" 
d="M192 -204l152 267q-15 -7 -38 -7q-96 0 -156.5 63.5t-60.5 164.5q0 97 62.5 162.5t158.5 65.5t158.5 -65.5t62.5 -162.5q0 -70 -36 -131l-207 -357h-96zM310 136q59 0 96 40.5t37 107.5q0 64 -37.5 106t-95.5 42t-95.5 -42t-37.5 -106q0 -67 37 -107.5t96 -40.5z" />
    <glyph glyph-name="zero.osf.zero" 
d="M310 512q112 0 180 -76t68 -184t-68 -184t-180 -76t-180 76t-68 184t68 184t180 76zM310 436q-74 0 -118 -54t-44 -130q0 -81 46 -133l166 310q-28 7 -50 7zM310 68q74 0 118 54t44 130q0 80 -46 132l-165 -309q26 -7 49 -7z" />
    <glyph glyph-name="zero.zero" 
d="M310 -8q-121 0 -188.5 96.5t-67.5 261.5t67.5 261.5t188.5 96.5t188.5 -96.5t67.5 -261.5t-67.5 -261.5t-188.5 -96.5zM179 160l208 445q-34 23 -77 23q-80 0 -124 -74.5t-44 -203.5q0 -116 37 -190zM310 72q80 0 124 74.5t44 203.5q0 118 -37 190l-208 -445
q34 -23 77 -23z" />
    <glyph glyph-name="uni2080.zero" 
d="M310 -208q-72 0 -112 55.5t-40 148.5t40 148.5t112 55.5t112 -55.5t40 -148.5t-40 -148.5t-112 -55.5zM240 -92l103 223q-15 9 -33 9q-37 0 -60.5 -36t-23.5 -108q0 -54 14 -88zM310 -148q37 0 60.5 36t23.5 108q0 57 -15 90l-103 -225q15 -9 34 -9z" />
    <glyph glyph-name="uni2070.zero" 
d="M310 296q-72 0 -112 55.5t-40 148.5t40 148.5t112 55.5t112 -55.5t40 -148.5t-40 -148.5t-112 -55.5zM240 412l103 223q-15 9 -33 9q-37 0 -60.5 -36t-23.5 -108q0 -54 14 -88zM310 356q37 0 60.5 36t23.5 108q0 57 -15 90l-103 -225q15 -9 34 -9z" />
    <glyph glyph-name="bullet.case" 
d="M310 267q-34 0 -58.5 24.5t-24.5 58.5t24.5 58.5t58.5 24.5t58.5 -24.5t24.5 -58.5t-24.5 -58.5t-58.5 -24.5z" />
    <glyph glyph-name="exclamdown.case" 
d="M310 703q30 0 50 -19.5t20 -48.5q0 -30 -20 -50.5t-50 -20.5t-50 20.5t-20 50.5q0 29 20 48.5t50 19.5zM277 500h66l24 -500h-114z" />
    <glyph glyph-name="questiondown.case" 
d="M306 703q28 0 47 -19t19 -47q0 -29 -19 -48.5t-47 -19.5t-48 19.5t-20 48.5q0 28 19.5 47t48.5 19zM306 498q60 0 96 -33.5t36 -90.5q0 -78 -85 -120l-92 -47q-43 -22 -43 -71q0 -36 23 -54.5t63 -18.5q38 0 65.5 25t39.5 67l78 -13q-12 -68 -60 -109t-123 -41
q-76 0 -123 39.5t-47 109.5q0 81 77 119l101 49q49 24 49 69q0 24 -14 37.5t-38 13.5q-47 0 -72 -59l-65 23q36 105 134 105z" />
    <glyph glyph-name="comma.ss02" 
d="M256 -112l-16 21q24 16 40.5 40.5t19.5 49.5q-25 6 -38.5 23.5t-13.5 38.5q0 25 17 42t43 17q27 0 45 -19t18 -48q0 -90 -115 -165z" />
    <glyph glyph-name="semicolon.ss02" 
d="M311 363q-27 0 -44.5 17.5t-17.5 44.5t17.5 44.5t44.5 17.5t44.5 -17.5t17.5 -44.5t-17.5 -44.5t-44.5 -17.5zM257 -112l-16 21q24 16 40.5 40.5t19.5 49.5q-25 6 -38.5 23.5t-13.5 38.5q0 25 17 42t43 17q27 0 45 -19t18 -48q0 -90 -115 -165z" />
    <glyph glyph-name="periodcentered.ss04" 
d="M310 279q-31 0 -51 20t-20 51t20 51t51 20t51 -20t20 -51t-20 -51t-51 -20z" />
    <glyph glyph-name="colon.ss04" 
d="M310 345q-31 0 -51 20t-20 51t20 51t51 20t51 -20t20 -51t-20 -51t-51 -20zM310 -4q-31 0 -51 20t-20 51t20 51t51 20t51 -20t20 -51t-20 -51t-51 -20z" />
    <glyph glyph-name="comma.ss04" 
d="M200 -103l58 222h131l-117 -222h-72z" />
    <glyph glyph-name="ellipsis.ss04" 
d="M108 -4q-31 0 -51 20t-20 51t20 51t51 20t51 -20t20 -51t-20 -51t-51 -20zM310 -4q-31 0 -51 20t-20 51t20 51t51 20t51 -20t20 -51t-20 -51t-51 -20zM508 -4q-31 0 -51 20t-20 51t20 51t51 20t51 -20t20 -51t-20 -51t-51 -20z" />
    <glyph glyph-name="period.ss04" 
d="M310 -4q-31 0 -51 20t-20 51t20 51t51 20t51 -20t20 -51t-20 -51t-51 -20z" />
    <glyph glyph-name="semicolon.ss04" 
d="M310 350q-31 0 -51 20t-20 51t20 51t51 20t51 -20t20 -51t-20 -51t-51 -20zM190 -103l58 222h131l-117 -222h-72z" />
    <glyph glyph-name="comma.ss02.ss04" 
d="M245 -136l-18 24q69 47 73 109q-30 7 -45.5 27t-15.5 45q0 29 19.5 49t50.5 20q32 0 53 -22t21 -56q0 -57 -38.5 -108t-99.5 -88z" />
    <glyph glyph-name="semicolon.ss02.ss04" 
d="M310 350q-31 0 -51 20t-20 51t20 51t51 20t51 -20t20 -51t-20 -51t-51 -20zM245 -136l-18 24q69 47 73 109q-30 7 -45.5 27t-15.5 45q0 29 19.5 49t50.5 20q32 0 53 -22t21 -56q0 -57 -38.5 -108t-99.5 -88z" />
    <glyph glyph-name="braceleft.case" 
d="M368 0q-43 0 -69.5 28t-26.5 75v126q0 46 -17.5 64.5t-61.5 18.5v76q44 0 61.5 18.5t17.5 64.5v127q0 47 26.5 74.5t69.5 27.5h59v-75h-29q-25 0 -35.5 -11.5t-10.5 -37.5v-129q0 -46 -17 -67t-51 -30q34 -9 51 -30t17 -67v-129q0 -26 10.5 -37t35.5 -11h29v-76h-59z" />
    <glyph glyph-name="braceright.case" 
d="M252 0h-59v76h29q25 0 35.5 11t10.5 37v129q0 46 17 67t51 30q-34 9 -51 30t-17 67v129q0 26 -10.5 37.5t-35.5 11.5h-29v75h59q43 0 69.5 -27.5t26.5 -74.5v-127q0 -46 17.5 -64.5t61.5 -18.5v-76q-44 0 -61.5 -18.5t-17.5 -64.5v-126q0 -47 -26.5 -75t-69.5 -28z" />
    <glyph glyph-name="bracketleft.case" 
d="M212 0v700h196v-73h-116v-554h116v-73h-196z" />
    <glyph glyph-name="bracketright.case" 
d="M408 0h-196v73h116v554h-116v73h196v-700z" />
    <glyph glyph-name="parenleft.case" 
d="M320 0q-100 169 -100 350t100 350h80q-95 -169 -95 -350q0 -182 94 -350h-79z" />
    <glyph glyph-name="parenright.case" 
d="M300 0h-79q94 168 94 350q0 181 -95 350h80q100 -169 100 -350t-100 -350z" />
    <glyph glyph-name="emdash.case" 
d="M65 313v74h490v-74h-490z" />
    <glyph glyph-name="endash.case" 
d="M105 313v74h409v-74h-409z" />
    <glyph glyph-name="hyphen.case" 
d="M136 313v74h349v-74h-349z" />
    <glyph glyph-name="uni00AD.case" 
d="M136 280v74h349v-74h-349z" />
    <glyph glyph-name="guillemotleft.case" 
d="M337 120l-294 199v62l294 199v-90l-209 -140l209 -140v-90zM577 120l-294 199v62l294 199v-90l-209 -140l209 -140v-90z" />
    <glyph glyph-name="guillemotright.case" 
d="M43 120v90l209 140l-209 140v90l294 -199v-62zM283 120v90l209 140l-209 140v90l294 -199v-62z" />
    <glyph glyph-name="guilsinglleft.case" 
d="M457 120l-294 199v62l294 199v-90l-209 -140l209 -140v-90z" />
    <glyph glyph-name="guilsinglright.case" 
d="M163 120v90l209 140l-209 140v90l294 -199v-62z" />
    <glyph glyph-name="quotedblbase.ss02" 
d="M231 121q27 0 45 -19.5t18 -49.5q0 -98 -120 -163l-13 24q55 33 62 87q-25 6 -38.5 23.5t-13.5 38.5q0 25 17 42t43 17zM391 121q27 0 45 -19.5t18 -49.5q0 -98 -120 -163l-13 24q55 33 62 87q-25 6 -38.5 23.5t-13.5 38.5q0 25 17 42t43 17z" />
    <glyph glyph-name="quotedblleft.ss02" 
d="M224 476q-27 0 -45 19.5t-18 49.5q0 98 120 163l13 -24q-55 -33 -62 -87q25 -6 38.5 -23.5t13.5 -38.5q0 -25 -17 -42t-43 -17zM384 476q-27 0 -45 19.5t-18 49.5q0 98 120 163l13 -24q-55 -33 -62 -87q25 -6 38.5 -23.5t13.5 -38.5q0 -25 -17 -42t-43 -17z" />
    <glyph glyph-name="quotedblright.ss02" 
d="M231 708q27 0 45 -19.5t18 -49.5q0 -98 -120 -163l-13 24q55 33 62 87q-25 6 -38.5 23.5t-13.5 38.5q0 25 17 42t43 17zM391 708q27 0 45 -19.5t18 -49.5q0 -98 -120 -163l-13 24q55 33 62 87q-25 6 -38.5 23.5t-13.5 38.5q0 25 17 42t43 17z" />
    <glyph glyph-name="quoteleft.ss02" 
d="M309 476q-27 0 -45 19.5t-18 49.5q0 98 120 163l13 -24q-55 -33 -62 -87q25 -6 38.5 -23.5t13.5 -38.5q0 -25 -17 -42t-43 -17z" />
    <glyph glyph-name="quoteright.ss02" 
d="M313 708q27 0 45 -19.5t18 -49.5q0 -98 -120 -163l-13 24q55 33 62 87q-25 6 -38.5 23.5t-13.5 38.5q0 25 17 42t43 17z" />
    <glyph glyph-name="quotesinglbase.ss02" 
d="M311 121q27 0 45 -19.5t18 -49.5q0 -98 -120 -163l-13 24q55 33 62 87q-25 6 -38.5 23.5t-13.5 38.5q0 25 17 42t43 17z" />
    <glyph glyph-name="uni037E.ss02.001" 
d="M311 363q-27 0 -44.5 17.5t-17.5 44.5t17.5 44.5t44.5 17.5t44.5 -17.5t17.5 -44.5t-17.5 -44.5t-44.5 -17.5zM257 -112l-16 21q24 16 40.5 40.5t19.5 49.5q-25 6 -38.5 23.5t-13.5 38.5q0 25 17 42t43 17q27 0 45 -19t18 -48q0 -90 -115 -165z" />
    <glyph glyph-name="uni037E.ss04" 
d="M310 350q-31 0 -51 20t-20 51t20 51t51 20t51 -20t20 -51t-20 -51t-51 -20zM245 -136l-18 24q69 47 73 109q-30 7 -45.5 27t-15.5 45q0 29 19.5 49t50.5 20q32 0 53 -22t21 -56q0 -57 -38.5 -108t-99.5 -88z" />
    <glyph glyph-name="arrowup.ss03" 
d="M272 64v404l-144 -141l-54 53l236 236l236 -236l-54 -53l-144 141v-404h-76z" />
    <glyph glyph-name="uni2197.ss03" 
d="M154 145l-53 54l285 285l-202 2v76l335 -1v-333h-77l-2 202z" />
    <glyph glyph-name="arrowright.ss03" 
d="M350 114l-53 54l141 144h-404v76h404l-141 144l53 55l236 -236z" />
    <glyph glyph-name="uni2198.ss03" 
d="M184 146v75h204l-287 287l53 54l288 -287v204h77v-333h-335z" />
    <glyph glyph-name="arrowdown.ss03" 
d="M272 616h76v-404l144 141l54 -53l-236 -236l-236 236l54 53l144 -141v404z" />
    <glyph glyph-name="uni2199.ss03" 
d="M101 146v333h77v-204l288 287l53 -54l-287 -287h204v-75h-335z" />
    <glyph glyph-name="arrowleft.ss03" 
d="M586 388v-76h-404l141 -144l-53 -54l-236 237l236 236l53 -55l-141 -144h404z" />
    <glyph glyph-name="uni2196.ss03" 
d="M466 145l-286 285l-2 -201l-77 -1v333l335 1l-1 -76l-201 -2l285 -285z" />
    <glyph glyph-name="caroncomb.alt" horiz-adv-x="0" 
d="M-373 542l24 174h104l-72 -174h-56z" />
    <glyph glyph-name="uni0308.cap" horiz-adv-x="0" 
d="M-402 782q-24 0 -40.5 16.5t-16.5 40.5t16.5 40.5t40.5 16.5t40.5 -16.5t16.5 -40.5t-16.5 -40.5t-40.5 -16.5zM-218 782q-24 0 -40.5 16.5t-16.5 40.5t16.5 40.5t40.5 16.5t40.5 -16.5t16.5 -40.5t-16.5 -40.5t-40.5 -16.5z" />
    <glyph glyph-name="uni0307.cap" horiz-adv-x="0" 
d="M-310 776q-29 0 -49 20t-20 48q0 29 20 49.5t49 20.5t49 -20.5t20 -49.5t-20 -48.5t-49 -19.5z" />
    <glyph glyph-name="gravecomb.cap" horiz-adv-x="0" 
d="M-282 756l-122 144h121l67 -144h-66z" />
    <glyph glyph-name="acutecomb.cap" horiz-adv-x="0" 
d="M-404 756l67 144h121l-122 -144h-66z" />
    <glyph glyph-name="uni030B.cap" horiz-adv-x="0" 
d="M-512 756l68 144h121l-121 -144h-68zM-322 756l68 144h121l-121 -144h-68z" />
    <glyph glyph-name="uni0302.cap" horiz-adv-x="0" 
d="M-477 756l154 152h26l154 -152h-91l-76 75l-76 -75h-91z" />
    <glyph glyph-name="uni030C.cap" horiz-adv-x="0" 
d="M-323 756l-154 152h91l76 -75l76 75h91l-154 -152h-26z" />
    <glyph glyph-name="uni0306.cap" horiz-adv-x="0" 
d="M-310 787q-47 0 -79 31.5t-32 77.5h67q0 -20 12.5 -32.5t31.5 -12.5q20 0 32 12.5t12 32.5h67q0 -46 -31.5 -77.5t-79.5 -31.5z" />
    <glyph glyph-name="uni030A.cap" horiz-adv-x="0" 
d="M-310 753q-42 0 -70.5 27.5t-28.5 68.5q0 42 28.5 71t70.5 29q43 0 71 -29t28 -71q0 -41 -28 -68.5t-71 -27.5zM-310 806q19 0 31 12.5t12 31.5q0 20 -12 33t-31 13t-31 -13t-12 -33q0 -19 12 -31.5t31 -12.5z" />
    <glyph glyph-name="tildecomb.cap" horiz-adv-x="0" 
d="M-241 774q-36 0 -72 20t-59 20q-37 0 -66 -36l-49 38q18 34 46.5 55t60.5 21q36 0 72 -20t59 -20q37 0 66 36l49 -39q-18 -33 -46.5 -54t-60.5 -21z" />
    <glyph glyph-name="uni0304.cap" horiz-adv-x="0" 
d="M-437 796v74h254v-74h-254z" />
    <glyph glyph-name="uni0327.cap" horiz-adv-x="0" 
d="M-304 -235l-95 45l108 130h70z" />
    <glyph glyph-name="uni0328.cap" horiz-adv-x="0" 
d="M-295 -184q-43 0 -69 23.5t-26 63.5q0 53 60 97h75q-62 -52 -62 -84t33 -32q19 0 37 15l17 -66q-28 -17 -65 -17z" />
    <glyph glyph-name="uni0335.cap" horiz-adv-x="0" 
d="M-480 312v76h341v-76h-341z" />
    <glyph glyph-name="uni0337.cap" horiz-adv-x="0" 
d="M-437 223l-39 74l289 168l43 -74z" />
    <glyph glyph-name="uni0338.cap" horiz-adv-x="0" 
d="M-553 -24l-59 44l545 704l59 -44z" />
    <glyph glyph-name="caroncomb.alt.ss02" horiz-adv-x="0" 
d="M-358 534l-15 19q51 34 56 86q-48 15 -48 56q0 23 15.5 39t40.5 16t41.5 -17.5t16.5 -45.5q0 -84 -107 -153z" />
    <glyph glyph-name="uni0312.ss02" horiz-adv-x="0" 
d="M-313 562q-25 0 -41.5 17.5t-16.5 44.5q0 83 107 154l15 -19q-51 -34 -56 -86q48 -15 48 -56q0 -23 -15.5 -39t-40.5 -16z" />
    <glyph glyph-name="uni0326.ss02" horiz-adv-x="0" 
d="M-362 -263l-15 19q51 34 56 86q-48 15 -48 56q0 23 15.5 39t40.5 16t41.5 -17.5t16.5 -45.5q0 -84 -107 -153z" />
    <glyph glyph-name="brevecombcy" horiz-adv-x="0" 
d="M-310 591q-47 0 -79 31.5t-32 77.5h67q0 -20 12.5 -32.5t31.5 -12.5q20 0 32 12.5t12 32.5h67q0 -46 -31.5 -77.5t-79.5 -31.5z" />
    <glyph glyph-name="NULL" 
 />
    <glyph glyph-name="tonoscomb" 
d="M216 560l43 143h121l-96 -143h-68z" />
    <glyph glyph-name="dieresistonoscomb" 
d="M241 560l43 143h108l-92 -143h-59zM172 575q-23 0 -39.5 16t-16.5 40t16.5 40.5t39.5 16.5q25 0 41 -16.5t16 -40.5t-16 -40t-41 -16zM447 575q-23 0 -39.5 16t-16.5 40t16.5 40.5t39.5 16.5q25 0 41 -16.5t16 -40.5t-16 -40t-41 -16z" />
  </font>
</defs>
</svg>
